<?xml version="1.0" standalone="no"?>
<!DOCTYPE svg PUBLIC "-//W3C//DTD SVG 1.1//EN" "http://www.w3.org/Graphics/SVG/1.1/DTD/svg11.dtd" >
<svg>
<metadata>
Created by FontForge 20110222 at Sun Jun 30 12:22:27 2013
 By Orthosie Webhosting
Copyright (c) Underware, Den Haag (NL). All rights reserved.
</metadata>
<defs>
<font id="Unibody8ProBlack" horiz-adv-x="1000" >
  <font-face 
    font-family="Unibody8ProBlack"
    font-weight="900"
    font-stretch="normal"
    units-per-em="1000"
    panose-1="2 0 10 0 0 0 0 0 0 0"
    ascent="800"
    descent="-200"
    x-height="620"
    cap-height="870"
    bbox="-120 -495 1870 1245"
    underline-thickness="115"
    underline-position="-73"
    unicode-range="U+0020-FB02"
  />
<missing-glyph horiz-adv-x="875" 
d="M370 870v-115h-115v115h115zM495 870v-115h-115v115h115zM620 870v-115h-115v115h115zM245 870v-115h-115v115h115zM745 870v-115h-115v115h115zM245 745v-115h-115v115h115zM745 745v-115h-115v115h115zM245 620v-115h-115v115h115zM745 620v-115h-115v115h115zM245 495
v-115h-115v115h115zM745 495v-115h-115v115h115zM245 370v-115h-115v115h115zM745 370v-115h-115v115h115zM245 245v-115h-115v115h115zM745 245v-115h-115v115h115zM370 120v-115h-115v115h115zM495 120v-115h-115v115h115zM620 120v-115h-115v115h115zM245 120v-115h-115
v115h115zM745 120v-115h-115v115h115z" />
    <glyph glyph-name=".notdef" horiz-adv-x="875" 
d="M370 870v-115h-115v115h115zM495 870v-115h-115v115h115zM620 870v-115h-115v115h115zM245 870v-115h-115v115h115zM745 870v-115h-115v115h115zM245 745v-115h-115v115h115zM745 745v-115h-115v115h115zM245 620v-115h-115v115h115zM745 620v-115h-115v115h115zM245 495
v-115h-115v115h115zM745 495v-115h-115v115h115zM245 370v-115h-115v115h115zM745 370v-115h-115v115h115zM245 245v-115h-115v115h115zM745 245v-115h-115v115h115zM370 120v-115h-115v115h115zM495 120v-115h-115v115h115zM620 120v-115h-115v115h115zM245 120v-115h-115
v115h115zM745 120v-115h-115v115h115z" />
    <glyph glyph-name=".null" horiz-adv-x="500" 
 />
    <glyph glyph-name="nonmarkingreturn" horiz-adv-x="333" 
 />
    <glyph glyph-name="space" unicode=" " horiz-adv-x="375" 
 />
    <glyph glyph-name="exclam" unicode="!" horiz-adv-x="750" 
d="M370 995v-115h-115v115h115zM245 995v-115h-115v115h115zM495 995v-115h-115v115h115zM495 870v-115h-115v115h115zM370 870v-115h-115v115h115zM245 870v-115h-115v115h115zM495 745v-115h-115v115h115zM370 745v-115h-115v115h115zM245 745v-115h-115v115h115zM495 620
v-115h-115v115h115zM370 620v-115h-115v115h115zM245 620v-115h-115v115h115zM370 495v-115h-115v115h115zM245 495v-115h-115v115h115zM495 245v-115h-115v115h115zM370 245v-115h-115v115h115zM245 245v-115h-115v115h115zM495 120v-115h-115v115h115zM370 120v-115h-115
v115h115zM245 120v-115h-115v115h115z" />
    <glyph glyph-name="quotedbl" unicode="&#x22;" 
d="M370 995v-115h-115v115h115zM620 995v-115h-115v115h115zM745 995v-115h-115v115h115zM245 995v-115h-115v115h115zM245 870v-115h-115v115h115zM370 870v-115h-115v115h115zM620 870v-115h-115v115h115zM745 870v-115h-115v115h115zM245 745v-115h-115v115h115zM370 745
v-115h-115v115h115zM620 745v-115h-115v115h115zM745 745v-115h-115v115h115zM370 620v-115h-115v115h115zM245 620v-115h-115v115h115zM620 620v-115h-115v115h115zM745 620v-115h-115v115h115z" />
    <glyph glyph-name="numbersign" unicode="#" horiz-adv-x="875" 
d="M245 870v-115h-115v115h115zM620 870v-115h-115v115h115zM745 745v-115h-115v115h115zM620 745v-115h-115v115h115zM495 745v-115h-115v115h115zM370 745v-115h-115v115h115zM245 745v-115h-115v115h115zM120 745v-115h-115v115h115zM620 620v-115h-115v115h115zM245 620
v-115h-115v115h115zM745 495v-115h-115v115h115zM620 495v-115h-115v115h115zM495 495v-115h-115v115h115zM370 495v-115h-115v115h115zM245 495v-115h-115v115h115zM120 495v-115h-115v115h115zM620 370v-115h-115v115h115zM245 370v-115h-115v115h115z" />
    <glyph glyph-name="dollar" unicode="$" horiz-adv-x="875" 
d="M495 1120v-115h-115v115h115zM495 995v-115h-115v115h115zM745 870v-115h-115v115h115zM620 870v-115h-115v115h115zM495 870v-115h-115v115h115zM370 870v-115h-115v115h115zM245 870v-115h-115v115h115zM620 745v-115h-115v115h115zM245 745v-115h-115v115h115z
M120 745v-115h-115v115h115zM370 745v-115h-115v115h115zM745 745v-115h-115v115h115zM120 620v-115h-115v115h115zM245 620v-115h-115v115h115zM370 620v-115h-115v115h115zM495 620v-115h-115v115h115zM245 495v-115h-115v115h115zM370 495v-115h-115v115h115zM495 495
v-115h-115v115h115zM620 495v-115h-115v115h115zM370 370v-115h-115v115h115zM495 370v-115h-115v115h115zM620 370v-115h-115v115h115zM745 370v-115h-115v115h115zM495 245v-115h-115v115h115zM620 245v-115h-115v115h115zM745 245v-115h-115v115h115zM120 245v-115h-115
v115h115zM245 245v-115h-115v115h115zM620 120v-115h-115v115h115zM495 120v-115h-115v115h115zM370 120v-115h-115v115h115zM245 120v-115h-115v115h115zM120 120v-115h-115v115h115zM495 -5v-115h-115v115h115zM495 -130v-115h-115v115h115z" />
    <glyph glyph-name="percent" unicode="%" horiz-adv-x="875" 
d="M620 870v-115h-115v115h115zM245 870v-115h-115v115h115zM120 870v-115h-115v115h115zM370 870v-115h-115v115h115zM745 870v-115h-115v115h115zM745 745v-115h-115v115h115zM620 745v-115h-115v115h115zM245 745v-115h-115v115h115zM120 745v-115h-115v115h115zM620 620
v-115h-115v115h115zM495 620v-115h-115v115h115zM495 495v-115h-115v115h115zM370 495v-115h-115v115h115zM370 370v-115h-115v115h115zM245 370v-115h-115v115h115zM620 245v-115h-115v115h115zM245 245v-115h-115v115h115zM745 245v-115h-115v115h115zM120 245v-115h-115
v115h115zM620 120v-115h-115v115h115zM495 120v-115h-115v115h115zM245 120v-115h-115v115h115zM745 120v-115h-115v115h115zM120 120v-115h-115v115h115z" />
    <glyph glyph-name="ampersand" unicode="&#x26;" horiz-adv-x="1250" 
d="M495 870v-115h-115v115h115zM370 870v-115h-115v115h115zM245 870v-115h-115v115h115zM620 870v-115h-115v115h115zM745 870v-115h-115v115h115zM245 745v-115h-115v115h115zM120 745v-115h-115v115h115zM370 745v-115h-115v115h115zM620 745v-115h-115v115h115zM745 745
v-115h-115v115h115zM245 620v-115h-115v115h115zM120 620v-115h-115v115h115zM370 620v-115h-115v115h115zM995 495v-115h-115v115h115zM870 495v-115h-115v115h115zM745 495v-115h-115v115h115zM370 495v-115h-115v115h115zM245 495v-115h-115v115h115zM495 495v-115h-115
v115h115zM1120 495v-115h-115v115h115zM870 370v-115h-115v115h115zM745 370v-115h-115v115h115zM245 370v-115h-115v115h115zM120 370v-115h-115v115h115zM370 370v-115h-115v115h115zM870 245v-115h-115v115h115zM745 245v-115h-115v115h115zM245 245v-115h-115v115h115z
M120 245v-115h-115v115h115zM370 245v-115h-115v115h115zM745 120v-115h-115v115h115zM495 120v-115h-115v115h115zM370 120v-115h-115v115h115zM245 120v-115h-115v115h115zM620 120v-115h-115v115h115z" />
    <glyph glyph-name="quotesingle" unicode="'" horiz-adv-x="625" 
d="M245 995v-115h-115v115h115zM370 995v-115h-115v115h115zM245 870v-115h-115v115h115zM370 870v-115h-115v115h115zM370 745v-115h-115v115h115zM245 745v-115h-115v115h115zM245 620v-115h-115v115h115zM370 620v-115h-115v115h115z" />
    <glyph glyph-name="parenleft" unicode="(" horiz-adv-x="875" 
d="M370 995v-115h-115v115h115zM620 995v-115h-115v115h115zM495 995v-115h-115v115h115zM370 870v-115h-115v115h115zM245 870v-115h-115v115h115zM370 745v-115h-115v115h115zM245 745v-115h-115v115h115zM370 620v-115h-115v115h115zM245 620v-115h-115v115h115zM370 495
v-115h-115v115h115zM245 495v-115h-115v115h115zM370 370v-115h-115v115h115zM245 370v-115h-115v115h115zM370 245v-115h-115v115h115zM245 245v-115h-115v115h115zM370 120v-115h-115v115h115zM245 120v-115h-115v115h115zM370 -5v-115h-115v115h115zM245 -5v-115h-115
v115h115zM495 -130v-115h-115v115h115zM620 -130v-115h-115v115h115zM370 -130v-115h-115v115h115z" />
    <glyph glyph-name="parenright" unicode=")" horiz-adv-x="875" 
d="M245 995v-115h-115v115h115zM495 995v-115h-115v115h115zM370 995v-115h-115v115h115zM495 870v-115h-115v115h115zM620 870v-115h-115v115h115zM620 745v-115h-115v115h115zM495 745v-115h-115v115h115zM620 620v-115h-115v115h115zM495 620v-115h-115v115h115zM620 495
v-115h-115v115h115zM495 495v-115h-115v115h115zM620 370v-115h-115v115h115zM495 370v-115h-115v115h115zM620 245v-115h-115v115h115zM495 245v-115h-115v115h115zM620 120v-115h-115v115h115zM495 120v-115h-115v115h115zM495 -5v-115h-115v115h115zM620 -5v-115h-115
v115h115zM370 -130v-115h-115v115h115zM495 -130v-115h-115v115h115zM245 -130v-115h-115v115h115z" />
    <glyph glyph-name="asterisk" unicode="*" horiz-adv-x="1375" 
d="M620 995v-115h-115v115h115zM745 995v-115h-115v115h115zM620 870v-115h-115v115h115zM745 870v-115h-115v115h115zM870 745v-115h-115v115h115zM745 745v-115h-115v115h115zM620 745v-115h-115v115h115zM495 745v-115h-115v115h115zM370 745v-115h-115v115h115zM245 745
v-115h-115v115h115zM1120 745v-115h-115v115h115zM995 745v-115h-115v115h115zM745 620v-115h-115v115h115zM620 620v-115h-115v115h115zM495 620v-115h-115v115h115zM870 620v-115h-115v115h115zM745 495v-115h-115v115h115zM495 495v-115h-115v115h115zM870 495v-115h-115
v115h115zM870 370v-115h-115v115h115zM370 370v-115h-115v115h115zM995 370v-115h-115v115h115z" />
    <glyph glyph-name="plus" unicode="+" horiz-adv-x="875" 
d="M370 745v-115h-115v115h115zM495 745v-115h-115v115h115zM495 620v-115h-115v115h115zM370 620v-115h-115v115h115zM745 495v-115h-115v115h115zM620 495v-115h-115v115h115zM495 495v-115h-115v115h115zM370 495v-115h-115v115h115zM245 495v-115h-115v115h115zM120 495
v-115h-115v115h115zM495 370v-115h-115v115h115zM370 370v-115h-115v115h115zM495 245v-115h-115v115h115zM370 245v-115h-115v115h115z" />
    <glyph glyph-name="comma" unicode="," horiz-adv-x="750" 
d="M370 245v-115h-115v115h115zM245 245v-115h-115v115h115zM495 245v-115h-115v115h115zM495 120v-115h-115v115h115zM370 120v-115h-115v115h115zM245 120v-115h-115v115h115zM495 -5v-115h-115v115h115zM370 -5v-115h-115v115h115zM370 -130v-115h-115v115h115zM245 -130
v-115h-115v115h115z" />
    <glyph glyph-name="hyphen" unicode="-" horiz-adv-x="750" 
d="M495 370v-115h-115v115h115zM370 370v-115h-115v115h115zM245 370v-115h-115v115h115zM120 370v-115h-115v115h115zM620 370v-115h-115v115h115z" />
    <glyph glyph-name="period" unicode="." horiz-adv-x="750" 
d="M370 245v-115h-115v115h115zM245 245v-115h-115v115h115zM495 245v-115h-115v115h115zM495 120v-115h-115v115h115zM370 120v-115h-115v115h115zM245 120v-115h-115v115h115z" />
    <glyph glyph-name="slash" unicode="/" horiz-adv-x="875" 
d="M620 870v-115h-115v115h115zM745 870v-115h-115v115h115zM745 745v-115h-115v115h115zM620 745v-115h-115v115h115zM495 620v-115h-115v115h115zM620 620v-115h-115v115h115zM495 495v-115h-115v115h115zM370 495v-115h-115v115h115zM370 370v-115h-115v115h115zM245 370
v-115h-115v115h115zM245 245v-115h-115v115h115zM120 245v-115h-115v115h115zM245 120v-115h-115v115h115zM120 120v-115h-115v115h115z" />
    <glyph glyph-name="zero" unicode="0" horiz-adv-x="875" 
d="M495 870v-115h-115v115h115zM370 870v-115h-115v115h115zM245 870v-115h-115v115h115zM620 870v-115h-115v115h115zM745 745v-115h-115v115h115zM620 745v-115h-115v115h115zM370 745v-115h-115v115h115zM245 745v-115h-115v115h115zM120 745v-115h-115v115h115zM745 620
v-115h-115v115h115zM620 620v-115h-115v115h115zM370 620v-115h-115v115h115zM245 620v-115h-115v115h115zM120 620v-115h-115v115h115zM745 495v-115h-115v115h115zM620 495v-115h-115v115h115zM370 495v-115h-115v115h115zM245 495v-115h-115v115h115zM120 495v-115h-115
v115h115zM745 370v-115h-115v115h115zM620 370v-115h-115v115h115zM370 370v-115h-115v115h115zM245 370v-115h-115v115h115zM120 370v-115h-115v115h115zM745 245v-115h-115v115h115zM620 245v-115h-115v115h115zM370 245v-115h-115v115h115zM245 245v-115h-115v115h115z
M120 245v-115h-115v115h115zM620 120v-115h-115v115h115zM495 120v-115h-115v115h115zM370 120v-115h-115v115h115zM245 120v-115h-115v115h115z" />
    <glyph glyph-name="one" unicode="1" horiz-adv-x="875" 
d="M495 870v-115h-115v115h115zM370 870v-115h-115v115h115zM620 870v-115h-115v115h115zM620 745v-115h-115v115h115zM495 745v-115h-115v115h115zM370 745v-115h-115v115h115zM245 745v-115h-115v115h115zM620 620v-115h-115v115h115zM495 620v-115h-115v115h115zM120 620
v-115h-115v115h115zM370 620v-115h-115v115h115zM245 620v-115h-115v115h115zM620 495v-115h-115v115h115zM495 495v-115h-115v115h115zM370 495v-115h-115v115h115zM620 370v-115h-115v115h115zM495 370v-115h-115v115h115zM370 370v-115h-115v115h115zM620 245v-115h-115
v115h115zM495 245v-115h-115v115h115zM370 245v-115h-115v115h115zM620 120v-115h-115v115h115zM495 120v-115h-115v115h115zM370 120v-115h-115v115h115z" />
    <glyph glyph-name="two" unicode="2" horiz-adv-x="875" 
d="M495 870v-115h-115v115h115zM370 870v-115h-115v115h115zM245 870v-115h-115v115h115zM120 870v-115h-115v115h115zM620 870v-115h-115v115h115zM745 745v-115h-115v115h115zM620 745v-115h-115v115h115zM245 745v-115h-115v115h115zM120 745v-115h-115v115h115zM495 745
v-115h-115v115h115zM745 620v-115h-115v115h115zM620 620v-115h-115v115h115zM495 620v-115h-115v115h115zM620 495v-115h-115v115h115zM495 495v-115h-115v115h115zM370 495v-115h-115v115h115zM245 495v-115h-115v115h115zM245 370v-115h-115v115h115zM120 370v-115h-115
v115h115zM495 245v-115h-115v115h115zM245 245v-115h-115v115h115zM120 245v-115h-115v115h115zM620 245v-115h-115v115h115zM745 245v-115h-115v115h115zM370 245v-115h-115v115h115zM745 120v-115h-115v115h115zM620 120v-115h-115v115h115zM495 120v-115h-115v115h115z
M370 120v-115h-115v115h115zM245 120v-115h-115v115h115zM120 120v-115h-115v115h115z" />
    <glyph glyph-name="three" unicode="3" horiz-adv-x="875" 
d="M495 870v-115h-115v115h115zM370 870v-115h-115v115h115zM245 870v-115h-115v115h115zM120 870v-115h-115v115h115zM745 870v-115h-115v115h115zM620 870v-115h-115v115h115zM495 745v-115h-115v115h115zM370 745v-115h-115v115h115zM245 745v-115h-115v115h115zM120 745
v-115h-115v115h115zM620 745v-115h-115v115h115zM370 620v-115h-115v115h115zM495 620v-115h-115v115h115zM495 495v-115h-115v115h115zM370 495v-115h-115v115h115zM245 495v-115h-115v115h115zM620 495v-115h-115v115h115zM620 370v-115h-115v115h115zM495 370v-115h-115
v115h115zM745 370v-115h-115v115h115zM620 245v-115h-115v115h115zM495 245v-115h-115v115h115zM745 245v-115h-115v115h115zM120 245v-115h-115v115h115zM245 245v-115h-115v115h115zM495 120v-115h-115v115h115zM370 120v-115h-115v115h115zM245 120v-115h-115v115h115z
M120 120v-115h-115v115h115zM620 120v-115h-115v115h115z" />
    <glyph glyph-name="four" unicode="4" horiz-adv-x="875" 
d="M620 870v-115h-115v115h115zM495 870v-115h-115v115h115zM745 870v-115h-115v115h115zM745 745v-115h-115v115h115zM620 745v-115h-115v115h115zM370 745v-115h-115v115h115zM495 745v-115h-115v115h115zM745 620v-115h-115v115h115zM620 620v-115h-115v115h115zM245 620
v-115h-115v115h115zM495 620v-115h-115v115h115zM745 495v-115h-115v115h115zM620 495v-115h-115v115h115zM120 495v-115h-115v115h115zM495 495v-115h-115v115h115zM745 370v-115h-115v115h115zM620 370v-115h-115v115h115zM495 370v-115h-115v115h115zM370 370v-115h-115
v115h115zM245 370v-115h-115v115h115zM120 370v-115h-115v115h115zM745 245v-115h-115v115h115zM620 245v-115h-115v115h115zM495 245v-115h-115v115h115zM745 120v-115h-115v115h115zM620 120v-115h-115v115h115zM495 120v-115h-115v115h115z" />
    <glyph glyph-name="five" unicode="5" horiz-adv-x="875" 
d="M620 870v-115h-115v115h115zM495 870v-115h-115v115h115zM370 870v-115h-115v115h115zM245 870v-115h-115v115h115zM120 870v-115h-115v115h115zM745 870v-115h-115v115h115zM245 745v-115h-115v115h115zM120 745v-115h-115v115h115zM370 745v-115h-115v115h115zM745 745
v-115h-115v115h115zM620 745v-115h-115v115h115zM495 745v-115h-115v115h115zM245 620v-115h-115v115h115zM120 620v-115h-115v115h115zM620 495v-115h-115v115h115zM495 495v-115h-115v115h115zM370 495v-115h-115v115h115zM245 495v-115h-115v115h115zM120 495v-115h-115
v115h115zM745 370v-115h-115v115h115zM620 370v-115h-115v115h115zM495 370v-115h-115v115h115zM745 245v-115h-115v115h115zM620 245v-115h-115v115h115zM495 245v-115h-115v115h115zM245 245v-115h-115v115h115zM120 245v-115h-115v115h115zM620 120v-115h-115v115h115z
M495 120v-115h-115v115h115zM370 120v-115h-115v115h115zM245 120v-115h-115v115h115zM120 120v-115h-115v115h115z" />
    <glyph glyph-name="six" unicode="6" horiz-adv-x="875" 
d="M620 870v-115h-115v115h115zM495 870v-115h-115v115h115zM370 870v-115h-115v115h115zM245 870v-115h-115v115h115zM745 870v-115h-115v115h115zM370 745v-115h-115v115h115zM245 745v-115h-115v115h115zM745 745v-115h-115v115h115zM620 745v-115h-115v115h115zM120 745
v-115h-115v115h115zM245 620v-115h-115v115h115zM120 620v-115h-115v115h115zM370 620v-115h-115v115h115zM620 495v-115h-115v115h115zM495 495v-115h-115v115h115zM370 495v-115h-115v115h115zM245 495v-115h-115v115h115zM120 495v-115h-115v115h115zM745 370v-115h-115
v115h115zM620 370v-115h-115v115h115zM245 370v-115h-115v115h115zM120 370v-115h-115v115h115zM370 370v-115h-115v115h115zM745 245v-115h-115v115h115zM620 245v-115h-115v115h115zM245 245v-115h-115v115h115zM120 245v-115h-115v115h115zM370 245v-115h-115v115h115z
M620 120v-115h-115v115h115zM495 120v-115h-115v115h115zM370 120v-115h-115v115h115zM245 120v-115h-115v115h115z" />
    <glyph glyph-name="seven" unicode="7" horiz-adv-x="875" 
d="M620 870v-115h-115v115h115zM495 870v-115h-115v115h115zM370 870v-115h-115v115h115zM245 870v-115h-115v115h115zM120 870v-115h-115v115h115zM745 870v-115h-115v115h115zM745 745v-115h-115v115h115zM620 745v-115h-115v115h115zM495 745v-115h-115v115h115zM370 745
v-115h-115v115h115zM245 745v-115h-115v115h115zM120 745v-115h-115v115h115zM620 620v-115h-115v115h115zM745 620v-115h-115v115h115zM495 495v-115h-115v115h115zM370 495v-115h-115v115h115zM620 495v-115h-115v115h115zM370 370v-115h-115v115h115zM245 370v-115h-115
v115h115zM495 370v-115h-115v115h115zM370 245v-115h-115v115h115zM245 245v-115h-115v115h115zM495 245v-115h-115v115h115zM370 120v-115h-115v115h115zM245 120v-115h-115v115h115zM495 120v-115h-115v115h115z" />
    <glyph glyph-name="eight" unicode="8" horiz-adv-x="875" 
d="M495 870v-115h-115v115h115zM370 870v-115h-115v115h115zM245 870v-115h-115v115h115zM620 870v-115h-115v115h115zM745 745v-115h-115v115h115zM245 745v-115h-115v115h115zM120 745v-115h-115v115h115zM370 745v-115h-115v115h115zM745 620v-115h-115v115h115zM245 620
v-115h-115v115h115zM120 620v-115h-115v115h115zM370 620v-115h-115v115h115zM495 620v-115h-115v115h115zM620 495v-115h-115v115h115zM495 495v-115h-115v115h115zM370 495v-115h-115v115h115zM245 495v-115h-115v115h115zM745 370v-115h-115v115h115zM120 370v-115h-115
v115h115zM620 370v-115h-115v115h115zM495 370v-115h-115v115h115zM370 370v-115h-115v115h115zM745 245v-115h-115v115h115zM620 245v-115h-115v115h115zM120 245v-115h-115v115h115zM495 245v-115h-115v115h115zM620 120v-115h-115v115h115zM495 120v-115h-115v115h115z
M370 120v-115h-115v115h115zM245 120v-115h-115v115h115z" />
    <glyph glyph-name="nine" unicode="9" horiz-adv-x="875" 
d="M495 870v-115h-115v115h115zM370 870v-115h-115v115h115zM245 870v-115h-115v115h115zM620 870v-115h-115v115h115zM745 745v-115h-115v115h115zM620 745v-115h-115v115h115zM245 745v-115h-115v115h115zM120 745v-115h-115v115h115zM495 745v-115h-115v115h115zM745 620
v-115h-115v115h115zM620 620v-115h-115v115h115zM245 620v-115h-115v115h115zM120 620v-115h-115v115h115zM495 620v-115h-115v115h115zM745 495v-115h-115v115h115zM620 495v-115h-115v115h115zM495 495v-115h-115v115h115zM370 495v-115h-115v115h115zM245 495v-115h-115
v115h115zM745 370v-115h-115v115h115zM620 370v-115h-115v115h115zM495 370v-115h-115v115h115zM620 245v-115h-115v115h115zM495 245v-115h-115v115h115zM245 245v-115h-115v115h115zM120 245v-115h-115v115h115zM745 245v-115h-115v115h115zM495 120v-115h-115v115h115z
M370 120v-115h-115v115h115zM245 120v-115h-115v115h115zM120 120v-115h-115v115h115zM620 120v-115h-115v115h115z" />
    <glyph glyph-name="colon" unicode=":" horiz-adv-x="750" 
d="M370 620v-115h-115v115h115zM245 620v-115h-115v115h115zM495 620v-115h-115v115h115zM495 495v-115h-115v115h115zM370 495v-115h-115v115h115zM245 495v-115h-115v115h115zM495 245v-115h-115v115h115zM370 245v-115h-115v115h115zM245 245v-115h-115v115h115zM495 120
v-115h-115v115h115zM370 120v-115h-115v115h115zM245 120v-115h-115v115h115z" />
    <glyph glyph-name="semicolon" unicode=";" horiz-adv-x="750" 
d="M370 620v-115h-115v115h115zM245 620v-115h-115v115h115zM495 620v-115h-115v115h115zM495 495v-115h-115v115h115zM370 495v-115h-115v115h115zM245 495v-115h-115v115h115zM495 245v-115h-115v115h115zM370 245v-115h-115v115h115zM245 245v-115h-115v115h115zM495 120
v-115h-115v115h115zM370 120v-115h-115v115h115zM245 120v-115h-115v115h115zM495 -5v-115h-115v115h115zM370 -5v-115h-115v115h115zM370 -130v-115h-115v115h115zM245 -130v-115h-115v115h115z" />
    <glyph glyph-name="less" unicode="&#x3c;" 
d="M620 870v-115h-115v115h115zM745 870v-115h-115v115h115zM620 745v-115h-115v115h115zM495 745v-115h-115v115h115zM495 620v-115h-115v115h115zM370 620v-115h-115v115h115zM370 495v-115h-115v115h115zM245 495v-115h-115v115h115zM495 370v-115h-115v115h115zM370 370
v-115h-115v115h115zM620 245v-115h-115v115h115zM495 245v-115h-115v115h115zM745 120v-115h-115v115h115zM620 120v-115h-115v115h115z" />
    <glyph glyph-name="equal" unicode="=" horiz-adv-x="875" 
d="M620 620v-115h-115v115h115zM495 620v-115h-115v115h115zM370 620v-115h-115v115h115zM245 620v-115h-115v115h115zM120 620v-115h-115v115h115zM745 620v-115h-115v115h115zM745 370v-115h-115v115h115zM620 370v-115h-115v115h115zM495 370v-115h-115v115h115zM370 370
v-115h-115v115h115zM245 370v-115h-115v115h115zM120 370v-115h-115v115h115z" />
    <glyph glyph-name="greater" unicode="&#x3e;" 
d="M245 870v-115h-115v115h115zM370 870v-115h-115v115h115zM495 745v-115h-115v115h115zM370 745v-115h-115v115h115zM620 620v-115h-115v115h115zM495 620v-115h-115v115h115zM745 495v-115h-115v115h115zM620 495v-115h-115v115h115zM620 370v-115h-115v115h115zM495 370
v-115h-115v115h115zM495 245v-115h-115v115h115zM370 245v-115h-115v115h115zM370 120v-115h-115v115h115zM245 120v-115h-115v115h115z" />
    <glyph glyph-name="question" unicode="?" horiz-adv-x="875" 
d="M495 995v-115h-115v115h115zM370 995v-115h-115v115h115zM245 995v-115h-115v115h115zM120 995v-115h-115v115h115zM620 995v-115h-115v115h115zM745 870v-115h-115v115h115zM620 870v-115h-115v115h115zM495 870v-115h-115v115h115zM370 870v-115h-115v115h115zM245 870
v-115h-115v115h115zM120 870v-115h-115v115h115zM745 745v-115h-115v115h115zM620 745v-115h-115v115h115zM620 620v-115h-115v115h115zM495 620v-115h-115v115h115zM370 620v-115h-115v115h115zM245 620v-115h-115v115h115zM370 495v-115h-115v115h115zM245 495v-115h-115
v115h115zM495 245v-115h-115v115h115zM370 245v-115h-115v115h115zM245 245v-115h-115v115h115zM495 120v-115h-115v115h115zM370 120v-115h-115v115h115zM245 120v-115h-115v115h115z" />
    <glyph glyph-name="at" unicode="@" horiz-adv-x="1125" 
d="M870 745v-115h-115v115h115zM620 745v-115h-115v115h115zM745 745v-115h-115v115h115zM370 745v-115h-115v115h115zM495 745v-115h-115v115h115zM245 745v-115h-115v115h115zM995 620v-115h-115v115h115zM745 620v-115h-115v115h115zM620 620v-115h-115v115h115zM495 620
v-115h-115v115h115zM870 620v-115h-115v115h115zM245 620v-115h-115v115h115zM120 620v-115h-115v115h115zM995 495v-115h-115v115h115zM495 495v-115h-115v115h115zM870 495v-115h-115v115h115zM745 495v-115h-115v115h115zM620 495v-115h-115v115h115zM245 495v-115h-115
v115h115zM120 495v-115h-115v115h115zM995 370v-115h-115v115h115zM870 370v-115h-115v115h115zM745 370v-115h-115v115h115zM620 370v-115h-115v115h115zM495 370v-115h-115v115h115zM245 370v-115h-115v115h115zM120 370v-115h-115v115h115zM870 245v-115h-115v115h115z
M745 245v-115h-115v115h115zM620 245v-115h-115v115h115zM495 245v-115h-115v115h115zM245 245v-115h-115v115h115zM120 245v-115h-115v115h115zM120 120v-115h-115v115h115zM245 120v-115h-115v115h115zM870 -5v-115h-115v115h115zM745 -5v-115h-115v115h115zM495 -5v-115
h-115v115h115zM620 -5v-115h-115v115h115zM245 -5v-115h-115v115h115zM370 -5v-115h-115v115h115z" />
    <glyph glyph-name="A" unicode="A" 
d="M745 870v-115h-115v115h115zM620 870v-115h-115v115h115zM370 870v-115h-115v115h115zM245 870v-115h-115v115h115zM495 870v-115h-115v115h115zM745 745v-115h-115v115h115zM245 745v-115h-115v115h115zM620 745v-115h-115v115h115zM120 745v-115h-115v115h115zM870 745
v-115h-115v115h115zM870 620v-115h-115v115h115zM745 620v-115h-115v115h115zM245 620v-115h-115v115h115zM120 620v-115h-115v115h115zM620 620v-115h-115v115h115zM870 495v-115h-115v115h115zM745 495v-115h-115v115h115zM245 495v-115h-115v115h115zM120 495v-115h-115
v115h115zM620 495v-115h-115v115h115zM870 370v-115h-115v115h115zM745 370v-115h-115v115h115zM620 370v-115h-115v115h115zM370 370v-115h-115v115h115zM245 370v-115h-115v115h115zM120 370v-115h-115v115h115zM495 370v-115h-115v115h115zM870 245v-115h-115v115h115z
M745 245v-115h-115v115h115zM245 245v-115h-115v115h115zM120 245v-115h-115v115h115zM620 245v-115h-115v115h115zM870 120v-115h-115v115h115zM745 120v-115h-115v115h115zM245 120v-115h-115v115h115zM120 120v-115h-115v115h115zM620 120v-115h-115v115h115z" />
    <glyph glyph-name="B" unicode="B" horiz-adv-x="1125" 
d="M870 870v-115h-115v115h115zM745 870v-115h-115v115h115zM495 870v-115h-115v115h115zM620 870v-115h-115v115h115zM120 870v-115h-115v115h115zM245 870v-115h-115v115h115zM370 870v-115h-115v115h115zM745 745v-115h-115v115h115zM370 745v-115h-115v115h115zM120 745
v-115h-115v115h115zM245 745v-115h-115v115h115zM995 745v-115h-115v115h115zM870 745v-115h-115v115h115zM870 620v-115h-115v115h115zM745 620v-115h-115v115h115zM370 620v-115h-115v115h115zM120 620v-115h-115v115h115zM245 620v-115h-115v115h115zM745 495v-115h-115
v115h115zM495 495v-115h-115v115h115zM620 495v-115h-115v115h115zM120 495v-115h-115v115h115zM245 495v-115h-115v115h115zM370 495v-115h-115v115h115zM745 370v-115h-115v115h115zM370 370v-115h-115v115h115zM120 370v-115h-115v115h115zM245 370v-115h-115v115h115z
M870 370v-115h-115v115h115zM995 370v-115h-115v115h115zM745 245v-115h-115v115h115zM370 245v-115h-115v115h115zM120 245v-115h-115v115h115zM245 245v-115h-115v115h115zM870 245v-115h-115v115h115zM995 245v-115h-115v115h115zM745 120v-115h-115v115h115zM495 120
v-115h-115v115h115zM620 120v-115h-115v115h115zM120 120v-115h-115v115h115zM245 120v-115h-115v115h115zM370 120v-115h-115v115h115zM870 120v-115h-115v115h115z" />
    <glyph glyph-name="C" unicode="C" 
d="M495 870v-115h-115v115h115zM370 870v-115h-115v115h115zM245 870v-115h-115v115h115zM870 870v-115h-115v115h115zM620 870v-115h-115v115h115zM745 870v-115h-115v115h115zM245 745v-115h-115v115h115zM120 745v-115h-115v115h115zM370 745v-115h-115v115h115zM870 745
v-115h-115v115h115zM745 745v-115h-115v115h115zM245 620v-115h-115v115h115zM120 620v-115h-115v115h115zM370 620v-115h-115v115h115zM245 495v-115h-115v115h115zM120 495v-115h-115v115h115zM370 495v-115h-115v115h115zM245 370v-115h-115v115h115zM120 370v-115h-115
v115h115zM370 370v-115h-115v115h115zM245 245v-115h-115v115h115zM120 245v-115h-115v115h115zM370 245v-115h-115v115h115zM870 245v-115h-115v115h115zM620 120v-115h-115v115h115zM495 120v-115h-115v115h115zM370 120v-115h-115v115h115zM245 120v-115h-115v115h115z
M745 120v-115h-115v115h115z" />
    <glyph glyph-name="D" unicode="D" horiz-adv-x="1125" 
d="M370 870v-115h-115v115h115zM245 870v-115h-115v115h115zM120 870v-115h-115v115h115zM620 870v-115h-115v115h115zM495 870v-115h-115v115h115zM745 870v-115h-115v115h115zM870 745v-115h-115v115h115zM745 745v-115h-115v115h115zM245 745v-115h-115v115h115zM120 745
v-115h-115v115h115zM370 745v-115h-115v115h115zM620 745v-115h-115v115h115zM995 620v-115h-115v115h115zM870 620v-115h-115v115h115zM245 620v-115h-115v115h115zM120 620v-115h-115v115h115zM370 620v-115h-115v115h115zM745 620v-115h-115v115h115zM995 495v-115h-115
v115h115zM870 495v-115h-115v115h115zM245 495v-115h-115v115h115zM120 495v-115h-115v115h115zM370 495v-115h-115v115h115zM745 495v-115h-115v115h115zM995 370v-115h-115v115h115zM870 370v-115h-115v115h115zM245 370v-115h-115v115h115zM120 370v-115h-115v115h115z
M370 370v-115h-115v115h115zM745 370v-115h-115v115h115zM870 245v-115h-115v115h115zM745 245v-115h-115v115h115zM245 245v-115h-115v115h115zM120 245v-115h-115v115h115zM370 245v-115h-115v115h115zM620 245v-115h-115v115h115zM745 120v-115h-115v115h115zM370 120
v-115h-115v115h115zM245 120v-115h-115v115h115zM120 120v-115h-115v115h115zM620 120v-115h-115v115h115zM495 120v-115h-115v115h115z" />
    <glyph glyph-name="E" unicode="E" 
d="M620 870v-115h-115v115h115zM495 870v-115h-115v115h115zM370 870v-115h-115v115h115zM245 870v-115h-115v115h115zM120 870v-115h-115v115h115zM870 870v-115h-115v115h115zM745 870v-115h-115v115h115zM245 745v-115h-115v115h115zM120 745v-115h-115v115h115zM370 745
v-115h-115v115h115zM870 745v-115h-115v115h115zM745 745v-115h-115v115h115zM245 620v-115h-115v115h115zM120 620v-115h-115v115h115zM370 620v-115h-115v115h115zM620 495v-115h-115v115h115zM495 495v-115h-115v115h115zM370 495v-115h-115v115h115zM245 495v-115h-115
v115h115zM120 495v-115h-115v115h115zM745 495v-115h-115v115h115zM245 370v-115h-115v115h115zM120 370v-115h-115v115h115zM370 370v-115h-115v115h115zM245 245v-115h-115v115h115zM120 245v-115h-115v115h115zM370 245v-115h-115v115h115zM870 245v-115h-115v115h115z
M745 245v-115h-115v115h115zM745 120v-115h-115v115h115zM620 120v-115h-115v115h115zM495 120v-115h-115v115h115zM370 120v-115h-115v115h115zM245 120v-115h-115v115h115zM120 120v-115h-115v115h115zM870 120v-115h-115v115h115z" />
    <glyph glyph-name="F" unicode="F" horiz-adv-x="875" 
d="M495 870v-115h-115v115h115zM370 870v-115h-115v115h115zM245 870v-115h-115v115h115zM120 870v-115h-115v115h115zM745 870v-115h-115v115h115zM620 870v-115h-115v115h115zM245 745v-115h-115v115h115zM120 745v-115h-115v115h115zM370 745v-115h-115v115h115zM620 745
v-115h-115v115h115zM745 745v-115h-115v115h115zM245 620v-115h-115v115h115zM120 620v-115h-115v115h115zM370 620v-115h-115v115h115zM370 495v-115h-115v115h115zM245 495v-115h-115v115h115zM120 495v-115h-115v115h115zM245 370v-115h-115v115h115zM120 370v-115h-115
v115h115zM370 370v-115h-115v115h115zM620 370v-115h-115v115h115zM495 370v-115h-115v115h115zM245 245v-115h-115v115h115zM120 245v-115h-115v115h115zM370 245v-115h-115v115h115zM245 120v-115h-115v115h115zM120 120v-115h-115v115h115zM370 120v-115h-115v115h115z
" />
    <glyph glyph-name="G" unicode="G" 
d="M495 870v-115h-115v115h115zM370 870v-115h-115v115h115zM245 870v-115h-115v115h115zM745 870v-115h-115v115h115zM870 870v-115h-115v115h115zM620 870v-115h-115v115h115zM370 745v-115h-115v115h115zM245 745v-115h-115v115h115zM120 745v-115h-115v115h115zM745 745
v-115h-115v115h115zM870 745v-115h-115v115h115zM370 620v-115h-115v115h115zM245 620v-115h-115v115h115zM120 620v-115h-115v115h115zM370 495v-115h-115v115h115zM245 495v-115h-115v115h115zM120 495v-115h-115v115h115zM870 370v-115h-115v115h115zM745 370v-115h-115
v115h115zM620 370v-115h-115v115h115zM370 370v-115h-115v115h115zM245 370v-115h-115v115h115zM120 370v-115h-115v115h115zM870 245v-115h-115v115h115zM370 245v-115h-115v115h115zM245 245v-115h-115v115h115zM120 245v-115h-115v115h115zM745 245v-115h-115v115h115z
M745 120v-115h-115v115h115zM495 120v-115h-115v115h115zM370 120v-115h-115v115h115zM245 120v-115h-115v115h115zM620 120v-115h-115v115h115z" />
    <glyph glyph-name="H" unicode="H" horiz-adv-x="1125" 
d="M745 870v-115h-115v115h115zM245 870v-115h-115v115h115zM120 870v-115h-115v115h115zM370 870v-115h-115v115h115zM995 870v-115h-115v115h115zM870 870v-115h-115v115h115zM870 745v-115h-115v115h115zM745 745v-115h-115v115h115zM245 745v-115h-115v115h115zM120 745
v-115h-115v115h115zM370 745v-115h-115v115h115zM995 745v-115h-115v115h115zM870 620v-115h-115v115h115zM745 620v-115h-115v115h115zM245 620v-115h-115v115h115zM120 620v-115h-115v115h115zM370 620v-115h-115v115h115zM995 620v-115h-115v115h115zM870 495v-115h-115
v115h115zM745 495v-115h-115v115h115zM495 495v-115h-115v115h115zM370 495v-115h-115v115h115zM245 495v-115h-115v115h115zM120 495v-115h-115v115h115zM995 495v-115h-115v115h115zM620 495v-115h-115v115h115zM870 370v-115h-115v115h115zM745 370v-115h-115v115h115z
M245 370v-115h-115v115h115zM120 370v-115h-115v115h115zM370 370v-115h-115v115h115zM995 370v-115h-115v115h115zM870 245v-115h-115v115h115zM745 245v-115h-115v115h115zM245 245v-115h-115v115h115zM120 245v-115h-115v115h115zM370 245v-115h-115v115h115zM995 245
v-115h-115v115h115zM870 120v-115h-115v115h115zM745 120v-115h-115v115h115zM245 120v-115h-115v115h115zM120 120v-115h-115v115h115zM370 120v-115h-115v115h115zM995 120v-115h-115v115h115z" />
    <glyph glyph-name="I" unicode="I" horiz-adv-x="750" 
d="M370 870v-115h-115v115h115zM245 870v-115h-115v115h115zM120 870v-115h-115v115h115zM620 870v-115h-115v115h115zM495 870v-115h-115v115h115zM370 745v-115h-115v115h115zM245 745v-115h-115v115h115zM495 745v-115h-115v115h115zM370 620v-115h-115v115h115zM245 620
v-115h-115v115h115zM495 620v-115h-115v115h115zM370 495v-115h-115v115h115zM245 495v-115h-115v115h115zM495 495v-115h-115v115h115zM370 370v-115h-115v115h115zM245 370v-115h-115v115h115zM495 370v-115h-115v115h115zM370 245v-115h-115v115h115zM245 245v-115h-115
v115h115zM495 245v-115h-115v115h115zM495 120v-115h-115v115h115zM370 120v-115h-115v115h115zM245 120v-115h-115v115h115zM120 120v-115h-115v115h115zM620 120v-115h-115v115h115z" />
    <glyph glyph-name="J" unicode="J" 
d="M745 870v-115h-115v115h115zM620 870v-115h-115v115h115zM370 870v-115h-115v115h115zM495 870v-115h-115v115h115zM870 870v-115h-115v115h115zM870 745v-115h-115v115h115zM745 745v-115h-115v115h115zM620 745v-115h-115v115h115zM870 620v-115h-115v115h115zM745 620
v-115h-115v115h115zM620 620v-115h-115v115h115zM870 495v-115h-115v115h115zM745 495v-115h-115v115h115zM620 495v-115h-115v115h115zM870 370v-115h-115v115h115zM745 370v-115h-115v115h115zM120 370v-115h-115v115h115zM620 370v-115h-115v115h115zM245 370v-115h-115
v115h115zM870 245v-115h-115v115h115zM745 245v-115h-115v115h115zM120 245v-115h-115v115h115zM620 245v-115h-115v115h115zM245 245v-115h-115v115h115zM745 120v-115h-115v115h115zM620 120v-115h-115v115h115zM370 120v-115h-115v115h115zM245 120v-115h-115v115h115z
M495 120v-115h-115v115h115z" />
    <glyph glyph-name="K" unicode="K" horiz-adv-x="1125" 
d="M745 870v-115h-115v115h115zM245 870v-115h-115v115h115zM120 870v-115h-115v115h115zM370 870v-115h-115v115h115zM995 870v-115h-115v115h115zM870 870v-115h-115v115h115zM870 745v-115h-115v115h115zM245 745v-115h-115v115h115zM120 745v-115h-115v115h115zM370 745
v-115h-115v115h115zM995 745v-115h-115v115h115zM745 745v-115h-115v115h115zM245 620v-115h-115v115h115zM120 620v-115h-115v115h115zM370 620v-115h-115v115h115zM870 620v-115h-115v115h115zM745 620v-115h-115v115h115zM620 495v-115h-115v115h115zM370 495v-115h-115
v115h115zM245 495v-115h-115v115h115zM120 495v-115h-115v115h115zM745 495v-115h-115v115h115zM495 495v-115h-115v115h115zM745 370v-115h-115v115h115zM620 370v-115h-115v115h115zM245 370v-115h-115v115h115zM120 370v-115h-115v115h115zM370 370v-115h-115v115h115z
M870 370v-115h-115v115h115zM870 245v-115h-115v115h115zM745 245v-115h-115v115h115zM245 245v-115h-115v115h115zM120 245v-115h-115v115h115zM370 245v-115h-115v115h115zM995 245v-115h-115v115h115zM870 120v-115h-115v115h115zM745 120v-115h-115v115h115zM245 120
v-115h-115v115h115zM120 120v-115h-115v115h115zM370 120v-115h-115v115h115zM995 120v-115h-115v115h115z" />
    <glyph glyph-name="L" unicode="L" horiz-adv-x="875" 
d="M120 870v-115h-115v115h115zM370 870v-115h-115v115h115zM245 870v-115h-115v115h115zM245 745v-115h-115v115h115zM120 745v-115h-115v115h115zM370 745v-115h-115v115h115zM245 620v-115h-115v115h115zM120 620v-115h-115v115h115zM370 620v-115h-115v115h115zM245 495
v-115h-115v115h115zM120 495v-115h-115v115h115zM370 495v-115h-115v115h115zM245 370v-115h-115v115h115zM120 370v-115h-115v115h115zM370 370v-115h-115v115h115zM245 245v-115h-115v115h115zM120 245v-115h-115v115h115zM370 245v-115h-115v115h115zM745 245v-115h-115
v115h115zM620 245v-115h-115v115h115zM620 120v-115h-115v115h115zM495 120v-115h-115v115h115zM370 120v-115h-115v115h115zM245 120v-115h-115v115h115zM120 120v-115h-115v115h115zM745 120v-115h-115v115h115z" />
    <glyph glyph-name="M" unicode="M" horiz-adv-x="1250" 
d="M245 870v-115h-115v115h115zM120 870v-115h-115v115h115zM1120 870v-115h-115v115h115zM995 870v-115h-115v115h115zM370 870v-115h-115v115h115zM870 870v-115h-115v115h115zM870 745v-115h-115v115h115zM370 745v-115h-115v115h115zM245 745v-115h-115v115h115z
M120 745v-115h-115v115h115zM745 745v-115h-115v115h115zM1120 745v-115h-115v115h115zM995 745v-115h-115v115h115zM495 745v-115h-115v115h115zM870 620v-115h-115v115h115zM745 620v-115h-115v115h115zM495 620v-115h-115v115h115zM370 620v-115h-115v115h115zM245 620
v-115h-115v115h115zM120 620v-115h-115v115h115zM1120 620v-115h-115v115h115zM995 620v-115h-115v115h115zM620 620v-115h-115v115h115zM870 495v-115h-115v115h115zM620 495v-115h-115v115h115zM495 495v-115h-115v115h115zM370 495v-115h-115v115h115zM120 495v-115h-115
v115h115zM745 495v-115h-115v115h115zM245 495v-115h-115v115h115zM1120 495v-115h-115v115h115zM995 495v-115h-115v115h115zM870 370v-115h-115v115h115zM495 370v-115h-115v115h115zM120 370v-115h-115v115h115zM1120 370v-115h-115v115h115zM995 370v-115h-115v115h115z
M245 370v-115h-115v115h115zM620 370v-115h-115v115h115zM870 245v-115h-115v115h115zM120 245v-115h-115v115h115zM1120 245v-115h-115v115h115zM995 245v-115h-115v115h115zM245 245v-115h-115v115h115zM870 120v-115h-115v115h115zM120 120v-115h-115v115h115zM1120 120
v-115h-115v115h115zM995 120v-115h-115v115h115zM245 120v-115h-115v115h115z" />
    <glyph glyph-name="N" unicode="N" horiz-adv-x="1125" 
d="M370 870v-115h-115v115h115zM245 870v-115h-115v115h115zM120 870v-115h-115v115h115zM995 870v-115h-115v115h115zM870 870v-115h-115v115h115zM870 745v-115h-115v115h115zM495 745v-115h-115v115h115zM370 745v-115h-115v115h115zM245 745v-115h-115v115h115zM120 745
v-115h-115v115h115zM995 745v-115h-115v115h115zM870 620v-115h-115v115h115zM620 620v-115h-115v115h115zM495 620v-115h-115v115h115zM370 620v-115h-115v115h115zM245 620v-115h-115v115h115zM120 620v-115h-115v115h115zM995 620v-115h-115v115h115zM870 495v-115h-115
v115h115zM745 495v-115h-115v115h115zM620 495v-115h-115v115h115zM495 495v-115h-115v115h115zM245 495v-115h-115v115h115zM120 495v-115h-115v115h115zM370 495v-115h-115v115h115zM995 495v-115h-115v115h115zM870 370v-115h-115v115h115zM745 370v-115h-115v115h115z
M620 370v-115h-115v115h115zM245 370v-115h-115v115h115zM120 370v-115h-115v115h115zM495 370v-115h-115v115h115zM995 370v-115h-115v115h115zM870 245v-115h-115v115h115zM745 245v-115h-115v115h115zM245 245v-115h-115v115h115zM120 245v-115h-115v115h115zM620 245
v-115h-115v115h115zM995 245v-115h-115v115h115zM870 120v-115h-115v115h115zM245 120v-115h-115v115h115zM120 120v-115h-115v115h115zM745 120v-115h-115v115h115zM995 120v-115h-115v115h115z" />
    <glyph glyph-name="O" unicode="O" horiz-adv-x="1125" 
d="M495 870v-115h-115v115h115zM370 870v-115h-115v115h115zM245 870v-115h-115v115h115zM870 870v-115h-115v115h115zM620 870v-115h-115v115h115zM745 870v-115h-115v115h115zM870 745v-115h-115v115h115zM745 745v-115h-115v115h115zM245 745v-115h-115v115h115zM120 745
v-115h-115v115h115zM995 745v-115h-115v115h115zM370 745v-115h-115v115h115zM870 620v-115h-115v115h115zM745 620v-115h-115v115h115zM245 620v-115h-115v115h115zM120 620v-115h-115v115h115zM995 620v-115h-115v115h115zM370 620v-115h-115v115h115zM870 495v-115h-115
v115h115zM745 495v-115h-115v115h115zM245 495v-115h-115v115h115zM120 495v-115h-115v115h115zM995 495v-115h-115v115h115zM370 495v-115h-115v115h115zM870 370v-115h-115v115h115zM745 370v-115h-115v115h115zM245 370v-115h-115v115h115zM120 370v-115h-115v115h115z
M995 370v-115h-115v115h115zM370 370v-115h-115v115h115zM870 245v-115h-115v115h115zM745 245v-115h-115v115h115zM245 245v-115h-115v115h115zM120 245v-115h-115v115h115zM995 245v-115h-115v115h115zM370 245v-115h-115v115h115zM745 120v-115h-115v115h115zM495 120
v-115h-115v115h115zM370 120v-115h-115v115h115zM245 120v-115h-115v115h115zM870 120v-115h-115v115h115zM620 120v-115h-115v115h115z" />
    <glyph glyph-name="P" unicode="P" horiz-adv-x="1125" 
d="M745 870v-115h-115v115h115zM495 870v-115h-115v115h115zM370 870v-115h-115v115h115zM245 870v-115h-115v115h115zM120 870v-115h-115v115h115zM620 870v-115h-115v115h115zM870 870v-115h-115v115h115zM995 745v-115h-115v115h115zM870 745v-115h-115v115h115zM370 745
v-115h-115v115h115zM245 745v-115h-115v115h115zM745 745v-115h-115v115h115zM120 745v-115h-115v115h115zM995 620v-115h-115v115h115zM870 620v-115h-115v115h115zM370 620v-115h-115v115h115zM245 620v-115h-115v115h115zM745 620v-115h-115v115h115zM120 620v-115h-115
v115h115zM870 495v-115h-115v115h115zM745 495v-115h-115v115h115zM370 495v-115h-115v115h115zM245 495v-115h-115v115h115zM120 495v-115h-115v115h115zM995 495v-115h-115v115h115zM495 370v-115h-115v115h115zM370 370v-115h-115v115h115zM245 370v-115h-115v115h115z
M120 370v-115h-115v115h115zM620 370v-115h-115v115h115zM745 370v-115h-115v115h115zM870 370v-115h-115v115h115zM370 245v-115h-115v115h115zM245 245v-115h-115v115h115zM120 245v-115h-115v115h115zM370 120v-115h-115v115h115zM245 120v-115h-115v115h115zM120 120
v-115h-115v115h115z" />
    <glyph glyph-name="Q" unicode="Q" horiz-adv-x="1125" 
d="M745 870v-115h-115v115h115zM495 870v-115h-115v115h115zM370 870v-115h-115v115h115zM245 870v-115h-115v115h115zM620 870v-115h-115v115h115zM870 870v-115h-115v115h115zM995 745v-115h-115v115h115zM870 745v-115h-115v115h115zM370 745v-115h-115v115h115zM245 745
v-115h-115v115h115zM120 745v-115h-115v115h115zM745 745v-115h-115v115h115zM995 620v-115h-115v115h115zM870 620v-115h-115v115h115zM370 620v-115h-115v115h115zM245 620v-115h-115v115h115zM120 620v-115h-115v115h115zM745 620v-115h-115v115h115zM995 495v-115h-115
v115h115zM870 495v-115h-115v115h115zM370 495v-115h-115v115h115zM245 495v-115h-115v115h115zM120 495v-115h-115v115h115zM745 495v-115h-115v115h115zM995 370v-115h-115v115h115zM870 370v-115h-115v115h115zM370 370v-115h-115v115h115zM245 370v-115h-115v115h115z
M120 370v-115h-115v115h115zM745 370v-115h-115v115h115zM870 245v-115h-115v115h115zM370 245v-115h-115v115h115zM245 245v-115h-115v115h115zM120 245v-115h-115v115h115zM745 245v-115h-115v115h115zM495 120v-115h-115v115h115zM370 120v-115h-115v115h115zM245 120
v-115h-115v115h115zM495 -5v-115h-115v115h115zM870 -5v-115h-115v115h115zM745 -5v-115h-115v115h115zM620 -5v-115h-115v115h115zM995 -5v-115h-115v115h115zM870 -130v-115h-115v115h115zM620 -130v-115h-115v115h115zM745 -130v-115h-115v115h115zM995 -130v-115h-115
v115h115z" />
    <glyph glyph-name="R" unicode="R" horiz-adv-x="1125" 
d="M745 870v-115h-115v115h115zM495 870v-115h-115v115h115zM370 870v-115h-115v115h115zM245 870v-115h-115v115h115zM120 870v-115h-115v115h115zM620 870v-115h-115v115h115zM870 870v-115h-115v115h115zM995 745v-115h-115v115h115zM870 745v-115h-115v115h115zM370 745
v-115h-115v115h115zM245 745v-115h-115v115h115zM745 745v-115h-115v115h115zM120 745v-115h-115v115h115zM995 620v-115h-115v115h115zM870 620v-115h-115v115h115zM370 620v-115h-115v115h115zM245 620v-115h-115v115h115zM745 620v-115h-115v115h115zM120 620v-115h-115
v115h115zM870 495v-115h-115v115h115zM745 495v-115h-115v115h115zM370 495v-115h-115v115h115zM245 495v-115h-115v115h115zM120 495v-115h-115v115h115zM495 370v-115h-115v115h115zM370 370v-115h-115v115h115zM245 370v-115h-115v115h115zM745 370v-115h-115v115h115z
M120 370v-115h-115v115h115zM620 370v-115h-115v115h115zM995 245v-115h-115v115h115zM870 245v-115h-115v115h115zM370 245v-115h-115v115h115zM245 245v-115h-115v115h115zM745 245v-115h-115v115h115zM120 245v-115h-115v115h115zM620 245v-115h-115v115h115zM995 120
v-115h-115v115h115zM870 120v-115h-115v115h115zM370 120v-115h-115v115h115zM245 120v-115h-115v115h115zM745 120v-115h-115v115h115zM120 120v-115h-115v115h115z" />
    <glyph glyph-name="S" unicode="S" 
d="M620 870v-115h-115v115h115zM495 870v-115h-115v115h115zM370 870v-115h-115v115h115zM245 870v-115h-115v115h115zM870 870v-115h-115v115h115zM745 870v-115h-115v115h115zM245 745v-115h-115v115h115zM120 745v-115h-115v115h115zM370 745v-115h-115v115h115zM745 745
v-115h-115v115h115zM870 745v-115h-115v115h115zM370 620v-115h-115v115h115zM245 620v-115h-115v115h115zM120 620v-115h-115v115h115zM495 620v-115h-115v115h115zM620 495v-115h-115v115h115zM495 495v-115h-115v115h115zM370 495v-115h-115v115h115zM245 495v-115h-115
v115h115zM745 495v-115h-115v115h115zM745 370v-115h-115v115h115zM620 370v-115h-115v115h115zM495 370v-115h-115v115h115zM870 370v-115h-115v115h115zM745 245v-115h-115v115h115zM620 245v-115h-115v115h115zM120 245v-115h-115v115h115zM870 245v-115h-115v115h115z
M245 245v-115h-115v115h115zM620 120v-115h-115v115h115zM495 120v-115h-115v115h115zM370 120v-115h-115v115h115zM245 120v-115h-115v115h115zM120 120v-115h-115v115h115zM745 120v-115h-115v115h115z" />
    <glyph glyph-name="T" unicode="T" 
d="M745 870v-115h-115v115h115zM620 870v-115h-115v115h115zM495 870v-115h-115v115h115zM370 870v-115h-115v115h115zM245 870v-115h-115v115h115zM120 870v-115h-115v115h115zM870 870v-115h-115v115h115zM620 745v-115h-115v115h115zM495 745v-115h-115v115h115zM370 745
v-115h-115v115h115zM120 745v-115h-115v115h115zM245 745v-115h-115v115h115zM745 745v-115h-115v115h115zM870 745v-115h-115v115h115zM620 620v-115h-115v115h115zM495 620v-115h-115v115h115zM370 620v-115h-115v115h115zM620 495v-115h-115v115h115zM495 495v-115h-115
v115h115zM370 495v-115h-115v115h115zM620 370v-115h-115v115h115zM495 370v-115h-115v115h115zM370 370v-115h-115v115h115zM620 245v-115h-115v115h115zM495 245v-115h-115v115h115zM370 245v-115h-115v115h115zM620 120v-115h-115v115h115zM495 120v-115h-115v115h115z
M370 120v-115h-115v115h115z" />
    <glyph glyph-name="U" unicode="U" 
d="M245 870v-115h-115v115h115zM120 870v-115h-115v115h115zM370 870v-115h-115v115h115zM745 870v-115h-115v115h115zM870 870v-115h-115v115h115zM870 745v-115h-115v115h115zM245 745v-115h-115v115h115zM120 745v-115h-115v115h115zM370 745v-115h-115v115h115zM745 745
v-115h-115v115h115zM870 620v-115h-115v115h115zM245 620v-115h-115v115h115zM120 620v-115h-115v115h115zM370 620v-115h-115v115h115zM745 620v-115h-115v115h115zM870 495v-115h-115v115h115zM245 495v-115h-115v115h115zM120 495v-115h-115v115h115zM370 495v-115h-115
v115h115zM745 495v-115h-115v115h115zM870 370v-115h-115v115h115zM245 370v-115h-115v115h115zM120 370v-115h-115v115h115zM370 370v-115h-115v115h115zM745 370v-115h-115v115h115zM870 245v-115h-115v115h115zM245 245v-115h-115v115h115zM120 245v-115h-115v115h115z
M370 245v-115h-115v115h115zM745 245v-115h-115v115h115zM745 120v-115h-115v115h115zM620 120v-115h-115v115h115zM370 120v-115h-115v115h115zM245 120v-115h-115v115h115zM495 120v-115h-115v115h115z" />
    <glyph glyph-name="V" unicode="V" 
d="M370 870v-115h-115v115h115zM245 870v-115h-115v115h115zM120 870v-115h-115v115h115zM745 870v-115h-115v115h115zM870 870v-115h-115v115h115zM870 745v-115h-115v115h115zM370 745v-115h-115v115h115zM245 745v-115h-115v115h115zM120 745v-115h-115v115h115zM745 745
v-115h-115v115h115zM870 620v-115h-115v115h115zM370 620v-115h-115v115h115zM245 620v-115h-115v115h115zM120 620v-115h-115v115h115zM745 620v-115h-115v115h115zM870 495v-115h-115v115h115zM370 495v-115h-115v115h115zM245 495v-115h-115v115h115zM120 495v-115h-115
v115h115zM745 495v-115h-115v115h115zM870 370v-115h-115v115h115zM370 370v-115h-115v115h115zM245 370v-115h-115v115h115zM120 370v-115h-115v115h115zM745 370v-115h-115v115h115zM745 245v-115h-115v115h115zM495 245v-115h-115v115h115zM370 245v-115h-115v115h115z
M245 245v-115h-115v115h115zM495 120v-115h-115v115h115zM370 120v-115h-115v115h115zM620 120v-115h-115v115h115z" />
    <glyph glyph-name="W" unicode="W" horiz-adv-x="1250" 
d="M370 870v-115h-115v115h115zM245 870v-115h-115v115h115zM120 870v-115h-115v115h115zM995 870v-115h-115v115h115zM1120 870v-115h-115v115h115zM1120 745v-115h-115v115h115zM370 745v-115h-115v115h115zM245 745v-115h-115v115h115zM120 745v-115h-115v115h115z
M995 745v-115h-115v115h115zM1120 620v-115h-115v115h115zM370 620v-115h-115v115h115zM245 620v-115h-115v115h115zM120 620v-115h-115v115h115zM995 620v-115h-115v115h115zM1120 495v-115h-115v115h115zM745 495v-115h-115v115h115zM370 495v-115h-115v115h115zM245 495
v-115h-115v115h115zM120 495v-115h-115v115h115zM995 495v-115h-115v115h115zM620 495v-115h-115v115h115zM1120 370v-115h-115v115h115zM870 370v-115h-115v115h115zM745 370v-115h-115v115h115zM620 370v-115h-115v115h115zM370 370v-115h-115v115h115zM245 370v-115h-115
v115h115zM120 370v-115h-115v115h115zM995 370v-115h-115v115h115zM495 370v-115h-115v115h115zM1120 245v-115h-115v115h115zM995 245v-115h-115v115h115zM870 245v-115h-115v115h115zM495 245v-115h-115v115h115zM370 245v-115h-115v115h115zM245 245v-115h-115v115h115z
M120 245v-115h-115v115h115zM745 245v-115h-115v115h115zM1120 120v-115h-115v115h115zM995 120v-115h-115v115h115zM370 120v-115h-115v115h115zM245 120v-115h-115v115h115zM120 120v-115h-115v115h115zM870 120v-115h-115v115h115z" />
    <glyph glyph-name="X" unicode="X" 
d="M245 870v-115h-115v115h115zM120 870v-115h-115v115h115zM370 870v-115h-115v115h115zM745 870v-115h-115v115h115zM870 870v-115h-115v115h115zM870 745v-115h-115v115h115zM245 745v-115h-115v115h115zM120 745v-115h-115v115h115zM370 745v-115h-115v115h115zM745 745
v-115h-115v115h115zM495 745v-115h-115v115h115zM745 620v-115h-115v115h115zM370 620v-115h-115v115h115zM245 620v-115h-115v115h115zM620 620v-115h-115v115h115zM495 620v-115h-115v115h115zM620 495v-115h-115v115h115zM370 495v-115h-115v115h115zM495 495v-115h-115
v115h115zM745 370v-115h-115v115h115zM620 370v-115h-115v115h115zM245 370v-115h-115v115h115zM370 370v-115h-115v115h115zM495 370v-115h-115v115h115zM870 245v-115h-115v115h115zM745 245v-115h-115v115h115zM120 245v-115h-115v115h115zM620 245v-115h-115v115h115z
M245 245v-115h-115v115h115zM495 245v-115h-115v115h115zM870 120v-115h-115v115h115zM745 120v-115h-115v115h115zM120 120v-115h-115v115h115zM620 120v-115h-115v115h115zM245 120v-115h-115v115h115z" />
    <glyph glyph-name="Y" unicode="Y" 
d="M370 870v-115h-115v115h115zM245 870v-115h-115v115h115zM120 870v-115h-115v115h115zM745 870v-115h-115v115h115zM870 870v-115h-115v115h115zM870 745v-115h-115v115h115zM370 745v-115h-115v115h115zM245 745v-115h-115v115h115zM120 745v-115h-115v115h115zM745 745
v-115h-115v115h115zM745 620v-115h-115v115h115zM370 620v-115h-115v115h115zM245 620v-115h-115v115h115zM870 620v-115h-115v115h115zM120 620v-115h-115v115h115zM495 495v-115h-115v115h115zM370 495v-115h-115v115h115zM745 495v-115h-115v115h115zM245 495v-115h-115
v115h115zM620 370v-115h-115v115h115zM495 370v-115h-115v115h115zM370 370v-115h-115v115h115zM620 245v-115h-115v115h115zM495 245v-115h-115v115h115zM370 245v-115h-115v115h115zM620 120v-115h-115v115h115zM495 120v-115h-115v115h115zM370 120v-115h-115v115h115z
" />
    <glyph glyph-name="Z" unicode="Z" 
d="M495 870v-115h-115v115h115zM370 870v-115h-115v115h115zM245 870v-115h-115v115h115zM120 870v-115h-115v115h115zM745 870v-115h-115v115h115zM870 870v-115h-115v115h115zM620 870v-115h-115v115h115zM620 745v-115h-115v115h115zM495 745v-115h-115v115h115zM370 745
v-115h-115v115h115zM120 745v-115h-115v115h115zM245 745v-115h-115v115h115zM745 745v-115h-115v115h115zM495 620v-115h-115v115h115zM620 620v-115h-115v115h115zM370 495v-115h-115v115h115zM495 495v-115h-115v115h115zM245 370v-115h-115v115h115zM370 370v-115h-115
v115h115zM745 245v-115h-115v115h115zM620 245v-115h-115v115h115zM495 245v-115h-115v115h115zM370 245v-115h-115v115h115zM245 245v-115h-115v115h115zM120 245v-115h-115v115h115zM870 245v-115h-115v115h115zM745 120v-115h-115v115h115zM620 120v-115h-115v115h115z
M495 120v-115h-115v115h115zM370 120v-115h-115v115h115zM245 120v-115h-115v115h115zM120 120v-115h-115v115h115zM870 120v-115h-115v115h115z" />
    <glyph glyph-name="bracketleft" unicode="[" horiz-adv-x="875" 
d="M495 995v-115h-115v115h115zM370 995v-115h-115v115h115zM245 995v-115h-115v115h115zM620 995v-115h-115v115h115zM370 870v-115h-115v115h115zM245 870v-115h-115v115h115zM370 745v-115h-115v115h115zM245 745v-115h-115v115h115zM370 620v-115h-115v115h115zM245 620
v-115h-115v115h115zM370 495v-115h-115v115h115zM245 495v-115h-115v115h115zM370 370v-115h-115v115h115zM245 370v-115h-115v115h115zM370 245v-115h-115v115h115zM245 245v-115h-115v115h115zM370 120v-115h-115v115h115zM245 120v-115h-115v115h115zM370 -5v-115h-115
v115h115zM245 -5v-115h-115v115h115zM620 -130v-115h-115v115h115zM495 -130v-115h-115v115h115zM370 -130v-115h-115v115h115zM245 -130v-115h-115v115h115z" />
    <glyph glyph-name="backslash" unicode="\" horiz-adv-x="875" 
d="M120 870v-115h-115v115h115zM245 870v-115h-115v115h115zM245 745v-115h-115v115h115zM120 745v-115h-115v115h115zM245 620v-115h-115v115h115zM370 620v-115h-115v115h115zM495 495v-115h-115v115h115zM370 495v-115h-115v115h115zM620 370v-115h-115v115h115zM495 370
v-115h-115v115h115zM745 245v-115h-115v115h115zM620 245v-115h-115v115h115zM745 120v-115h-115v115h115zM620 120v-115h-115v115h115z" />
    <glyph glyph-name="bracketright" unicode="]" horiz-adv-x="875" 
d="M495 995v-115h-115v115h115zM370 995v-115h-115v115h115zM245 995v-115h-115v115h115zM620 995v-115h-115v115h115zM620 870v-115h-115v115h115zM495 870v-115h-115v115h115zM620 745v-115h-115v115h115zM495 745v-115h-115v115h115zM620 620v-115h-115v115h115zM495 620
v-115h-115v115h115zM620 495v-115h-115v115h115zM495 495v-115h-115v115h115zM620 370v-115h-115v115h115zM495 370v-115h-115v115h115zM620 245v-115h-115v115h115zM495 245v-115h-115v115h115zM620 120v-115h-115v115h115zM495 120v-115h-115v115h115zM620 -5v-115h-115
v115h115zM495 -5v-115h-115v115h115zM620 -130v-115h-115v115h115zM495 -130v-115h-115v115h115zM370 -130v-115h-115v115h115zM245 -130v-115h-115v115h115z" />
    <glyph glyph-name="asciicircum" unicode="^" horiz-adv-x="875" 
d="M370 995v-115h-115v115h115zM495 995v-115h-115v115h115zM620 870v-115h-115v115h115zM495 870v-115h-115v115h115zM245 870v-115h-115v115h115zM370 870v-115h-115v115h115zM745 745v-115h-115v115h115zM620 745v-115h-115v115h115zM120 745v-115h-115v115h115zM495 745
v-115h-115v115h115z" />
    <glyph glyph-name="underscore" unicode="_" horiz-adv-x="750" 
d="M495 120v-115h-115v115h115zM370 120v-115h-115v115h115zM245 120v-115h-115v115h115zM120 120v-115h-115v115h115zM620 120v-115h-115v115h115z" />
    <glyph glyph-name="grave" unicode="`" horiz-adv-x="625" 
d="M370 1120v-115h-115v115h115zM245 1120v-115h-115v115h115zM245 995v-115h-115v115h115zM370 995v-115h-115v115h115zM495 870v-115h-115v115h115zM370 870v-115h-115v115h115z" />
    <glyph glyph-name="a" unicode="a" 
d="M745 620v-115h-115v115h115zM620 620v-115h-115v115h115zM495 620v-115h-115v115h115zM370 620v-115h-115v115h115zM245 620v-115h-115v115h115zM745 495v-115h-115v115h115zM620 495v-115h-115v115h115zM870 495v-115h-115v115h115zM870 370v-115h-115v115h115zM745 370
v-115h-115v115h115zM620 370v-115h-115v115h115zM495 370v-115h-115v115h115zM370 370v-115h-115v115h115zM245 370v-115h-115v115h115zM870 245v-115h-115v115h115zM745 245v-115h-115v115h115zM245 245v-115h-115v115h115zM620 245v-115h-115v115h115zM120 245v-115h-115
v115h115zM370 245v-115h-115v115h115zM870 120v-115h-115v115h115zM745 120v-115h-115v115h115zM620 120v-115h-115v115h115zM495 120v-115h-115v115h115zM370 120v-115h-115v115h115zM245 120v-115h-115v115h115z" />
    <glyph glyph-name="b" unicode="b" 
d="M120 995v-115h-115v115h115zM370 995v-115h-115v115h115zM245 995v-115h-115v115h115zM245 870v-115h-115v115h115zM120 870v-115h-115v115h115zM370 870v-115h-115v115h115zM245 745v-115h-115v115h115zM120 745v-115h-115v115h115zM370 745v-115h-115v115h115zM745 620
v-115h-115v115h115zM495 620v-115h-115v115h115zM370 620v-115h-115v115h115zM245 620v-115h-115v115h115zM120 620v-115h-115v115h115zM620 620v-115h-115v115h115zM870 495v-115h-115v115h115zM745 495v-115h-115v115h115zM245 495v-115h-115v115h115zM120 495v-115h-115
v115h115zM370 495v-115h-115v115h115zM620 495v-115h-115v115h115zM870 370v-115h-115v115h115zM745 370v-115h-115v115h115zM245 370v-115h-115v115h115zM120 370v-115h-115v115h115zM370 370v-115h-115v115h115zM620 370v-115h-115v115h115zM870 245v-115h-115v115h115z
M745 245v-115h-115v115h115zM245 245v-115h-115v115h115zM120 245v-115h-115v115h115zM370 245v-115h-115v115h115zM620 245v-115h-115v115h115zM745 120v-115h-115v115h115zM495 120v-115h-115v115h115zM370 120v-115h-115v115h115zM245 120v-115h-115v115h115zM120 120
v-115h-115v115h115zM620 120v-115h-115v115h115z" />
    <glyph glyph-name="c" unicode="c" horiz-adv-x="875" 
d="M495 620v-115h-115v115h115zM370 620v-115h-115v115h115zM245 620v-115h-115v115h115zM745 620v-115h-115v115h115zM620 620v-115h-115v115h115zM245 495v-115h-115v115h115zM120 495v-115h-115v115h115zM370 495v-115h-115v115h115zM245 370v-115h-115v115h115zM120 370
v-115h-115v115h115zM370 370v-115h-115v115h115zM245 245v-115h-115v115h115zM120 245v-115h-115v115h115zM370 245v-115h-115v115h115zM620 120v-115h-115v115h115zM495 120v-115h-115v115h115zM370 120v-115h-115v115h115zM245 120v-115h-115v115h115zM745 120v-115h-115
v115h115z" />
    <glyph glyph-name="d" unicode="d" 
d="M620 995v-115h-115v115h115zM870 995v-115h-115v115h115zM745 995v-115h-115v115h115zM745 870v-115h-115v115h115zM620 870v-115h-115v115h115zM870 870v-115h-115v115h115zM745 745v-115h-115v115h115zM620 745v-115h-115v115h115zM870 745v-115h-115v115h115zM745 620
v-115h-115v115h115zM620 620v-115h-115v115h115zM370 620v-115h-115v115h115zM245 620v-115h-115v115h115zM870 620v-115h-115v115h115zM495 620v-115h-115v115h115zM745 495v-115h-115v115h115zM620 495v-115h-115v115h115zM120 495v-115h-115v115h115zM245 495v-115h-115
v115h115zM870 495v-115h-115v115h115zM370 495v-115h-115v115h115zM745 370v-115h-115v115h115zM620 370v-115h-115v115h115zM120 370v-115h-115v115h115zM245 370v-115h-115v115h115zM870 370v-115h-115v115h115zM370 370v-115h-115v115h115zM745 245v-115h-115v115h115z
M620 245v-115h-115v115h115zM120 245v-115h-115v115h115zM245 245v-115h-115v115h115zM870 245v-115h-115v115h115zM370 245v-115h-115v115h115zM745 120v-115h-115v115h115zM620 120v-115h-115v115h115zM370 120v-115h-115v115h115zM245 120v-115h-115v115h115zM870 120
v-115h-115v115h115zM495 120v-115h-115v115h115z" />
    <glyph glyph-name="e" unicode="e" 
d="M495 620v-115h-115v115h115zM370 620v-115h-115v115h115zM245 620v-115h-115v115h115zM620 620v-115h-115v115h115zM745 620v-115h-115v115h115zM870 495v-115h-115v115h115zM745 495v-115h-115v115h115zM245 495v-115h-115v115h115zM120 495v-115h-115v115h115zM370 495
v-115h-115v115h115zM620 495v-115h-115v115h115zM870 370v-115h-115v115h115zM745 370v-115h-115v115h115zM495 370v-115h-115v115h115zM370 370v-115h-115v115h115zM245 370v-115h-115v115h115zM120 370v-115h-115v115h115zM620 370v-115h-115v115h115zM245 245v-115h-115
v115h115zM120 245v-115h-115v115h115zM370 245v-115h-115v115h115zM870 120v-115h-115v115h115zM745 120v-115h-115v115h115zM495 120v-115h-115v115h115zM370 120v-115h-115v115h115zM245 120v-115h-115v115h115zM620 120v-115h-115v115h115z" />
    <glyph glyph-name="f" unicode="f" horiz-adv-x="750" 
d="M495 995v-115h-115v115h115zM370 995v-115h-115v115h115zM745 995v-115h-115v115h115zM620 995v-115h-115v115h115zM370 870v-115h-115v115h115zM245 870v-115h-115v115h115zM495 870v-115h-115v115h115zM370 745v-115h-115v115h115zM245 745v-115h-115v115h115zM495 745
v-115h-115v115h115zM620 620v-115h-115v115h115zM495 620v-115h-115v115h115zM370 620v-115h-115v115h115zM245 620v-115h-115v115h115zM120 620v-115h-115v115h115zM370 495v-115h-115v115h115zM245 495v-115h-115v115h115zM495 495v-115h-115v115h115zM370 370v-115h-115
v115h115zM245 370v-115h-115v115h115zM495 370v-115h-115v115h115zM370 245v-115h-115v115h115zM245 245v-115h-115v115h115zM495 245v-115h-115v115h115zM370 120v-115h-115v115h115zM245 120v-115h-115v115h115zM495 120v-115h-115v115h115z" />
    <glyph glyph-name="g" unicode="g" 
d="M620 620v-115h-115v115h115zM370 620v-115h-115v115h115zM245 620v-115h-115v115h115zM870 620v-115h-115v115h115zM495 620v-115h-115v115h115zM745 620v-115h-115v115h115zM745 495v-115h-115v115h115zM620 495v-115h-115v115h115zM245 495v-115h-115v115h115zM120 495
v-115h-115v115h115zM870 495v-115h-115v115h115zM370 495v-115h-115v115h115zM745 370v-115h-115v115h115zM620 370v-115h-115v115h115zM245 370v-115h-115v115h115zM120 370v-115h-115v115h115zM870 370v-115h-115v115h115zM370 370v-115h-115v115h115zM745 245v-115h-115
v115h115zM620 245v-115h-115v115h115zM245 245v-115h-115v115h115zM120 245v-115h-115v115h115zM870 245v-115h-115v115h115zM370 245v-115h-115v115h115zM745 120v-115h-115v115h115zM620 120v-115h-115v115h115zM370 120v-115h-115v115h115zM245 120v-115h-115v115h115z
M870 120v-115h-115v115h115zM495 120v-115h-115v115h115zM745 -5v-115h-115v115h115zM620 -5v-115h-115v115h115zM870 -5v-115h-115v115h115zM620 -130v-115h-115v115h115zM370 -130v-115h-115v115h115zM245 -130v-115h-115v115h115zM745 -130v-115h-115v115h115zM495 -130
v-115h-115v115h115z" />
    <glyph glyph-name="h" unicode="h" 
d="M120 995v-115h-115v115h115zM370 995v-115h-115v115h115zM245 995v-115h-115v115h115zM245 870v-115h-115v115h115zM120 870v-115h-115v115h115zM370 870v-115h-115v115h115zM245 745v-115h-115v115h115zM120 745v-115h-115v115h115zM370 745v-115h-115v115h115zM620 620
v-115h-115v115h115zM495 620v-115h-115v115h115zM370 620v-115h-115v115h115zM245 620v-115h-115v115h115zM120 620v-115h-115v115h115zM745 620v-115h-115v115h115zM745 495v-115h-115v115h115zM620 495v-115h-115v115h115zM245 495v-115h-115v115h115zM120 495v-115h-115
v115h115zM370 495v-115h-115v115h115zM870 495v-115h-115v115h115zM745 370v-115h-115v115h115zM620 370v-115h-115v115h115zM245 370v-115h-115v115h115zM120 370v-115h-115v115h115zM370 370v-115h-115v115h115zM870 370v-115h-115v115h115zM745 245v-115h-115v115h115z
M620 245v-115h-115v115h115zM245 245v-115h-115v115h115zM120 245v-115h-115v115h115zM370 245v-115h-115v115h115zM870 245v-115h-115v115h115zM745 120v-115h-115v115h115zM620 120v-115h-115v115h115zM245 120v-115h-115v115h115zM120 120v-115h-115v115h115zM370 120
v-115h-115v115h115zM870 120v-115h-115v115h115z" />
    <glyph glyph-name="i" unicode="i" horiz-adv-x="500" 
d="M245 995v-115h-115v115h115zM120 995v-115h-115v115h115zM370 995v-115h-115v115h115zM370 870v-115h-115v115h115zM245 870v-115h-115v115h115zM120 870v-115h-115v115h115zM245 620v-115h-115v115h115zM120 620v-115h-115v115h115zM370 620v-115h-115v115h115zM245 495
v-115h-115v115h115zM120 495v-115h-115v115h115zM370 495v-115h-115v115h115zM245 370v-115h-115v115h115zM120 370v-115h-115v115h115zM370 370v-115h-115v115h115zM245 245v-115h-115v115h115zM120 245v-115h-115v115h115zM370 245v-115h-115v115h115zM245 120v-115h-115
v115h115zM120 120v-115h-115v115h115zM370 120v-115h-115v115h115z" />
    <glyph glyph-name="j" unicode="j" horiz-adv-x="500" 
d="M370 995v-115h-115v115h115zM120 995v-115h-115v115h115zM245 995v-115h-115v115h115zM120 870v-115h-115v115h115zM245 870v-115h-115v115h115zM370 870v-115h-115v115h115zM245 620v-115h-115v115h115zM120 620v-115h-115v115h115zM370 620v-115h-115v115h115zM245 495
v-115h-115v115h115zM120 495v-115h-115v115h115zM370 495v-115h-115v115h115zM245 370v-115h-115v115h115zM120 370v-115h-115v115h115zM370 370v-115h-115v115h115zM245 245v-115h-115v115h115zM120 245v-115h-115v115h115zM370 245v-115h-115v115h115zM245 120v-115h-115
v115h115zM120 120v-115h-115v115h115zM370 120v-115h-115v115h115zM245 -5v-115h-115v115h115zM120 -5v-115h-115v115h115zM370 -5v-115h-115v115h115zM120 -130v-115h-115v115h115zM-5 -130v-115h-115v115h115zM245 -130v-115h-115v115h115z" />
    <glyph glyph-name="k" unicode="k" horiz-adv-x="1125" 
d="M245 995v-115h-115v115h115zM120 995v-115h-115v115h115zM370 995v-115h-115v115h115zM370 870v-115h-115v115h115zM245 870v-115h-115v115h115zM120 870v-115h-115v115h115zM370 745v-115h-115v115h115zM245 745v-115h-115v115h115zM120 745v-115h-115v115h115zM745 620
v-115h-115v115h115zM370 620v-115h-115v115h115zM245 620v-115h-115v115h115zM870 620v-115h-115v115h115zM120 620v-115h-115v115h115zM995 620v-115h-115v115h115zM620 495v-115h-115v115h115zM370 495v-115h-115v115h115zM245 495v-115h-115v115h115zM745 495v-115h-115
v115h115zM120 495v-115h-115v115h115zM620 370v-115h-115v115h115zM495 370v-115h-115v115h115zM370 370v-115h-115v115h115zM245 370v-115h-115v115h115zM745 370v-115h-115v115h115zM120 370v-115h-115v115h115zM870 370v-115h-115v115h115zM745 245v-115h-115v115h115z
M620 245v-115h-115v115h115zM370 245v-115h-115v115h115zM245 245v-115h-115v115h115zM870 245v-115h-115v115h115zM120 245v-115h-115v115h115zM995 245v-115h-115v115h115zM870 120v-115h-115v115h115zM745 120v-115h-115v115h115zM370 120v-115h-115v115h115zM245 120
v-115h-115v115h115zM995 120v-115h-115v115h115zM120 120v-115h-115v115h115z" />
    <glyph glyph-name="l" unicode="l" horiz-adv-x="625" 
d="M120 995v-115h-115v115h115zM370 995v-115h-115v115h115zM245 995v-115h-115v115h115zM245 870v-115h-115v115h115zM120 870v-115h-115v115h115zM370 870v-115h-115v115h115zM245 745v-115h-115v115h115zM120 745v-115h-115v115h115zM370 745v-115h-115v115h115zM245 620
v-115h-115v115h115zM120 620v-115h-115v115h115zM370 620v-115h-115v115h115zM245 495v-115h-115v115h115zM120 495v-115h-115v115h115zM370 495v-115h-115v115h115zM245 370v-115h-115v115h115zM120 370v-115h-115v115h115zM370 370v-115h-115v115h115zM245 245v-115h-115
v115h115zM120 245v-115h-115v115h115zM370 245v-115h-115v115h115zM495 120v-115h-115v115h115zM370 120v-115h-115v115h115zM245 120v-115h-115v115h115z" />
    <glyph glyph-name="m" unicode="m" horiz-adv-x="1250" 
d="M870 620v-115h-115v115h115zM745 620v-115h-115v115h115zM620 620v-115h-115v115h115zM370 620v-115h-115v115h115zM245 620v-115h-115v115h115zM120 620v-115h-115v115h115zM495 620v-115h-115v115h115zM995 620v-115h-115v115h115zM1120 495v-115h-115v115h115z
M995 495v-115h-115v115h115zM745 495v-115h-115v115h115zM620 495v-115h-115v115h115zM245 495v-115h-115v115h115zM120 495v-115h-115v115h115zM370 495v-115h-115v115h115zM1120 370v-115h-115v115h115zM995 370v-115h-115v115h115zM745 370v-115h-115v115h115zM620 370
v-115h-115v115h115zM245 370v-115h-115v115h115zM120 370v-115h-115v115h115zM370 370v-115h-115v115h115zM1120 245v-115h-115v115h115zM995 245v-115h-115v115h115zM745 245v-115h-115v115h115zM620 245v-115h-115v115h115zM245 245v-115h-115v115h115zM120 245v-115h-115
v115h115zM370 245v-115h-115v115h115zM1120 120v-115h-115v115h115zM995 120v-115h-115v115h115zM745 120v-115h-115v115h115zM620 120v-115h-115v115h115zM245 120v-115h-115v115h115zM120 120v-115h-115v115h115zM370 120v-115h-115v115h115z" />
    <glyph glyph-name="n" unicode="n" 
d="M370 620v-115h-115v115h115zM245 620v-115h-115v115h115zM120 620v-115h-115v115h115zM745 620v-115h-115v115h115zM495 620v-115h-115v115h115zM620 620v-115h-115v115h115zM745 495v-115h-115v115h115zM620 495v-115h-115v115h115zM245 495v-115h-115v115h115zM120 495
v-115h-115v115h115zM870 495v-115h-115v115h115zM370 495v-115h-115v115h115zM745 370v-115h-115v115h115zM620 370v-115h-115v115h115zM245 370v-115h-115v115h115zM120 370v-115h-115v115h115zM870 370v-115h-115v115h115zM370 370v-115h-115v115h115zM745 245v-115h-115
v115h115zM620 245v-115h-115v115h115zM245 245v-115h-115v115h115zM120 245v-115h-115v115h115zM870 245v-115h-115v115h115zM370 245v-115h-115v115h115zM745 120v-115h-115v115h115zM620 120v-115h-115v115h115zM245 120v-115h-115v115h115zM120 120v-115h-115v115h115z
M870 120v-115h-115v115h115zM370 120v-115h-115v115h115z" />
    <glyph glyph-name="o" unicode="o" 
d="M370 620v-115h-115v115h115zM245 620v-115h-115v115h115zM495 620v-115h-115v115h115zM745 620v-115h-115v115h115zM620 620v-115h-115v115h115zM745 495v-115h-115v115h115zM620 495v-115h-115v115h115zM245 495v-115h-115v115h115zM120 495v-115h-115v115h115zM370 495
v-115h-115v115h115zM870 495v-115h-115v115h115zM745 370v-115h-115v115h115zM620 370v-115h-115v115h115zM245 370v-115h-115v115h115zM120 370v-115h-115v115h115zM370 370v-115h-115v115h115zM870 370v-115h-115v115h115zM745 245v-115h-115v115h115zM620 245v-115h-115
v115h115zM245 245v-115h-115v115h115zM120 245v-115h-115v115h115zM370 245v-115h-115v115h115zM870 245v-115h-115v115h115zM620 120v-115h-115v115h115zM370 120v-115h-115v115h115zM245 120v-115h-115v115h115zM495 120v-115h-115v115h115zM745 120v-115h-115v115h115z
" />
    <glyph glyph-name="p" unicode="p" 
d="M495 620v-115h-115v115h115zM370 620v-115h-115v115h115zM245 620v-115h-115v115h115zM120 620v-115h-115v115h115zM620 620v-115h-115v115h115zM745 620v-115h-115v115h115zM870 495v-115h-115v115h115zM745 495v-115h-115v115h115zM245 495v-115h-115v115h115zM120 495
v-115h-115v115h115zM370 495v-115h-115v115h115zM620 495v-115h-115v115h115zM870 370v-115h-115v115h115zM745 370v-115h-115v115h115zM245 370v-115h-115v115h115zM120 370v-115h-115v115h115zM370 370v-115h-115v115h115zM620 370v-115h-115v115h115zM870 245v-115h-115
v115h115zM745 245v-115h-115v115h115zM245 245v-115h-115v115h115zM120 245v-115h-115v115h115zM370 245v-115h-115v115h115zM620 245v-115h-115v115h115zM745 120v-115h-115v115h115zM495 120v-115h-115v115h115zM370 120v-115h-115v115h115zM245 120v-115h-115v115h115z
M120 120v-115h-115v115h115zM620 120v-115h-115v115h115zM245 -5v-115h-115v115h115zM120 -5v-115h-115v115h115zM370 -5v-115h-115v115h115zM245 -130v-115h-115v115h115zM120 -130v-115h-115v115h115zM370 -130v-115h-115v115h115z" />
    <glyph glyph-name="q" unicode="q" 
d="M620 620v-115h-115v115h115zM370 620v-115h-115v115h115zM245 620v-115h-115v115h115zM870 620v-115h-115v115h115zM495 620v-115h-115v115h115zM745 620v-115h-115v115h115zM745 495v-115h-115v115h115zM620 495v-115h-115v115h115zM120 495v-115h-115v115h115zM245 495
v-115h-115v115h115zM870 495v-115h-115v115h115zM370 495v-115h-115v115h115zM745 370v-115h-115v115h115zM620 370v-115h-115v115h115zM120 370v-115h-115v115h115zM245 370v-115h-115v115h115zM870 370v-115h-115v115h115zM370 370v-115h-115v115h115zM745 245v-115h-115
v115h115zM620 245v-115h-115v115h115zM120 245v-115h-115v115h115zM245 245v-115h-115v115h115zM870 245v-115h-115v115h115zM370 245v-115h-115v115h115zM745 120v-115h-115v115h115zM620 120v-115h-115v115h115zM370 120v-115h-115v115h115zM245 120v-115h-115v115h115z
M870 120v-115h-115v115h115zM495 120v-115h-115v115h115zM745 -5v-115h-115v115h115zM620 -5v-115h-115v115h115zM870 -5v-115h-115v115h115zM745 -130v-115h-115v115h115zM620 -130v-115h-115v115h115zM870 -130v-115h-115v115h115z" />
    <glyph glyph-name="r" unicode="r" horiz-adv-x="750" 
d="M120 620v-115h-115v115h115zM620 620v-115h-115v115h115zM245 620v-115h-115v115h115zM495 620v-115h-115v115h115zM495 495v-115h-115v115h115zM245 495v-115h-115v115h115zM120 495v-115h-115v115h115zM370 495v-115h-115v115h115zM620 495v-115h-115v115h115zM245 370
v-115h-115v115h115zM120 370v-115h-115v115h115zM370 370v-115h-115v115h115zM245 245v-115h-115v115h115zM120 245v-115h-115v115h115zM370 245v-115h-115v115h115zM245 120v-115h-115v115h115zM120 120v-115h-115v115h115zM370 120v-115h-115v115h115z" />
    <glyph glyph-name="s" unicode="s" horiz-adv-x="875" 
d="M495 620v-115h-115v115h115zM370 620v-115h-115v115h115zM245 620v-115h-115v115h115zM745 620v-115h-115v115h115zM620 620v-115h-115v115h115zM245 495v-115h-115v115h115zM120 495v-115h-115v115h115zM370 495v-115h-115v115h115zM495 495v-115h-115v115h115zM495 370
v-115h-115v115h115zM370 370v-115h-115v115h115zM245 370v-115h-115v115h115zM620 370v-115h-115v115h115zM620 245v-115h-115v115h115zM495 245v-115h-115v115h115zM370 245v-115h-115v115h115zM745 245v-115h-115v115h115zM495 120v-115h-115v115h115zM370 120v-115h-115
v115h115zM245 120v-115h-115v115h115zM120 120v-115h-115v115h115zM620 120v-115h-115v115h115z" />
    <glyph glyph-name="t" unicode="t" horiz-adv-x="750" 
d="M370 870v-115h-115v115h115zM245 870v-115h-115v115h115zM245 745v-115h-115v115h115zM120 745v-115h-115v115h115zM370 745v-115h-115v115h115zM495 620v-115h-115v115h115zM370 620v-115h-115v115h115zM245 620v-115h-115v115h115zM120 620v-115h-115v115h115zM620 620
v-115h-115v115h115zM245 495v-115h-115v115h115zM120 495v-115h-115v115h115zM370 495v-115h-115v115h115zM245 370v-115h-115v115h115zM120 370v-115h-115v115h115zM370 370v-115h-115v115h115zM245 245v-115h-115v115h115zM120 245v-115h-115v115h115zM370 245v-115h-115
v115h115zM495 120v-115h-115v115h115zM370 120v-115h-115v115h115zM245 120v-115h-115v115h115zM620 120v-115h-115v115h115z" />
    <glyph glyph-name="u" unicode="u" 
d="M620 620v-115h-115v115h115zM245 620v-115h-115v115h115zM120 620v-115h-115v115h115zM370 620v-115h-115v115h115zM870 620v-115h-115v115h115zM745 620v-115h-115v115h115zM745 495v-115h-115v115h115zM620 495v-115h-115v115h115zM245 495v-115h-115v115h115zM120 495
v-115h-115v115h115zM370 495v-115h-115v115h115zM870 495v-115h-115v115h115zM745 370v-115h-115v115h115zM620 370v-115h-115v115h115zM245 370v-115h-115v115h115zM120 370v-115h-115v115h115zM370 370v-115h-115v115h115zM870 370v-115h-115v115h115zM745 245v-115h-115
v115h115zM620 245v-115h-115v115h115zM245 245v-115h-115v115h115zM120 245v-115h-115v115h115zM370 245v-115h-115v115h115zM870 245v-115h-115v115h115zM745 120v-115h-115v115h115zM495 120v-115h-115v115h115zM370 120v-115h-115v115h115zM245 120v-115h-115v115h115z
M870 120v-115h-115v115h115zM620 120v-115h-115v115h115z" />
    <glyph glyph-name="v" unicode="v" horiz-adv-x="875" 
d="M245 620v-115h-115v115h115zM120 620v-115h-115v115h115zM370 620v-115h-115v115h115zM620 620v-115h-115v115h115zM745 620v-115h-115v115h115zM745 495v-115h-115v115h115zM245 495v-115h-115v115h115zM120 495v-115h-115v115h115zM370 495v-115h-115v115h115zM620 495
v-115h-115v115h115zM745 370v-115h-115v115h115zM245 370v-115h-115v115h115zM120 370v-115h-115v115h115zM370 370v-115h-115v115h115zM620 370v-115h-115v115h115zM620 245v-115h-115v115h115zM370 245v-115h-115v115h115zM245 245v-115h-115v115h115zM120 245v-115h-115
v115h115zM495 120v-115h-115v115h115zM370 120v-115h-115v115h115zM245 120v-115h-115v115h115z" />
    <glyph glyph-name="w" unicode="w" horiz-adv-x="1250" 
d="M245 620v-115h-115v115h115zM120 620v-115h-115v115h115zM370 620v-115h-115v115h115zM1120 620v-115h-115v115h115zM995 620v-115h-115v115h115zM995 495v-115h-115v115h115zM620 495v-115h-115v115h115zM245 495v-115h-115v115h115zM120 495v-115h-115v115h115z
M370 495v-115h-115v115h115zM745 495v-115h-115v115h115zM1120 495v-115h-115v115h115zM995 370v-115h-115v115h115zM620 370v-115h-115v115h115zM245 370v-115h-115v115h115zM120 370v-115h-115v115h115zM370 370v-115h-115v115h115zM745 370v-115h-115v115h115zM1120 370
v-115h-115v115h115zM995 245v-115h-115v115h115zM745 245v-115h-115v115h115zM245 245v-115h-115v115h115zM120 245v-115h-115v115h115zM370 245v-115h-115v115h115zM1120 245v-115h-115v115h115zM620 245v-115h-115v115h115zM870 120v-115h-115v115h115zM620 120v-115h-115
v115h115zM370 120v-115h-115v115h115zM245 120v-115h-115v115h115zM995 120v-115h-115v115h115zM495 120v-115h-115v115h115z" />
    <glyph glyph-name="x" unicode="x" 
d="M370 620v-115h-115v115h115zM245 620v-115h-115v115h115zM495 620v-115h-115v115h115zM120 620v-115h-115v115h115zM870 620v-115h-115v115h115zM742 615v-115h-115v115h115zM745 495v-115h-115v115h115zM495 495v-115h-115v115h115zM370 495v-115h-115v115h115zM245 495
v-115h-115v115h115zM617 490v-115h-115v115h115zM620 370v-115h-115v115h115zM495 370v-115h-115v115h115zM370 370v-115h-115v115h115zM620 245v-115h-115v115h115zM245 245v-115h-115v115h115zM745 245v-115h-115v115h115zM495 245v-115h-115v115h115zM367 240v-115h-115
v115h115zM620 120v-115h-115v115h115zM870 120v-115h-115v115h115zM745 120v-115h-115v115h115zM120 120v-115h-115v115h115zM245 120v-115h-115v115h115zM495 120v-115h-115v115h115z" />
    <glyph glyph-name="y" unicode="y" horiz-adv-x="875" 
d="M245 620v-115h-115v115h115zM120 620v-115h-115v115h115zM370 620v-115h-115v115h115zM620 620v-115h-115v115h115zM745 620v-115h-115v115h115zM745 495v-115h-115v115h115zM245 495v-115h-115v115h115zM120 495v-115h-115v115h115zM370 495v-115h-115v115h115zM620 495
v-115h-115v115h115zM745 370v-115h-115v115h115zM245 370v-115h-115v115h115zM120 370v-115h-115v115h115zM370 370v-115h-115v115h115zM620 370v-115h-115v115h115zM370 245v-115h-115v115h115zM245 245v-115h-115v115h115zM745 245v-115h-115v115h115zM620 245v-115h-115
v115h115zM495 245v-115h-115v115h115zM495 120v-115h-115v115h115zM620 120v-115h-115v115h115zM370 -5v-115h-115v115h115zM120 -5v-115h-115v115h115zM245 -5v-115h-115v115h115zM495 -5v-115h-115v115h115zM245 -130v-115h-115v115h115zM120 -130v-115h-115v115h115z
M370 -130v-115h-115v115h115z" />
    <glyph glyph-name="z" unicode="z" horiz-adv-x="875" 
d="M620 620v-115h-115v115h115zM495 620v-115h-115v115h115zM370 620v-115h-115v115h115zM245 620v-115h-115v115h115zM120 620v-115h-115v115h115zM745 620v-115h-115v115h115zM620 495v-115h-115v115h115zM495 495v-115h-115v115h115zM745 495v-115h-115v115h115zM370 495
v-115h-115v115h115zM495 370v-115h-115v115h115zM370 370v-115h-115v115h115zM620 370v-115h-115v115h115zM245 370v-115h-115v115h115zM370 245v-115h-115v115h115zM245 245v-115h-115v115h115zM495 245v-115h-115v115h115zM120 245v-115h-115v115h115zM745 120v-115h-115
v115h115zM620 120v-115h-115v115h115zM495 120v-115h-115v115h115zM370 120v-115h-115v115h115zM245 120v-115h-115v115h115zM120 120v-115h-115v115h115z" />
    <glyph glyph-name="braceleft" unicode="{" 
d="M620 995v-115h-115v115h115zM495 995v-115h-115v115h115zM745 995v-115h-115v115h115zM495 870v-115h-115v115h115zM370 870v-115h-115v115h115zM495 745v-115h-115v115h115zM370 745v-115h-115v115h115zM495 620v-115h-115v115h115zM370 620v-115h-115v115h115zM370 495
v-115h-115v115h115zM245 495v-115h-115v115h115zM120 495v-115h-115v115h115zM495 370v-115h-115v115h115zM370 370v-115h-115v115h115zM495 245v-115h-115v115h115zM370 245v-115h-115v115h115zM495 120v-115h-115v115h115zM370 120v-115h-115v115h115zM495 -5v-115h-115
v115h115zM370 -5v-115h-115v115h115zM745 -130v-115h-115v115h115zM620 -130v-115h-115v115h115zM495 -130v-115h-115v115h115z" />
    <glyph glyph-name="bar" unicode="|" horiz-adv-x="625" 
d="M370 995v-115h-115v115h115zM245 995v-115h-115v115h115zM245 870v-115h-115v115h115zM370 870v-115h-115v115h115zM245 745v-115h-115v115h115zM370 745v-115h-115v115h115zM245 620v-115h-115v115h115zM370 620v-115h-115v115h115zM245 495v-115h-115v115h115zM370 495
v-115h-115v115h115zM245 370v-115h-115v115h115zM370 370v-115h-115v115h115zM245 245v-115h-115v115h115zM370 245v-115h-115v115h115zM245 120v-115h-115v115h115zM370 120v-115h-115v115h115zM245 -5v-115h-115v115h115zM370 -5v-115h-115v115h115zM245 -130v-115h-115
v115h115zM370 -130v-115h-115v115h115z" />
    <glyph glyph-name="braceright" unicode="}" 
d="M370 995v-115h-115v115h115zM245 995v-115h-115v115h115zM495 995v-115h-115v115h115zM620 870v-115h-115v115h115zM495 870v-115h-115v115h115zM620 745v-115h-115v115h115zM495 745v-115h-115v115h115zM620 620v-115h-115v115h115zM495 620v-115h-115v115h115zM870 495
v-115h-115v115h115zM745 495v-115h-115v115h115zM620 495v-115h-115v115h115zM620 370v-115h-115v115h115zM495 370v-115h-115v115h115zM620 245v-115h-115v115h115zM495 245v-115h-115v115h115zM620 120v-115h-115v115h115zM495 120v-115h-115v115h115zM620 -5v-115h-115
v115h115zM495 -5v-115h-115v115h115zM495 -130v-115h-115v115h115zM370 -130v-115h-115v115h115zM245 -130v-115h-115v115h115z" />
    <glyph glyph-name="asciitilde" unicode="~" 
d="M495 995v-115h-115v115h115zM370 995v-115h-115v115h115zM245 995v-115h-115v115h115zM620 995v-115h-115v115h115zM870 995v-115h-115v115h115zM620 870v-115h-115v115h115zM495 870v-115h-115v115h115zM370 870v-115h-115v115h115zM120 870v-115h-115v115h115zM745 870
v-115h-115v115h115z" />
    <glyph glyph-name="uni00A0" unicode="&#xa0;" horiz-adv-x="375" 
 />
    <glyph glyph-name="exclamdown" unicode="&#xa1;" horiz-adv-x="750" 
d="M370 745v-115h-115v115h115zM245 745v-115h-115v115h115zM495 745v-115h-115v115h115zM495 620v-115h-115v115h115zM370 620v-115h-115v115h115zM245 620v-115h-115v115h115zM495 370v-115h-115v115h115zM370 370v-115h-115v115h115zM495 245v-115h-115v115h115zM370 245
v-115h-115v115h115zM245 245v-115h-115v115h115zM495 120v-115h-115v115h115zM370 120v-115h-115v115h115zM245 120v-115h-115v115h115zM495 -5v-115h-115v115h115zM370 -5v-115h-115v115h115zM245 -5v-115h-115v115h115zM495 -130v-115h-115v115h115zM370 -130v-115h-115
v115h115zM245 -130v-115h-115v115h115z" />
    <glyph glyph-name="cent" unicode="&#xa2;" horiz-adv-x="875" 
d="M495 1120v-115h-115v115h115zM495 995v-115h-115v115h115zM495 870v-115h-115v115h115zM370 870v-115h-115v115h115zM245 870v-115h-115v115h115zM745 870v-115h-115v115h115zM620 870v-115h-115v115h115zM245 745v-115h-115v115h115zM120 745v-115h-115v115h115z
M370 745v-115h-115v115h115zM745 745v-115h-115v115h115zM620 745v-115h-115v115h115zM245 620v-115h-115v115h115zM120 620v-115h-115v115h115zM370 620v-115h-115v115h115zM245 495v-115h-115v115h115zM120 495v-115h-115v115h115zM370 495v-115h-115v115h115zM245 370
v-115h-115v115h115zM120 370v-115h-115v115h115zM370 370v-115h-115v115h115zM245 245v-115h-115v115h115zM120 245v-115h-115v115h115zM370 245v-115h-115v115h115zM745 245v-115h-115v115h115zM495 120v-115h-115v115h115zM370 120v-115h-115v115h115zM245 120v-115h-115
v115h115zM620 120v-115h-115v115h115zM495 -5v-115h-115v115h115zM495 -130v-115h-115v115h115z" />
    <glyph glyph-name="sterling" unicode="&#xa3;" horiz-adv-x="875" 
d="M620 870v-115h-115v115h115zM495 870v-115h-115v115h115zM370 870v-115h-115v115h115zM745 870v-115h-115v115h115zM495 745v-115h-115v115h115zM370 745v-115h-115v115h115zM245 745v-115h-115v115h115zM745 745v-115h-115v115h115zM495 620v-115h-115v115h115zM370 620
v-115h-115v115h115zM245 620v-115h-115v115h115zM745 495v-115h-115v115h115zM495 495v-115h-115v115h115zM370 495v-115h-115v115h115zM245 495v-115h-115v115h115zM620 495v-115h-115v115h115zM495 370v-115h-115v115h115zM370 370v-115h-115v115h115zM245 370v-115h-115
v115h115zM370 245v-115h-115v115h115zM245 245v-115h-115v115h115zM745 245v-115h-115v115h115zM495 120v-115h-115v115h115zM620 120v-115h-115v115h115zM120 120v-115h-115v115h115zM370 120v-115h-115v115h115zM245 120v-115h-115v115h115zM745 120v-115h-115v115h115z
M620 -5v-115h-115v115h115zM495 -5v-115h-115v115h115z" />
    <glyph glyph-name="currency" unicode="&#xa4;" horiz-adv-x="875" 
d="M620 870v-115h-115v115h115zM495 870v-115h-115v115h115zM370 870v-115h-115v115h115zM745 870v-115h-115v115h115zM370 745v-115h-115v115h115zM245 745v-115h-115v115h115zM495 745v-115h-115v115h115zM745 745v-115h-115v115h115zM370 620v-115h-115v115h115zM245 620
v-115h-115v115h115zM495 620v-115h-115v115h115zM620 495v-115h-115v115h115zM495 495v-115h-115v115h115zM370 495v-115h-115v115h115zM245 495v-115h-115v115h115zM120 495v-115h-115v115h115zM745 495v-115h-115v115h115zM370 370v-115h-115v115h115zM245 370v-115h-115
v115h115zM495 370v-115h-115v115h115zM370 245v-115h-115v115h115zM245 245v-115h-115v115h115zM495 245v-115h-115v115h115zM745 245v-115h-115v115h115zM620 120v-115h-115v115h115zM495 120v-115h-115v115h115zM370 120v-115h-115v115h115zM745 120v-115h-115v115h115z
" />
    <glyph glyph-name="yen" unicode="&#xa5;" horiz-adv-x="875" 
d="M745 870v-115h-115v115h115zM245 870v-115h-115v115h115zM120 870v-115h-115v115h115zM370 745v-115h-115v115h115zM245 745v-115h-115v115h115zM620 745v-115h-115v115h115zM495 620v-115h-115v115h115zM370 620v-115h-115v115h115zM745 495v-115h-115v115h115zM620 495
v-115h-115v115h115zM495 495v-115h-115v115h115zM370 495v-115h-115v115h115zM245 495v-115h-115v115h115zM120 495v-115h-115v115h115zM495 370v-115h-115v115h115zM370 370v-115h-115v115h115zM745 245v-115h-115v115h115zM620 245v-115h-115v115h115zM495 245v-115h-115
v115h115zM370 245v-115h-115v115h115zM245 245v-115h-115v115h115zM120 245v-115h-115v115h115zM495 120v-115h-115v115h115zM370 120v-115h-115v115h115z" />
    <glyph glyph-name="brokenbar" unicode="&#xa6;" horiz-adv-x="625" 
d="M370 995v-115h-115v115h115zM245 995v-115h-115v115h115zM245 870v-115h-115v115h115zM370 870v-115h-115v115h115zM245 745v-115h-115v115h115zM370 745v-115h-115v115h115zM245 620v-115h-115v115h115zM370 620v-115h-115v115h115zM245 245v-115h-115v115h115zM370 245
v-115h-115v115h115zM245 120v-115h-115v115h115zM370 120v-115h-115v115h115zM245 -5v-115h-115v115h115zM370 -5v-115h-115v115h115zM245 -130v-115h-115v115h115zM370 -130v-115h-115v115h115z" />
    <glyph glyph-name="section" unicode="&#xa7;" horiz-adv-x="875" 
d="M620 995v-115h-115v115h115zM495 995v-115h-115v115h115zM370 995v-115h-115v115h115zM245 995v-115h-115v115h115zM745 995v-115h-115v115h115zM370 870v-115h-115v115h115zM245 870v-115h-115v115h115zM745 870v-115h-115v115h115zM620 870v-115h-115v115h115zM120 870
v-115h-115v115h115zM495 745v-115h-115v115h115zM370 745v-115h-115v115h115zM120 745v-115h-115v115h115zM245 745v-115h-115v115h115zM620 620v-115h-115v115h115zM495 620v-115h-115v115h115zM370 620v-115h-115v115h115zM745 495v-115h-115v115h115zM620 495v-115h-115
v115h115zM245 495v-115h-115v115h115zM120 495v-115h-115v115h115zM495 370v-115h-115v115h115zM370 370v-115h-115v115h115zM245 370v-115h-115v115h115zM620 245v-115h-115v115h115zM495 245v-115h-115v115h115zM745 245v-115h-115v115h115zM370 245v-115h-115v115h115z
M745 120v-115h-115v115h115zM620 120v-115h-115v115h115zM120 120v-115h-115v115h115zM245 120v-115h-115v115h115zM495 120v-115h-115v115h115zM620 -5v-115h-115v115h115zM495 -5v-115h-115v115h115zM370 -5v-115h-115v115h115zM245 -5v-115h-115v115h115zM120 -5v-115
h-115v115h115z" />
    <glyph glyph-name="dieresis" unicode="&#xa8;" 
d="M620 995v-115h-115v115h115zM370 995v-115h-115v115h115zM245 995v-115h-115v115h115zM745 995v-115h-115v115h115zM370 870v-115h-115v115h115zM245 870v-115h-115v115h115zM620 870v-115h-115v115h115zM745 870v-115h-115v115h115z" />
    <glyph glyph-name="copyright" unicode="&#xa9;" horiz-adv-x="1250" 
d="M745 995v-115h-115v115h115zM620 995v-115h-115v115h115zM495 995v-115h-115v115h115zM870 995v-115h-115v115h115zM995 870v-115h-115v115h115zM370 870v-115h-115v115h115zM1120 745v-115h-115v115h115zM870 745v-115h-115v115h115zM745 745v-115h-115v115h115z
M620 745v-115h-115v115h115zM245 745v-115h-115v115h115zM1120 620v-115h-115v115h115zM495 620v-115h-115v115h115zM245 620v-115h-115v115h115zM1120 495v-115h-115v115h115zM495 495v-115h-115v115h115zM245 495v-115h-115v115h115zM1120 370v-115h-115v115h115zM870 370
v-115h-115v115h115zM745 370v-115h-115v115h115zM620 370v-115h-115v115h115zM245 370v-115h-115v115h115zM995 245v-115h-115v115h115zM370 245v-115h-115v115h115zM870 120v-115h-115v115h115zM745 120v-115h-115v115h115zM620 120v-115h-115v115h115zM495 120v-115h-115
v115h115z" />
    <glyph glyph-name="ordfeminine" unicode="&#xaa;" horiz-adv-x="875" 
d="M495 995v-115h-115v115h115zM370 995v-115h-115v115h115zM245 995v-115h-115v115h115zM620 995v-115h-115v115h115zM745 870v-115h-115v115h115zM620 870v-115h-115v115h115zM495 870v-115h-115v115h115zM745 745v-115h-115v115h115zM620 745v-115h-115v115h115zM495 745
v-115h-115v115h115zM370 745v-115h-115v115h115zM245 745v-115h-115v115h115zM745 620v-115h-115v115h115zM620 620v-115h-115v115h115zM245 620v-115h-115v115h115zM120 620v-115h-115v115h115zM495 620v-115h-115v115h115zM745 495v-115h-115v115h115zM620 495v-115h-115
v115h115zM495 495v-115h-115v115h115zM370 495v-115h-115v115h115zM245 495v-115h-115v115h115z" />
    <glyph glyph-name="guillemotleft" unicode="&#xab;" horiz-adv-x="1250" 
d="M495 620v-115h-115v115h115zM870 620v-115h-115v115h115zM995 620v-115h-115v115h115zM620 620v-115h-115v115h115zM495 495v-115h-115v115h115zM370 495v-115h-115v115h115zM620 495v-115h-115v115h115zM995 495v-115h-115v115h115zM870 495v-115h-115v115h115zM370 370
v-115h-115v115h115zM620 370v-115h-115v115h115zM495 370v-115h-115v115h115zM245 370v-115h-115v115h115zM870 370v-115h-115v115h115zM995 370v-115h-115v115h115zM495 245v-115h-115v115h115zM370 245v-115h-115v115h115zM620 245v-115h-115v115h115zM995 245v-115h-115
v115h115zM870 245v-115h-115v115h115zM620 120v-115h-115v115h115zM495 120v-115h-115v115h115zM995 120v-115h-115v115h115zM870 120v-115h-115v115h115z" />
    <glyph glyph-name="logicalnot" unicode="&#xac;" horiz-adv-x="875" 
d="M130 380v115h115v-115h-115zM255 380v115h115v-115h-115zM380 380v115h115v-115h-115zM505 380v115h115v-115h-115zM630 380v115h115v-115h-115zM5 380v115h115v-115h-115zM505 255v115h115v-115h-115zM630 255v115h115v-115h-115zM505 130v115h115v-115h-115zM630 130
v115h115v-115h-115zM505 5v115h115v-115h-115zM630 5v115h115v-115h-115z" />
    <glyph glyph-name="uni00AD" unicode="&#xad;" horiz-adv-x="750" 
d="M495 370v-115h-115v115h115zM370 370v-115h-115v115h115zM245 370v-115h-115v115h115zM120 370v-115h-115v115h115zM620 370v-115h-115v115h115z" />
    <glyph glyph-name="registered" unicode="&#xae;" horiz-adv-x="1250" 
d="M620 995v-115h-115v115h115zM495 995v-115h-115v115h115zM745 995v-115h-115v115h115zM870 870v-115h-115v115h115zM370 870v-115h-115v115h115zM995 745v-115h-115v115h115zM745 745v-115h-115v115h115zM620 745v-115h-115v115h115zM495 745v-115h-115v115h115zM245 745
v-115h-115v115h115zM995 620v-115h-115v115h115zM620 620v-115h-115v115h115zM495 620v-115h-115v115h115zM245 620v-115h-115v115h115zM995 495v-115h-115v115h115zM745 495v-115h-115v115h115zM495 495v-115h-115v115h115zM245 495v-115h-115v115h115zM870 370v-115h-115
v115h115zM370 370v-115h-115v115h115zM745 245v-115h-115v115h115zM620 245v-115h-115v115h115zM495 245v-115h-115v115h115z" />
    <glyph glyph-name="macron" unicode="&#xaf;" horiz-adv-x="625" 
d="M370 870v-115h-115v115h115zM245 870v-115h-115v115h115zM120 870v-115h-115v115h115zM495 870v-115h-115v115h115z" />
    <glyph glyph-name="degree" unicode="&#xb0;" horiz-adv-x="875" 
d="M245 995v-115h-115v115h115zM495 995v-115h-115v115h115zM370 995v-115h-115v115h115zM370 870v-115h-115v115h115zM245 870v-115h-115v115h115zM120 870v-115h-115v115h115zM620 870v-115h-115v115h115zM245 745v-115h-115v115h115zM120 745v-115h-115v115h115zM620 745
v-115h-115v115h115zM370 745v-115h-115v115h115zM370 620v-115h-115v115h115zM495 620v-115h-115v115h115zM245 620v-115h-115v115h115z" />
    <glyph glyph-name="plusminus" unicode="&#xb1;" horiz-adv-x="875" 
d="M255 755v115h115v-115h-115zM380 755v115h115v-115h-115zM255 630v115h115v-115h-115zM380 630v115h115v-115h-115zM505 505v115h115v-115h-115zM380 505v115h115v-115h-115zM255 505v115h115v-115h-115zM130 505v115h115v-115h-115zM5 505v115h115v-115h-115zM630 505
v115h115v-115h-115zM255 380v115h115v-115h-115zM380 380v115h115v-115h-115zM255 255v115h115v-115h-115zM380 255v115h115v-115h-115zM130 5v115h115v-115h-115zM255 5v115h115v-115h-115zM380 5v115h115v-115h-115zM505 5v115h115v-115h-115zM630 5v115h115v-115h-115z
M5 5v115h115v-115h-115z" />
    <glyph glyph-name="twosuperior" unicode="&#xb2;" horiz-adv-x="625" 
d="M120 870v-115h-115v115h115zM370 870v-115h-115v115h115zM245 870v-115h-115v115h115zM370 745v-115h-115v115h115zM495 745v-115h-115v115h115zM370 620v-115h-115v115h115zM245 620v-115h-115v115h115zM370 495v-115h-115v115h115zM245 495v-115h-115v115h115zM120 495
v-115h-115v115h115zM495 495v-115h-115v115h115z" />
    <glyph glyph-name="threesuperior" unicode="&#xb3;" horiz-adv-x="625" 
d="M370 870v-115h-115v115h115zM245 870v-115h-115v115h115zM120 870v-115h-115v115h115zM495 870v-115h-115v115h115zM370 745v-115h-115v115h115zM245 745v-115h-115v115h115zM495 620v-115h-115v115h115zM370 620v-115h-115v115h115zM370 495v-115h-115v115h115zM245 495
v-115h-115v115h115zM120 495v-115h-115v115h115z" />
    <glyph glyph-name="acute" unicode="&#xb4;" horiz-adv-x="625" 
d="M370 1120v-115h-115v115h115zM495 1120v-115h-115v115h115zM495 995v-115h-115v115h115zM370 995v-115h-115v115h115zM370 870v-115h-115v115h115zM245 870v-115h-115v115h115z" />
    <glyph glyph-name="mu" unicode="&#xb5;" horiz-adv-x="875" 
d="M5 505v115h115v-115h-115zM630 505v115h115v-115h-115zM505 505v115h115v-115h-115zM130 505v115h115v-115h-115zM255 505v115h115v-115h-115zM5 380v115h115v-115h-115zM630 380v115h115v-115h-115zM505 380v115h115v-115h-115zM130 380v115h115v-115h-115zM255 380v115
h115v-115h-115zM5 255v115h115v-115h-115zM630 255v115h115v-115h-115zM505 255v115h115v-115h-115zM130 255v115h115v-115h-115zM255 255v115h115v-115h-115zM5 130v115h115v-115h-115zM630 130v115h115v-115h-115zM505 130v115h115v-115h-115zM130 130v115h115v-115h-115z
M255 130v115h115v-115h-115zM5 5v115h115v-115h-115zM130 5v115h115v-115h-115zM255 5v115h115v-115h-115zM380 5v115h115v-115h-115zM630 5v115h115v-115h-115zM5 -120v115h115v-115h-115zM130 -120v115h115v-115h-115zM255 -120v115h115v-115h-115zM130 -245v115h115v-115
h-115zM255 -245v115h115v-115h-115zM5 -245v115h115v-115h-115z" />
    <glyph glyph-name="paragraph" unicode="&#xb6;" horiz-adv-x="1500" 
d="M995 745v-115h-115v115h115zM870 745v-115h-115v115h115zM620 745v-115h-115v115h115zM495 745v-115h-115v115h115zM370 745v-115h-115v115h115zM1245 745v-115h-115v115h115zM1120 745v-115h-115v115h115zM870 620v-115h-115v115h115zM620 620v-115h-115v115h115z
M495 620v-115h-115v115h115zM370 620v-115h-115v115h115zM245 620v-115h-115v115h115zM995 620v-115h-115v115h115zM870 495v-115h-115v115h115zM620 495v-115h-115v115h115zM495 495v-115h-115v115h115zM370 495v-115h-115v115h115zM245 495v-115h-115v115h115zM995 495
v-115h-115v115h115zM870 370v-115h-115v115h115zM620 370v-115h-115v115h115zM495 370v-115h-115v115h115zM370 370v-115h-115v115h115zM245 370v-115h-115v115h115zM995 370v-115h-115v115h115zM870 245v-115h-115v115h115zM620 245v-115h-115v115h115zM495 245v-115h-115
v115h115zM370 245v-115h-115v115h115zM995 245v-115h-115v115h115zM995 120v-115h-115v115h115zM870 120v-115h-115v115h115zM870 -5v-115h-115v115h115zM995 -5v-115h-115v115h115zM870 -130v-115h-115v115h115zM620 -130v-115h-115v115h115zM745 -130v-115h-115v115h115z
" />
    <glyph glyph-name="periodcentered" unicode="&#xb7;" horiz-adv-x="625" 
d="M245 495v-115h-115v115h115zM370 495v-115h-115v115h115zM370 370v-115h-115v115h115zM245 370v-115h-115v115h115zM245 245v-115h-115v115h115zM370 245v-115h-115v115h115z" />
    <glyph glyph-name="cedilla" unicode="&#xb8;" horiz-adv-x="750" 
d="M495 -5v-115h-115v115h115zM620 -5v-115h-115v115h115zM495 -130v-115h-115v115h115zM370 -130v-115h-115v115h115zM245 -130v-115h-115v115h115z" />
    <glyph glyph-name="onesuperior" unicode="&#xb9;" horiz-adv-x="500" 
d="M245 870v-115h-115v115h115zM370 870v-115h-115v115h115zM370 745v-115h-115v115h115zM245 745v-115h-115v115h115zM120 745v-115h-115v115h115zM370 620v-115h-115v115h115zM245 620v-115h-115v115h115zM370 495v-115h-115v115h115zM245 495v-115h-115v115h115z" />
    <glyph glyph-name="ordmasculine" unicode="&#xba;" horiz-adv-x="875" 
d="M495 995v-115h-115v115h115zM370 995v-115h-115v115h115zM245 995v-115h-115v115h115zM620 995v-115h-115v115h115zM745 870v-115h-115v115h115zM620 870v-115h-115v115h115zM370 870v-115h-115v115h115zM245 870v-115h-115v115h115zM120 870v-115h-115v115h115zM745 745
v-115h-115v115h115zM620 745v-115h-115v115h115zM370 745v-115h-115v115h115zM245 745v-115h-115v115h115zM120 745v-115h-115v115h115zM745 620v-115h-115v115h115zM620 620v-115h-115v115h115zM370 620v-115h-115v115h115zM245 620v-115h-115v115h115zM120 620v-115h-115
v115h115zM620 495v-115h-115v115h115zM495 495v-115h-115v115h115zM370 495v-115h-115v115h115zM245 495v-115h-115v115h115z" />
    <glyph glyph-name="guillemotright" unicode="&#xbb;" horiz-adv-x="1250" 
d="M370 620v-115h-115v115h115zM620 620v-115h-115v115h115zM245 620v-115h-115v115h115zM745 620v-115h-115v115h115zM870 495v-115h-115v115h115zM370 495v-115h-115v115h115zM745 495v-115h-115v115h115zM245 495v-115h-115v115h115zM620 495v-115h-115v115h115zM995 370
v-115h-115v115h115zM745 370v-115h-115v115h115zM870 370v-115h-115v115h115zM370 370v-115h-115v115h115zM245 370v-115h-115v115h115zM620 370v-115h-115v115h115zM870 245v-115h-115v115h115zM370 245v-115h-115v115h115zM745 245v-115h-115v115h115zM245 245v-115h-115
v115h115zM620 245v-115h-115v115h115zM745 120v-115h-115v115h115zM370 120v-115h-115v115h115zM245 120v-115h-115v115h115zM620 120v-115h-115v115h115z" />
    <glyph glyph-name="onequarter" unicode="&#xbc;" horiz-adv-x="1625" 
d="M995 870v-115h-115v115h115zM870 870v-115h-115v115h115zM370 870v-115h-115v115h115zM245 870v-115h-115v115h115zM995 745v-115h-115v115h115zM870 745v-115h-115v115h115zM370 745v-115h-115v115h115zM245 745v-115h-115v115h115zM120 745v-115h-115v115h115zM870 620
v-115h-115v115h115zM370 620v-115h-115v115h115zM245 620v-115h-115v115h115zM995 620v-115h-115v115h115zM1370 495v-115h-115v115h115zM745 495v-115h-115v115h115zM370 495v-115h-115v115h115zM245 495v-115h-115v115h115zM870 495v-115h-115v115h115zM1495 495v-115
h-115v115h115zM1370 370v-115h-115v115h115zM1245 370v-115h-115v115h115zM745 370v-115h-115v115h115zM620 370v-115h-115v115h115zM1495 245v-115h-115v115h115zM1370 245v-115h-115v115h115zM1245 245v-115h-115v115h115zM1120 245v-115h-115v115h115zM620 245v-115h-115
v115h115zM745 245v-115h-115v115h115zM1495 120v-115h-115v115h115zM1370 120v-115h-115v115h115zM620 120v-115h-115v115h115zM745 120v-115h-115v115h115z" />
    <glyph glyph-name="onehalf" unicode="&#xbd;" horiz-adv-x="1750" 
d="M870 870v-115h-115v115h115zM370 870v-115h-115v115h115zM245 870v-115h-115v115h115zM995 870v-115h-115v115h115zM995 745v-115h-115v115h115zM870 745v-115h-115v115h115zM370 745v-115h-115v115h115zM245 745v-115h-115v115h115zM120 745v-115h-115v115h115zM870 620
v-115h-115v115h115zM370 620v-115h-115v115h115zM245 620v-115h-115v115h115zM995 620v-115h-115v115h115zM1370 495v-115h-115v115h115zM1245 495v-115h-115v115h115zM1495 495v-115h-115v115h115zM745 495v-115h-115v115h115zM370 495v-115h-115v115h115zM245 495v-115
h-115v115h115zM870 495v-115h-115v115h115zM1495 370v-115h-115v115h115zM745 370v-115h-115v115h115zM620 370v-115h-115v115h115zM1620 370v-115h-115v115h115zM620 245v-115h-115v115h115zM745 245v-115h-115v115h115zM1495 245v-115h-115v115h115zM1370 245v-115h-115
v115h115zM1495 120v-115h-115v115h115zM1370 120v-115h-115v115h115zM1245 120v-115h-115v115h115zM620 120v-115h-115v115h115zM745 120v-115h-115v115h115zM1620 120v-115h-115v115h115z" />
    <glyph glyph-name="threequarters" unicode="&#xbe;" horiz-adv-x="1750" 
d="M495 870v-115h-115v115h115zM370 870v-115h-115v115h115zM245 870v-115h-115v115h115zM120 870v-115h-115v115h115zM1120 870v-115h-115v115h115zM995 870v-115h-115v115h115zM370 745v-115h-115v115h115zM245 745v-115h-115v115h115zM1120 745v-115h-115v115h115z
M995 745v-115h-115v115h115zM495 620v-115h-115v115h115zM370 620v-115h-115v115h115zM995 620v-115h-115v115h115zM1120 620v-115h-115v115h115zM1495 495v-115h-115v115h115zM370 495v-115h-115v115h115zM245 495v-115h-115v115h115zM120 495v-115h-115v115h115zM870 495
v-115h-115v115h115zM995 495v-115h-115v115h115zM1620 495v-115h-115v115h115zM1495 370v-115h-115v115h115zM1370 370v-115h-115v115h115zM870 370v-115h-115v115h115zM745 370v-115h-115v115h115zM1620 245v-115h-115v115h115zM1495 245v-115h-115v115h115zM1370 245v-115
h-115v115h115zM1245 245v-115h-115v115h115zM745 245v-115h-115v115h115zM870 245v-115h-115v115h115zM1620 120v-115h-115v115h115zM1495 120v-115h-115v115h115zM745 120v-115h-115v115h115zM870 120v-115h-115v115h115z" />
    <glyph glyph-name="questiondown" unicode="&#xbf;" horiz-adv-x="875" 
d="M370 745v-115h-115v115h115zM620 745v-115h-115v115h115zM495 745v-115h-115v115h115zM495 620v-115h-115v115h115zM370 620v-115h-115v115h115zM620 620v-115h-115v115h115zM495 370v-115h-115v115h115zM620 370v-115h-115v115h115zM370 245v-115h-115v115h115zM245 245
v-115h-115v115h115zM620 245v-115h-115v115h115zM495 245v-115h-115v115h115zM245 120v-115h-115v115h115zM120 120v-115h-115v115h115zM620 -5v-115h-115v115h115zM495 -5v-115h-115v115h115zM370 -5v-115h-115v115h115zM245 -5v-115h-115v115h115zM120 -5v-115h-115v115
h115zM745 -5v-115h-115v115h115zM620 -130v-115h-115v115h115zM495 -130v-115h-115v115h115zM370 -130v-115h-115v115h115zM245 -130v-115h-115v115h115zM745 -130v-115h-115v115h115z" />
    <glyph glyph-name="Agrave" unicode="&#xc0;" 
d="M130 1130v115h115v-115h-115zM255 1130v115h115v-115h-115zM380 1005v115h115v-115h-115zM255 1005v115h115v-115h-115zM745 870v-115h-115v115h115zM620 870v-115h-115v115h115zM370 870v-115h-115v115h115zM245 870v-115h-115v115h115zM495 870v-115h-115v115h115z
M870 745v-115h-115v115h115zM745 745v-115h-115v115h115zM245 745v-115h-115v115h115zM620 745v-115h-115v115h115zM120 745v-115h-115v115h115zM870 620v-115h-115v115h115zM745 620v-115h-115v115h115zM245 620v-115h-115v115h115zM120 620v-115h-115v115h115zM620 620
v-115h-115v115h115zM870 495v-115h-115v115h115zM745 495v-115h-115v115h115zM245 495v-115h-115v115h115zM120 495v-115h-115v115h115zM620 495v-115h-115v115h115zM870 370v-115h-115v115h115zM745 370v-115h-115v115h115zM620 370v-115h-115v115h115zM370 370v-115h-115
v115h115zM245 370v-115h-115v115h115zM120 370v-115h-115v115h115zM495 370v-115h-115v115h115zM870 245v-115h-115v115h115zM745 245v-115h-115v115h115zM245 245v-115h-115v115h115zM120 245v-115h-115v115h115zM620 245v-115h-115v115h115zM870 120v-115h-115v115h115z
M745 120v-115h-115v115h115zM245 120v-115h-115v115h115zM120 120v-115h-115v115h115zM620 120v-115h-115v115h115z" />
    <glyph glyph-name="Aacute" unicode="&#xc1;" 
d="M380 1130v115h115v-115h-115zM505 1130v115h115v-115h-115zM380 1005v115h115v-115h-115zM255 1005v115h115v-115h-115zM745 870v-115h-115v115h115zM620 870v-115h-115v115h115zM370 870v-115h-115v115h115zM245 870v-115h-115v115h115zM495 870v-115h-115v115h115z
M870 745v-115h-115v115h115zM745 745v-115h-115v115h115zM245 745v-115h-115v115h115zM620 745v-115h-115v115h115zM120 745v-115h-115v115h115zM870 620v-115h-115v115h115zM745 620v-115h-115v115h115zM245 620v-115h-115v115h115zM120 620v-115h-115v115h115zM620 620
v-115h-115v115h115zM870 495v-115h-115v115h115zM745 495v-115h-115v115h115zM245 495v-115h-115v115h115zM120 495v-115h-115v115h115zM620 495v-115h-115v115h115zM870 370v-115h-115v115h115zM745 370v-115h-115v115h115zM620 370v-115h-115v115h115zM370 370v-115h-115
v115h115zM245 370v-115h-115v115h115zM120 370v-115h-115v115h115zM495 370v-115h-115v115h115zM870 245v-115h-115v115h115zM745 245v-115h-115v115h115zM245 245v-115h-115v115h115zM120 245v-115h-115v115h115zM620 245v-115h-115v115h115zM870 120v-115h-115v115h115z
M745 120v-115h-115v115h115zM245 120v-115h-115v115h115zM120 120v-115h-115v115h115zM620 120v-115h-115v115h115z" />
    <glyph glyph-name="Acircumflex" unicode="&#xc2;" 
d="M255 1130v115h115v-115h-115zM380 1130v115h115v-115h-115zM505 1130v115h115v-115h-115zM380 1005v115h115v-115h-115zM505 1005v115h115v-115h-115zM630 1005v115h115v-115h-115zM130 1005v115h115v-115h-115zM745 870v-115h-115v115h115zM620 870v-115h-115v115h115z
M370 870v-115h-115v115h115zM245 870v-115h-115v115h115zM495 870v-115h-115v115h115zM870 745v-115h-115v115h115zM745 745v-115h-115v115h115zM245 745v-115h-115v115h115zM620 745v-115h-115v115h115zM120 745v-115h-115v115h115zM870 620v-115h-115v115h115zM745 620
v-115h-115v115h115zM245 620v-115h-115v115h115zM120 620v-115h-115v115h115zM620 620v-115h-115v115h115zM870 495v-115h-115v115h115zM745 495v-115h-115v115h115zM245 495v-115h-115v115h115zM120 495v-115h-115v115h115zM620 495v-115h-115v115h115zM870 370v-115h-115
v115h115zM745 370v-115h-115v115h115zM620 370v-115h-115v115h115zM370 370v-115h-115v115h115zM245 370v-115h-115v115h115zM120 370v-115h-115v115h115zM495 370v-115h-115v115h115zM870 245v-115h-115v115h115zM745 245v-115h-115v115h115zM245 245v-115h-115v115h115z
M120 245v-115h-115v115h115zM620 245v-115h-115v115h115zM870 120v-115h-115v115h115zM745 120v-115h-115v115h115zM245 120v-115h-115v115h115zM120 120v-115h-115v115h115zM620 120v-115h-115v115h115z" />
    <glyph glyph-name="Atilde" unicode="&#xc3;" 
d="M755 1130v115h115v-115h-115zM380 1130v115h115v-115h-115zM255 1130v115h115v-115h-115zM505 1130v115h115v-115h-115zM130 1130v115h115v-115h-115zM380 1005v115h115v-115h-115zM5 1005v115h115v-115h-115zM505 1005v115h115v-115h-115zM255 1005v115h115v-115h-115z
M630 1005v115h115v-115h-115zM745 870v-115h-115v115h115zM620 870v-115h-115v115h115zM370 870v-115h-115v115h115zM245 870v-115h-115v115h115zM495 870v-115h-115v115h115zM870 745v-115h-115v115h115zM745 745v-115h-115v115h115zM245 745v-115h-115v115h115zM620 745
v-115h-115v115h115zM120 745v-115h-115v115h115zM870 620v-115h-115v115h115zM745 620v-115h-115v115h115zM245 620v-115h-115v115h115zM120 620v-115h-115v115h115zM620 620v-115h-115v115h115zM870 495v-115h-115v115h115zM745 495v-115h-115v115h115zM245 495v-115h-115
v115h115zM120 495v-115h-115v115h115zM620 495v-115h-115v115h115zM870 370v-115h-115v115h115zM745 370v-115h-115v115h115zM620 370v-115h-115v115h115zM370 370v-115h-115v115h115zM245 370v-115h-115v115h115zM120 370v-115h-115v115h115zM495 370v-115h-115v115h115z
M870 245v-115h-115v115h115zM745 245v-115h-115v115h115zM245 245v-115h-115v115h115zM120 245v-115h-115v115h115zM620 245v-115h-115v115h115zM870 120v-115h-115v115h115zM745 120v-115h-115v115h115zM245 120v-115h-115v115h115zM120 120v-115h-115v115h115zM620 120
v-115h-115v115h115z" />
    <glyph glyph-name="Adieresis" unicode="&#xc4;" 
d="M245 1245v-115h-115v115h115zM370 1245v-115h-115v115h115zM620 1245v-115h-115v115h115zM745 1245v-115h-115v115h115zM620 1120v-115h-115v115h115zM370 1120v-115h-115v115h115zM245 1120v-115h-115v115h115zM745 1120v-115h-115v115h115zM745 870v-115h-115v115h115z
M620 870v-115h-115v115h115zM370 870v-115h-115v115h115zM245 870v-115h-115v115h115zM495 870v-115h-115v115h115zM870 745v-115h-115v115h115zM745 745v-115h-115v115h115zM245 745v-115h-115v115h115zM620 745v-115h-115v115h115zM120 745v-115h-115v115h115zM870 620
v-115h-115v115h115zM745 620v-115h-115v115h115zM245 620v-115h-115v115h115zM120 620v-115h-115v115h115zM620 620v-115h-115v115h115zM870 495v-115h-115v115h115zM745 495v-115h-115v115h115zM245 495v-115h-115v115h115zM120 495v-115h-115v115h115zM620 495v-115h-115
v115h115zM870 370v-115h-115v115h115zM745 370v-115h-115v115h115zM620 370v-115h-115v115h115zM370 370v-115h-115v115h115zM245 370v-115h-115v115h115zM120 370v-115h-115v115h115zM495 370v-115h-115v115h115zM870 245v-115h-115v115h115zM745 245v-115h-115v115h115z
M245 245v-115h-115v115h115zM120 245v-115h-115v115h115zM620 245v-115h-115v115h115zM870 120v-115h-115v115h115zM745 120v-115h-115v115h115zM245 120v-115h-115v115h115zM120 120v-115h-115v115h115zM620 120v-115h-115v115h115z" />
    <glyph glyph-name="Aring" unicode="&#xc5;" 
d="M620 1245v-115h-115v115h115zM370 1245v-115h-115v115h115zM495 1245v-115h-115v115h115zM745 1120v-115h-115v115h115zM620 1120v-115h-115v115h115zM245 1120v-115h-115v115h115zM370 1120v-115h-115v115h115zM620 995v-115h-115v115h115zM370 995v-115h-115v115h115z
M495 995v-115h-115v115h115zM745 745v-115h-115v115h115zM620 745v-115h-115v115h115zM370 745v-115h-115v115h115zM245 745v-115h-115v115h115zM495 745v-115h-115v115h115zM745 620v-115h-115v115h115zM245 620v-115h-115v115h115zM620 620v-115h-115v115h115zM120 620
v-115h-115v115h115zM870 620v-115h-115v115h115zM870 495v-115h-115v115h115zM745 495v-115h-115v115h115zM245 495v-115h-115v115h115zM120 495v-115h-115v115h115zM620 495v-115h-115v115h115zM870 370v-115h-115v115h115zM745 370v-115h-115v115h115zM620 370v-115h-115
v115h115zM370 370v-115h-115v115h115zM245 370v-115h-115v115h115zM120 370v-115h-115v115h115zM495 370v-115h-115v115h115zM870 245v-115h-115v115h115zM745 245v-115h-115v115h115zM245 245v-115h-115v115h115zM120 245v-115h-115v115h115zM620 245v-115h-115v115h115z
M870 120v-115h-115v115h115zM745 120v-115h-115v115h115zM245 120v-115h-115v115h115zM120 120v-115h-115v115h115zM620 120v-115h-115v115h115z" />
    <glyph glyph-name="AE" unicode="&#xc6;" horiz-adv-x="1500" 
d="M745 870v-115h-115v115h115zM620 870v-115h-115v115h115zM370 870v-115h-115v115h115zM245 870v-115h-115v115h115zM495 870v-115h-115v115h115zM1245 870v-115h-115v115h115zM1120 870v-115h-115v115h115zM995 870v-115h-115v115h115zM1370 870v-115h-115v115h115z
M870 870v-115h-115v115h115zM745 745v-115h-115v115h115zM245 745v-115h-115v115h115zM620 745v-115h-115v115h115zM120 745v-115h-115v115h115zM1370 745v-115h-115v115h115zM1245 745v-115h-115v115h115zM870 745v-115h-115v115h115zM870 620v-115h-115v115h115zM745 620
v-115h-115v115h115zM245 620v-115h-115v115h115zM120 620v-115h-115v115h115zM620 620v-115h-115v115h115zM870 495v-115h-115v115h115zM745 495v-115h-115v115h115zM245 495v-115h-115v115h115zM370 495v-115h-115v115h115zM120 495v-115h-115v115h115zM620 495v-115h-115
v115h115zM495 495v-115h-115v115h115zM1120 495v-115h-115v115h115zM995 495v-115h-115v115h115zM1245 495v-115h-115v115h115zM870 370v-115h-115v115h115zM745 370v-115h-115v115h115zM620 370v-115h-115v115h115zM245 370v-115h-115v115h115zM120 370v-115h-115v115h115z
M870 245v-115h-115v115h115zM745 245v-115h-115v115h115zM245 245v-115h-115v115h115zM120 245v-115h-115v115h115zM620 245v-115h-115v115h115zM1370 245v-115h-115v115h115zM1245 245v-115h-115v115h115zM870 120v-115h-115v115h115zM745 120v-115h-115v115h115zM245 120
v-115h-115v115h115zM120 120v-115h-115v115h115zM620 120v-115h-115v115h115zM1245 120v-115h-115v115h115zM1120 120v-115h-115v115h115zM995 120v-115h-115v115h115zM1370 120v-115h-115v115h115z" />
    <glyph glyph-name="Ccedilla" unicode="&#xc7;" 
d="M745 870v-115h-115v115h115zM495 870v-115h-115v115h115zM370 870v-115h-115v115h115zM245 870v-115h-115v115h115zM870 870v-115h-115v115h115zM620 870v-115h-115v115h115zM245 745v-115h-115v115h115zM120 745v-115h-115v115h115zM370 745v-115h-115v115h115zM870 745
v-115h-115v115h115zM745 745v-115h-115v115h115zM245 620v-115h-115v115h115zM120 620v-115h-115v115h115zM370 620v-115h-115v115h115zM245 495v-115h-115v115h115zM120 495v-115h-115v115h115zM370 495v-115h-115v115h115zM245 370v-115h-115v115h115zM120 370v-115h-115
v115h115zM370 370v-115h-115v115h115zM245 245v-115h-115v115h115zM120 245v-115h-115v115h115zM370 245v-115h-115v115h115zM870 245v-115h-115v115h115zM620 120v-115h-115v115h115zM495 120v-115h-115v115h115zM370 120v-115h-115v115h115zM245 120v-115h-115v115h115z
M745 120v-115h-115v115h115zM620 -5v-115h-115v115h115zM745 -5v-115h-115v115h115zM620 -130v-115h-115v115h115zM495 -130v-115h-115v115h115zM370 -130v-115h-115v115h115z" />
    <glyph glyph-name="Egrave" unicode="&#xc8;" 
d="M255 1130v115h115v-115h-115zM380 1130v115h115v-115h-115zM505 1005v115h115v-115h-115zM380 1005v115h115v-115h-115zM745 870v-115h-115v115h115zM620 870v-115h-115v115h115zM495 870v-115h-115v115h115zM370 870v-115h-115v115h115zM245 870v-115h-115v115h115z
M120 870v-115h-115v115h115zM870 870v-115h-115v115h115zM245 745v-115h-115v115h115zM120 745v-115h-115v115h115zM370 745v-115h-115v115h115zM870 745v-115h-115v115h115zM745 745v-115h-115v115h115zM245 620v-115h-115v115h115zM120 620v-115h-115v115h115zM370 620
v-115h-115v115h115zM620 495v-115h-115v115h115zM495 495v-115h-115v115h115zM370 495v-115h-115v115h115zM245 495v-115h-115v115h115zM120 495v-115h-115v115h115zM745 495v-115h-115v115h115zM245 370v-115h-115v115h115zM120 370v-115h-115v115h115zM370 370v-115h-115
v115h115zM245 245v-115h-115v115h115zM120 245v-115h-115v115h115zM370 245v-115h-115v115h115zM870 245v-115h-115v115h115zM745 245v-115h-115v115h115zM745 120v-115h-115v115h115zM620 120v-115h-115v115h115zM495 120v-115h-115v115h115zM370 120v-115h-115v115h115z
M245 120v-115h-115v115h115zM120 120v-115h-115v115h115zM870 120v-115h-115v115h115z" />
    <glyph glyph-name="Eacute" unicode="&#xc9;" 
d="M620 1245v-115h-115v115h115zM745 1245v-115h-115v115h115zM620 1120v-115h-115v115h115zM495 1120v-115h-115v115h115zM745 870v-115h-115v115h115zM620 870v-115h-115v115h115zM495 870v-115h-115v115h115zM370 870v-115h-115v115h115zM245 870v-115h-115v115h115z
M120 870v-115h-115v115h115zM870 870v-115h-115v115h115zM245 745v-115h-115v115h115zM120 745v-115h-115v115h115zM370 745v-115h-115v115h115zM870 745v-115h-115v115h115zM745 745v-115h-115v115h115zM245 620v-115h-115v115h115zM120 620v-115h-115v115h115zM370 620
v-115h-115v115h115zM620 495v-115h-115v115h115zM495 495v-115h-115v115h115zM370 495v-115h-115v115h115zM245 495v-115h-115v115h115zM120 495v-115h-115v115h115zM745 495v-115h-115v115h115zM245 370v-115h-115v115h115zM120 370v-115h-115v115h115zM370 370v-115h-115
v115h115zM245 245v-115h-115v115h115zM120 245v-115h-115v115h115zM370 245v-115h-115v115h115zM870 245v-115h-115v115h115zM745 245v-115h-115v115h115zM745 120v-115h-115v115h115zM620 120v-115h-115v115h115zM495 120v-115h-115v115h115zM370 120v-115h-115v115h115z
M245 120v-115h-115v115h115zM120 120v-115h-115v115h115zM870 120v-115h-115v115h115z" />
    <glyph glyph-name="Ecircumflex" unicode="&#xca;" 
d="M255 1130v115h115v-115h-115zM380 1130v115h115v-115h-115zM505 1130v115h115v-115h-115zM380 1005v115h115v-115h-115zM505 1005v115h115v-115h-115zM630 1005v115h115v-115h-115zM130 1005v115h115v-115h-115zM745 870v-115h-115v115h115zM620 870v-115h-115v115h115z
M495 870v-115h-115v115h115zM370 870v-115h-115v115h115zM245 870v-115h-115v115h115zM120 870v-115h-115v115h115zM870 870v-115h-115v115h115zM245 745v-115h-115v115h115zM120 745v-115h-115v115h115zM370 745v-115h-115v115h115zM870 745v-115h-115v115h115zM745 745
v-115h-115v115h115zM245 620v-115h-115v115h115zM120 620v-115h-115v115h115zM370 620v-115h-115v115h115zM620 495v-115h-115v115h115zM495 495v-115h-115v115h115zM370 495v-115h-115v115h115zM245 495v-115h-115v115h115zM120 495v-115h-115v115h115zM745 495v-115h-115
v115h115zM245 370v-115h-115v115h115zM120 370v-115h-115v115h115zM370 370v-115h-115v115h115zM245 245v-115h-115v115h115zM120 245v-115h-115v115h115zM370 245v-115h-115v115h115zM870 245v-115h-115v115h115zM745 245v-115h-115v115h115zM745 120v-115h-115v115h115z
M620 120v-115h-115v115h115zM495 120v-115h-115v115h115zM370 120v-115h-115v115h115zM245 120v-115h-115v115h115zM120 120v-115h-115v115h115zM870 120v-115h-115v115h115z" />
    <glyph glyph-name="Edieresis" unicode="&#xcb;" 
d="M630 1130v115h115v-115h-115zM505 1130v115h115v-115h-115zM255 1130v115h115v-115h-115zM130 1130v115h115v-115h-115zM255 1005v115h115v-115h-115zM505 1005v115h115v-115h-115zM130 1005v115h115v-115h-115zM630 1005v115h115v-115h-115zM745 870v-115h-115v115h115z
M620 870v-115h-115v115h115zM495 870v-115h-115v115h115zM370 870v-115h-115v115h115zM245 870v-115h-115v115h115zM120 870v-115h-115v115h115zM870 870v-115h-115v115h115zM245 745v-115h-115v115h115zM120 745v-115h-115v115h115zM370 745v-115h-115v115h115zM870 745
v-115h-115v115h115zM745 745v-115h-115v115h115zM245 620v-115h-115v115h115zM120 620v-115h-115v115h115zM370 620v-115h-115v115h115zM620 495v-115h-115v115h115zM495 495v-115h-115v115h115zM370 495v-115h-115v115h115zM245 495v-115h-115v115h115zM120 495v-115h-115
v115h115zM745 495v-115h-115v115h115zM245 370v-115h-115v115h115zM120 370v-115h-115v115h115zM370 370v-115h-115v115h115zM245 245v-115h-115v115h115zM120 245v-115h-115v115h115zM370 245v-115h-115v115h115zM870 245v-115h-115v115h115zM745 245v-115h-115v115h115z
M745 120v-115h-115v115h115zM620 120v-115h-115v115h115zM495 120v-115h-115v115h115zM370 120v-115h-115v115h115zM245 120v-115h-115v115h115zM120 120v-115h-115v115h115zM870 120v-115h-115v115h115z" />
    <glyph glyph-name="Igrave" unicode="&#xcc;" horiz-adv-x="750" 
d="M5 1130v115h115v-115h-115zM130 1130v115h115v-115h-115zM255 1005v115h115v-115h-115zM130 1005v115h115v-115h-115zM495 870v-115h-115v115h115zM370 870v-115h-115v115h115zM245 870v-115h-115v115h115zM120 870v-115h-115v115h115zM620 870v-115h-115v115h115z
M370 745v-115h-115v115h115zM245 745v-115h-115v115h115zM495 745v-115h-115v115h115zM370 620v-115h-115v115h115zM245 620v-115h-115v115h115zM495 620v-115h-115v115h115zM370 495v-115h-115v115h115zM245 495v-115h-115v115h115zM495 495v-115h-115v115h115zM370 370
v-115h-115v115h115zM245 370v-115h-115v115h115zM495 370v-115h-115v115h115zM370 245v-115h-115v115h115zM245 245v-115h-115v115h115zM495 245v-115h-115v115h115zM495 120v-115h-115v115h115zM370 120v-115h-115v115h115zM245 120v-115h-115v115h115zM120 120v-115h-115
v115h115zM620 120v-115h-115v115h115z" />
    <glyph glyph-name="Iacute" unicode="&#xcd;" horiz-adv-x="750" 
d="M380 1130v115h115v-115h-115zM505 1130v115h115v-115h-115zM380 1005v115h115v-115h-115zM255 1005v115h115v-115h-115zM495 870v-115h-115v115h115zM370 870v-115h-115v115h115zM245 870v-115h-115v115h115zM120 870v-115h-115v115h115zM620 870v-115h-115v115h115z
M370 745v-115h-115v115h115zM245 745v-115h-115v115h115zM495 745v-115h-115v115h115zM370 620v-115h-115v115h115zM245 620v-115h-115v115h115zM495 620v-115h-115v115h115zM370 495v-115h-115v115h115zM245 495v-115h-115v115h115zM495 495v-115h-115v115h115zM370 370
v-115h-115v115h115zM245 370v-115h-115v115h115zM495 370v-115h-115v115h115zM370 245v-115h-115v115h115zM245 245v-115h-115v115h115zM495 245v-115h-115v115h115zM495 120v-115h-115v115h115zM370 120v-115h-115v115h115zM245 120v-115h-115v115h115zM120 120v-115h-115
v115h115zM620 120v-115h-115v115h115z" />
    <glyph glyph-name="Icircumflex" unicode="&#xce;" horiz-adv-x="750" 
d="M130 1130v115h115v-115h-115zM255 1130v115h115v-115h-115zM380 1130v115h115v-115h-115zM255 1005v115h115v-115h-115zM380 1005v115h115v-115h-115zM505 1005v115h115v-115h-115zM5 1005v115h115v-115h-115zM495 870v-115h-115v115h115zM370 870v-115h-115v115h115z
M245 870v-115h-115v115h115zM120 870v-115h-115v115h115zM620 870v-115h-115v115h115zM370 745v-115h-115v115h115zM245 745v-115h-115v115h115zM495 745v-115h-115v115h115zM370 620v-115h-115v115h115zM245 620v-115h-115v115h115zM495 620v-115h-115v115h115zM370 495
v-115h-115v115h115zM245 495v-115h-115v115h115zM495 495v-115h-115v115h115zM370 370v-115h-115v115h115zM245 370v-115h-115v115h115zM495 370v-115h-115v115h115zM370 245v-115h-115v115h115zM245 245v-115h-115v115h115zM495 245v-115h-115v115h115zM495 120v-115h-115
v115h115zM370 120v-115h-115v115h115zM245 120v-115h-115v115h115zM120 120v-115h-115v115h115zM620 120v-115h-115v115h115z" />
    <glyph glyph-name="Idieresis" unicode="&#xcf;" horiz-adv-x="750" 
d="M130 1130v115h115v-115h-115zM5 1130v115h115v-115h-115zM380 1130v115h115v-115h-115zM505 1130v115h115v-115h-115zM130 1005v115h115v-115h-115zM380 1005v115h115v-115h-115zM5 1005v115h115v-115h-115zM505 1005v115h115v-115h-115zM495 870v-115h-115v115h115z
M370 870v-115h-115v115h115zM245 870v-115h-115v115h115zM120 870v-115h-115v115h115zM620 870v-115h-115v115h115zM370 745v-115h-115v115h115zM245 745v-115h-115v115h115zM495 745v-115h-115v115h115zM370 620v-115h-115v115h115zM245 620v-115h-115v115h115zM495 620
v-115h-115v115h115zM370 495v-115h-115v115h115zM245 495v-115h-115v115h115zM495 495v-115h-115v115h115zM370 370v-115h-115v115h115zM245 370v-115h-115v115h115zM495 370v-115h-115v115h115zM370 245v-115h-115v115h115zM245 245v-115h-115v115h115zM495 245v-115h-115
v115h115zM495 120v-115h-115v115h115zM370 120v-115h-115v115h115zM245 120v-115h-115v115h115zM120 120v-115h-115v115h115zM620 120v-115h-115v115h115z" />
    <glyph glyph-name="Eth" unicode="&#xd0;" horiz-adv-x="1250" 
d="M495 870v-115h-115v115h115zM370 870v-115h-115v115h115zM245 870v-115h-115v115h115zM745 870v-115h-115v115h115zM620 870v-115h-115v115h115zM870 870v-115h-115v115h115zM995 745v-115h-115v115h115zM870 745v-115h-115v115h115zM370 745v-115h-115v115h115zM245 745
v-115h-115v115h115zM495 745v-115h-115v115h115zM745 745v-115h-115v115h115zM1120 620v-115h-115v115h115zM995 620v-115h-115v115h115zM370 620v-115h-115v115h115zM245 620v-115h-115v115h115zM495 620v-115h-115v115h115zM870 620v-115h-115v115h115zM1120 495v-115
h-115v115h115zM995 495v-115h-115v115h115zM370 495v-115h-115v115h115zM245 495v-115h-115v115h115zM495 495v-115h-115v115h115zM870 495v-115h-115v115h115zM620 495v-115h-115v115h115zM120 495v-115h-115v115h115zM1120 370v-115h-115v115h115zM995 370v-115h-115v115
h115zM370 370v-115h-115v115h115zM245 370v-115h-115v115h115zM495 370v-115h-115v115h115zM870 370v-115h-115v115h115zM995 245v-115h-115v115h115zM870 245v-115h-115v115h115zM370 245v-115h-115v115h115zM245 245v-115h-115v115h115zM495 245v-115h-115v115h115z
M745 245v-115h-115v115h115zM870 120v-115h-115v115h115zM495 120v-115h-115v115h115zM370 120v-115h-115v115h115zM245 120v-115h-115v115h115zM745 120v-115h-115v115h115zM620 120v-115h-115v115h115z" />
    <glyph glyph-name="Ntilde" unicode="&#xd1;" horiz-adv-x="1125" 
d="M620 1245v-115h-115v115h115zM495 1245v-115h-115v115h115zM370 1245v-115h-115v115h115zM870 1245v-115h-115v115h115zM745 1120v-115h-115v115h115zM620 1120v-115h-115v115h115zM495 1120v-115h-115v115h115zM245 1120v-115h-115v115h115zM870 870v-115h-115v115h115z
M370 870v-115h-115v115h115zM245 870v-115h-115v115h115zM120 870v-115h-115v115h115zM995 870v-115h-115v115h115zM870 745v-115h-115v115h115zM495 745v-115h-115v115h115zM370 745v-115h-115v115h115zM245 745v-115h-115v115h115zM120 745v-115h-115v115h115zM995 745
v-115h-115v115h115zM870 620v-115h-115v115h115zM620 620v-115h-115v115h115zM495 620v-115h-115v115h115zM370 620v-115h-115v115h115zM245 620v-115h-115v115h115zM120 620v-115h-115v115h115zM995 620v-115h-115v115h115zM870 495v-115h-115v115h115zM745 495v-115h-115
v115h115zM620 495v-115h-115v115h115zM495 495v-115h-115v115h115zM245 495v-115h-115v115h115zM120 495v-115h-115v115h115zM370 495v-115h-115v115h115zM995 495v-115h-115v115h115zM870 370v-115h-115v115h115zM745 370v-115h-115v115h115zM620 370v-115h-115v115h115z
M245 370v-115h-115v115h115zM120 370v-115h-115v115h115zM495 370v-115h-115v115h115zM995 370v-115h-115v115h115zM870 245v-115h-115v115h115zM745 245v-115h-115v115h115zM245 245v-115h-115v115h115zM120 245v-115h-115v115h115zM620 245v-115h-115v115h115zM995 245
v-115h-115v115h115zM870 120v-115h-115v115h115zM245 120v-115h-115v115h115zM120 120v-115h-115v115h115zM745 120v-115h-115v115h115zM995 120v-115h-115v115h115z" />
    <glyph glyph-name="Ograve" unicode="&#xd2;" horiz-adv-x="1125" 
d="M255 1130v115h115v-115h-115zM380 1130v115h115v-115h-115zM505 1005v115h115v-115h-115zM380 1005v115h115v-115h-115zM745 870v-115h-115v115h115zM495 870v-115h-115v115h115zM370 870v-115h-115v115h115zM245 870v-115h-115v115h115zM870 870v-115h-115v115h115z
M620 870v-115h-115v115h115zM870 745v-115h-115v115h115zM745 745v-115h-115v115h115zM245 745v-115h-115v115h115zM120 745v-115h-115v115h115zM995 745v-115h-115v115h115zM370 745v-115h-115v115h115zM870 620v-115h-115v115h115zM745 620v-115h-115v115h115zM245 620
v-115h-115v115h115zM120 620v-115h-115v115h115zM995 620v-115h-115v115h115zM370 620v-115h-115v115h115zM870 495v-115h-115v115h115zM745 495v-115h-115v115h115zM245 495v-115h-115v115h115zM120 495v-115h-115v115h115zM995 495v-115h-115v115h115zM370 495v-115h-115
v115h115zM870 370v-115h-115v115h115zM745 370v-115h-115v115h115zM245 370v-115h-115v115h115zM120 370v-115h-115v115h115zM995 370v-115h-115v115h115zM370 370v-115h-115v115h115zM870 245v-115h-115v115h115zM745 245v-115h-115v115h115zM245 245v-115h-115v115h115z
M120 245v-115h-115v115h115zM995 245v-115h-115v115h115zM370 245v-115h-115v115h115zM745 120v-115h-115v115h115zM495 120v-115h-115v115h115zM370 120v-115h-115v115h115zM245 120v-115h-115v115h115zM870 120v-115h-115v115h115zM620 120v-115h-115v115h115z" />
    <glyph glyph-name="Oacute" unicode="&#xd3;" horiz-adv-x="1125" 
d="M505 1130v115h115v-115h-115zM630 1130v115h115v-115h-115zM505 1005v115h115v-115h-115zM380 1005v115h115v-115h-115zM745 870v-115h-115v115h115zM495 870v-115h-115v115h115zM370 870v-115h-115v115h115zM245 870v-115h-115v115h115zM870 870v-115h-115v115h115z
M620 870v-115h-115v115h115zM870 745v-115h-115v115h115zM745 745v-115h-115v115h115zM245 745v-115h-115v115h115zM120 745v-115h-115v115h115zM995 745v-115h-115v115h115zM370 745v-115h-115v115h115zM870 620v-115h-115v115h115zM745 620v-115h-115v115h115zM245 620
v-115h-115v115h115zM120 620v-115h-115v115h115zM995 620v-115h-115v115h115zM370 620v-115h-115v115h115zM870 495v-115h-115v115h115zM745 495v-115h-115v115h115zM245 495v-115h-115v115h115zM120 495v-115h-115v115h115zM995 495v-115h-115v115h115zM370 495v-115h-115
v115h115zM870 370v-115h-115v115h115zM745 370v-115h-115v115h115zM245 370v-115h-115v115h115zM120 370v-115h-115v115h115zM995 370v-115h-115v115h115zM370 370v-115h-115v115h115zM870 245v-115h-115v115h115zM745 245v-115h-115v115h115zM245 245v-115h-115v115h115z
M120 245v-115h-115v115h115zM995 245v-115h-115v115h115zM370 245v-115h-115v115h115zM745 120v-115h-115v115h115zM495 120v-115h-115v115h115zM370 120v-115h-115v115h115zM245 120v-115h-115v115h115zM870 120v-115h-115v115h115zM620 120v-115h-115v115h115z" />
    <glyph glyph-name="Ocircumflex" unicode="&#xd4;" horiz-adv-x="1125" 
d="M380 1130v115h115v-115h-115zM505 1130v115h115v-115h-115zM630 1130v115h115v-115h-115zM505 1005v115h115v-115h-115zM630 1005v115h115v-115h-115zM755 1005v115h115v-115h-115zM255 1005v115h115v-115h-115zM745 870v-115h-115v115h115zM495 870v-115h-115v115h115z
M370 870v-115h-115v115h115zM245 870v-115h-115v115h115zM870 870v-115h-115v115h115zM620 870v-115h-115v115h115zM870 745v-115h-115v115h115zM745 745v-115h-115v115h115zM245 745v-115h-115v115h115zM120 745v-115h-115v115h115zM995 745v-115h-115v115h115zM370 745
v-115h-115v115h115zM870 620v-115h-115v115h115zM745 620v-115h-115v115h115zM245 620v-115h-115v115h115zM120 620v-115h-115v115h115zM995 620v-115h-115v115h115zM370 620v-115h-115v115h115zM870 495v-115h-115v115h115zM745 495v-115h-115v115h115zM245 495v-115h-115
v115h115zM120 495v-115h-115v115h115zM995 495v-115h-115v115h115zM370 495v-115h-115v115h115zM870 370v-115h-115v115h115zM745 370v-115h-115v115h115zM245 370v-115h-115v115h115zM120 370v-115h-115v115h115zM995 370v-115h-115v115h115zM370 370v-115h-115v115h115z
M870 245v-115h-115v115h115zM745 245v-115h-115v115h115zM245 245v-115h-115v115h115zM120 245v-115h-115v115h115zM995 245v-115h-115v115h115zM370 245v-115h-115v115h115zM745 120v-115h-115v115h115zM495 120v-115h-115v115h115zM370 120v-115h-115v115h115zM245 120
v-115h-115v115h115zM870 120v-115h-115v115h115zM620 120v-115h-115v115h115z" />
    <glyph glyph-name="Otilde" unicode="&#xd5;" horiz-adv-x="1125" 
d="M755 1130v115h115v-115h-115zM380 1130v115h115v-115h-115zM255 1130v115h115v-115h-115zM505 1130v115h115v-115h-115zM380 1005v115h115v-115h-115zM130 1005v115h115v-115h-115zM505 1005v115h115v-115h-115zM630 1005v115h115v-115h-115zM745 870v-115h-115v115h115z
M495 870v-115h-115v115h115zM370 870v-115h-115v115h115zM245 870v-115h-115v115h115zM870 870v-115h-115v115h115zM620 870v-115h-115v115h115zM870 745v-115h-115v115h115zM745 745v-115h-115v115h115zM245 745v-115h-115v115h115zM120 745v-115h-115v115h115zM995 745
v-115h-115v115h115zM370 745v-115h-115v115h115zM870 620v-115h-115v115h115zM745 620v-115h-115v115h115zM245 620v-115h-115v115h115zM120 620v-115h-115v115h115zM995 620v-115h-115v115h115zM370 620v-115h-115v115h115zM870 495v-115h-115v115h115zM745 495v-115h-115
v115h115zM245 495v-115h-115v115h115zM120 495v-115h-115v115h115zM995 495v-115h-115v115h115zM370 495v-115h-115v115h115zM870 370v-115h-115v115h115zM745 370v-115h-115v115h115zM245 370v-115h-115v115h115zM120 370v-115h-115v115h115zM995 370v-115h-115v115h115z
M370 370v-115h-115v115h115zM870 245v-115h-115v115h115zM745 245v-115h-115v115h115zM245 245v-115h-115v115h115zM120 245v-115h-115v115h115zM995 245v-115h-115v115h115zM370 245v-115h-115v115h115zM745 120v-115h-115v115h115zM495 120v-115h-115v115h115zM370 120
v-115h-115v115h115zM245 120v-115h-115v115h115zM870 120v-115h-115v115h115zM620 120v-115h-115v115h115z" />
    <glyph glyph-name="Odieresis" unicode="&#xd6;" horiz-adv-x="1125" 
d="M370 1245v-115h-115v115h115zM495 1245v-115h-115v115h115zM745 1245v-115h-115v115h115zM870 1245v-115h-115v115h115zM870 1120v-115h-115v115h115zM745 1120v-115h-115v115h115zM495 1120v-115h-115v115h115zM370 1120v-115h-115v115h115zM495 870v-115h-115v115h115z
M370 870v-115h-115v115h115zM245 870v-115h-115v115h115zM870 870v-115h-115v115h115zM620 870v-115h-115v115h115zM745 870v-115h-115v115h115zM870 745v-115h-115v115h115zM745 745v-115h-115v115h115zM245 745v-115h-115v115h115zM120 745v-115h-115v115h115zM995 745
v-115h-115v115h115zM370 745v-115h-115v115h115zM870 620v-115h-115v115h115zM745 620v-115h-115v115h115zM245 620v-115h-115v115h115zM120 620v-115h-115v115h115zM995 620v-115h-115v115h115zM370 620v-115h-115v115h115zM870 495v-115h-115v115h115zM745 495v-115h-115
v115h115zM245 495v-115h-115v115h115zM120 495v-115h-115v115h115zM995 495v-115h-115v115h115zM370 495v-115h-115v115h115zM870 370v-115h-115v115h115zM745 370v-115h-115v115h115zM245 370v-115h-115v115h115zM120 370v-115h-115v115h115zM995 370v-115h-115v115h115z
M370 370v-115h-115v115h115zM870 245v-115h-115v115h115zM745 245v-115h-115v115h115zM245 245v-115h-115v115h115zM120 245v-115h-115v115h115zM995 245v-115h-115v115h115zM370 245v-115h-115v115h115zM745 120v-115h-115v115h115zM495 120v-115h-115v115h115zM370 120
v-115h-115v115h115zM245 120v-115h-115v115h115zM870 120v-115h-115v115h115zM620 120v-115h-115v115h115z" />
    <glyph glyph-name="multiply" unicode="&#xd7;" horiz-adv-x="875" 
d="M120 745v-115h-115v115h115zM245 745v-115h-115v115h115zM745 745v-115h-115v115h115zM245 620v-115h-115v115h115zM370 620v-115h-115v115h115zM620 620v-115h-115v115h115zM370 495v-115h-115v115h115zM495 495v-115h-115v115h115zM495 370v-115h-115v115h115zM245 370
v-115h-115v115h115zM620 370v-115h-115v115h115zM620 245v-115h-115v115h115zM120 245v-115h-115v115h115zM745 245v-115h-115v115h115z" />
    <glyph glyph-name="Oslash" unicode="&#xd8;" horiz-adv-x="1125" 
d="M495 870v-115h-115v115h115zM370 870v-115h-115v115h115zM245 870v-115h-115v115h115zM870 870v-115h-115v115h115zM620 870v-115h-115v115h115zM745 870v-115h-115v115h115zM870 745v-115h-115v115h115zM745 745v-115h-115v115h115zM245 745v-115h-115v115h115zM120 745
v-115h-115v115h115zM995 745v-115h-115v115h115zM370 745v-115h-115v115h115zM870 620v-115h-115v115h115zM745 620v-115h-115v115h115zM245 620v-115h-115v115h115zM120 620v-115h-115v115h115zM995 620v-115h-115v115h115zM370 620v-115h-115v115h115zM620 620v-115h-115
v115h115zM870 495v-115h-115v115h115zM745 495v-115h-115v115h115zM245 495v-115h-115v115h115zM120 495v-115h-115v115h115zM995 495v-115h-115v115h115zM370 495v-115h-115v115h115zM495 495v-115h-115v115h115zM870 370v-115h-115v115h115zM745 370v-115h-115v115h115z
M245 370v-115h-115v115h115zM120 370v-115h-115v115h115zM995 370v-115h-115v115h115zM370 370v-115h-115v115h115zM870 245v-115h-115v115h115zM745 245v-115h-115v115h115zM245 245v-115h-115v115h115zM120 245v-115h-115v115h115zM995 245v-115h-115v115h115zM370 245
v-115h-115v115h115zM745 120v-115h-115v115h115zM495 120v-115h-115v115h115zM370 120v-115h-115v115h115zM245 120v-115h-115v115h115zM870 120v-115h-115v115h115zM620 120v-115h-115v115h115z" />
    <glyph glyph-name="Ugrave" unicode="&#xd9;" 
d="M255 1130v115h115v-115h-115zM380 1130v115h115v-115h-115zM505 1005v115h115v-115h-115zM380 1005v115h115v-115h-115zM870 870v-115h-115v115h115zM245 870v-115h-115v115h115zM120 870v-115h-115v115h115zM370 870v-115h-115v115h115zM745 870v-115h-115v115h115z
M870 745v-115h-115v115h115zM245 745v-115h-115v115h115zM120 745v-115h-115v115h115zM370 745v-115h-115v115h115zM745 745v-115h-115v115h115zM870 620v-115h-115v115h115zM245 620v-115h-115v115h115zM120 620v-115h-115v115h115zM370 620v-115h-115v115h115zM745 620
v-115h-115v115h115zM870 495v-115h-115v115h115zM245 495v-115h-115v115h115zM120 495v-115h-115v115h115zM370 495v-115h-115v115h115zM745 495v-115h-115v115h115zM870 370v-115h-115v115h115zM245 370v-115h-115v115h115zM120 370v-115h-115v115h115zM370 370v-115h-115
v115h115zM745 370v-115h-115v115h115zM870 245v-115h-115v115h115zM245 245v-115h-115v115h115zM120 245v-115h-115v115h115zM370 245v-115h-115v115h115zM745 245v-115h-115v115h115zM745 120v-115h-115v115h115zM620 120v-115h-115v115h115zM370 120v-115h-115v115h115z
M245 120v-115h-115v115h115zM495 120v-115h-115v115h115z" />
    <glyph glyph-name="Uacute" unicode="&#xda;" 
d="M505 1130v115h115v-115h-115zM630 1130v115h115v-115h-115zM505 1005v115h115v-115h-115zM380 1005v115h115v-115h-115zM870 870v-115h-115v115h115zM245 870v-115h-115v115h115zM120 870v-115h-115v115h115zM370 870v-115h-115v115h115zM745 870v-115h-115v115h115z
M870 745v-115h-115v115h115zM245 745v-115h-115v115h115zM120 745v-115h-115v115h115zM370 745v-115h-115v115h115zM745 745v-115h-115v115h115zM870 620v-115h-115v115h115zM245 620v-115h-115v115h115zM120 620v-115h-115v115h115zM370 620v-115h-115v115h115zM745 620
v-115h-115v115h115zM870 495v-115h-115v115h115zM245 495v-115h-115v115h115zM120 495v-115h-115v115h115zM370 495v-115h-115v115h115zM745 495v-115h-115v115h115zM870 370v-115h-115v115h115zM245 370v-115h-115v115h115zM120 370v-115h-115v115h115zM370 370v-115h-115
v115h115zM745 370v-115h-115v115h115zM870 245v-115h-115v115h115zM245 245v-115h-115v115h115zM120 245v-115h-115v115h115zM370 245v-115h-115v115h115zM745 245v-115h-115v115h115zM745 120v-115h-115v115h115zM620 120v-115h-115v115h115zM370 120v-115h-115v115h115z
M245 120v-115h-115v115h115zM495 120v-115h-115v115h115z" />
    <glyph glyph-name="Ucircumflex" unicode="&#xdb;" 
d="M255 1130v115h115v-115h-115zM380 1130v115h115v-115h-115zM505 1130v115h115v-115h-115zM380 1005v115h115v-115h-115zM505 1005v115h115v-115h-115zM630 1005v115h115v-115h-115zM130 1005v115h115v-115h-115zM870 870v-115h-115v115h115zM245 870v-115h-115v115h115z
M120 870v-115h-115v115h115zM370 870v-115h-115v115h115zM745 870v-115h-115v115h115zM870 745v-115h-115v115h115zM245 745v-115h-115v115h115zM120 745v-115h-115v115h115zM370 745v-115h-115v115h115zM745 745v-115h-115v115h115zM870 620v-115h-115v115h115zM245 620
v-115h-115v115h115zM120 620v-115h-115v115h115zM370 620v-115h-115v115h115zM745 620v-115h-115v115h115zM870 495v-115h-115v115h115zM245 495v-115h-115v115h115zM120 495v-115h-115v115h115zM370 495v-115h-115v115h115zM745 495v-115h-115v115h115zM870 370v-115h-115
v115h115zM245 370v-115h-115v115h115zM120 370v-115h-115v115h115zM370 370v-115h-115v115h115zM745 370v-115h-115v115h115zM870 245v-115h-115v115h115zM245 245v-115h-115v115h115zM120 245v-115h-115v115h115zM370 245v-115h-115v115h115zM745 245v-115h-115v115h115z
M745 120v-115h-115v115h115zM620 120v-115h-115v115h115zM370 120v-115h-115v115h115zM245 120v-115h-115v115h115zM495 120v-115h-115v115h115z" />
    <glyph glyph-name="Udieresis" unicode="&#xdc;" 
d="M745 1245v-115h-115v115h115zM620 1245v-115h-115v115h115zM370 1245v-115h-115v115h115zM245 1245v-115h-115v115h115zM620 1120v-115h-115v115h115zM370 1120v-115h-115v115h115zM245 1120v-115h-115v115h115zM745 1120v-115h-115v115h115zM870 870v-115h-115v115h115z
M245 870v-115h-115v115h115zM120 870v-115h-115v115h115zM370 870v-115h-115v115h115zM745 870v-115h-115v115h115zM870 745v-115h-115v115h115zM245 745v-115h-115v115h115zM120 745v-115h-115v115h115zM370 745v-115h-115v115h115zM745 745v-115h-115v115h115zM870 620
v-115h-115v115h115zM245 620v-115h-115v115h115zM120 620v-115h-115v115h115zM370 620v-115h-115v115h115zM745 620v-115h-115v115h115zM870 495v-115h-115v115h115zM245 495v-115h-115v115h115zM120 495v-115h-115v115h115zM370 495v-115h-115v115h115zM745 495v-115h-115
v115h115zM870 370v-115h-115v115h115zM245 370v-115h-115v115h115zM120 370v-115h-115v115h115zM370 370v-115h-115v115h115zM745 370v-115h-115v115h115zM870 245v-115h-115v115h115zM245 245v-115h-115v115h115zM120 245v-115h-115v115h115zM370 245v-115h-115v115h115z
M745 245v-115h-115v115h115zM745 120v-115h-115v115h115zM620 120v-115h-115v115h115zM370 120v-115h-115v115h115zM245 120v-115h-115v115h115zM495 120v-115h-115v115h115z" />
    <glyph glyph-name="Yacute" unicode="&#xdd;" 
d="M620 1245v-115h-115v115h115zM745 1245v-115h-115v115h115zM620 1120v-115h-115v115h115zM495 1120v-115h-115v115h115zM870 870v-115h-115v115h115zM370 870v-115h-115v115h115zM245 870v-115h-115v115h115zM120 870v-115h-115v115h115zM745 870v-115h-115v115h115z
M870 745v-115h-115v115h115zM370 745v-115h-115v115h115zM245 745v-115h-115v115h115zM120 745v-115h-115v115h115zM745 745v-115h-115v115h115zM745 620v-115h-115v115h115zM370 620v-115h-115v115h115zM245 620v-115h-115v115h115zM870 620v-115h-115v115h115zM120 620
v-115h-115v115h115zM495 495v-115h-115v115h115zM370 495v-115h-115v115h115zM745 495v-115h-115v115h115zM245 495v-115h-115v115h115zM620 370v-115h-115v115h115zM495 370v-115h-115v115h115zM370 370v-115h-115v115h115zM620 245v-115h-115v115h115zM495 245v-115h-115
v115h115zM370 245v-115h-115v115h115zM620 120v-115h-115v115h115zM495 120v-115h-115v115h115zM370 120v-115h-115v115h115z" />
    <glyph glyph-name="Thorn" unicode="&#xde;" horiz-adv-x="1125" 
d="M245 995v-115h-115v115h115zM120 995v-115h-115v115h115zM370 995v-115h-115v115h115zM870 870v-115h-115v115h115zM745 870v-115h-115v115h115zM495 870v-115h-115v115h115zM370 870v-115h-115v115h115zM245 870v-115h-115v115h115zM120 870v-115h-115v115h115zM620 870
v-115h-115v115h115zM995 745v-115h-115v115h115zM870 745v-115h-115v115h115zM370 745v-115h-115v115h115zM245 745v-115h-115v115h115zM745 745v-115h-115v115h115zM120 745v-115h-115v115h115zM995 620v-115h-115v115h115zM870 620v-115h-115v115h115zM370 620v-115h-115
v115h115zM245 620v-115h-115v115h115zM745 620v-115h-115v115h115zM120 620v-115h-115v115h115zM870 495v-115h-115v115h115zM745 495v-115h-115v115h115zM370 495v-115h-115v115h115zM245 495v-115h-115v115h115zM120 495v-115h-115v115h115zM995 495v-115h-115v115h115z
M495 370v-115h-115v115h115zM370 370v-115h-115v115h115zM245 370v-115h-115v115h115zM120 370v-115h-115v115h115zM620 370v-115h-115v115h115zM745 370v-115h-115v115h115zM870 370v-115h-115v115h115zM370 245v-115h-115v115h115zM245 245v-115h-115v115h115zM120 245
v-115h-115v115h115zM370 120v-115h-115v115h115zM245 120v-115h-115v115h115zM120 120v-115h-115v115h115z" />
    <glyph glyph-name="germandbls" unicode="&#xdf;" horiz-adv-x="1250" 
d="M620 995v-115h-115v115h115zM495 995v-115h-115v115h115zM370 995v-115h-115v115h115zM245 995v-115h-115v115h115zM870 995v-115h-115v115h115zM745 995v-115h-115v115h115zM870 870v-115h-115v115h115zM370 870v-115h-115v115h115zM245 870v-115h-115v115h115zM120 870
v-115h-115v115h115zM745 870v-115h-115v115h115zM995 870v-115h-115v115h115zM870 745v-115h-115v115h115zM745 745v-115h-115v115h115zM370 745v-115h-115v115h115zM245 745v-115h-115v115h115zM120 745v-115h-115v115h115zM995 745v-115h-115v115h115zM745 620v-115h-115
v115h115zM370 620v-115h-115v115h115zM245 620v-115h-115v115h115zM120 620v-115h-115v115h115zM870 620v-115h-115v115h115zM620 620v-115h-115v115h115zM745 495v-115h-115v115h115zM620 495v-115h-115v115h115zM370 495v-115h-115v115h115zM245 495v-115h-115v115h115z
M120 495v-115h-115v115h115zM870 495v-115h-115v115h115zM995 495v-115h-115v115h115zM995 370v-115h-115v115h115zM870 370v-115h-115v115h115zM745 370v-115h-115v115h115zM370 370v-115h-115v115h115zM245 370v-115h-115v115h115zM120 370v-115h-115v115h115zM1120 370
v-115h-115v115h115zM870 245v-115h-115v115h115zM995 245v-115h-115v115h115zM370 245v-115h-115v115h115zM245 245v-115h-115v115h115zM120 245v-115h-115v115h115zM1120 245v-115h-115v115h115zM870 120v-115h-115v115h115zM745 120v-115h-115v115h115zM620 120v-115h-115
v115h115zM370 120v-115h-115v115h115zM245 120v-115h-115v115h115zM120 120v-115h-115v115h115zM995 120v-115h-115v115h115z" />
    <glyph glyph-name="agrave" unicode="&#xe0;" 
d="M370 1120v-115h-115v115h115zM495 1120v-115h-115v115h115zM495 995v-115h-115v115h115zM370 995v-115h-115v115h115zM620 870v-115h-115v115h115zM495 870v-115h-115v115h115zM745 620v-115h-115v115h115zM620 620v-115h-115v115h115zM495 620v-115h-115v115h115z
M370 620v-115h-115v115h115zM245 620v-115h-115v115h115zM870 495v-115h-115v115h115zM745 495v-115h-115v115h115zM620 495v-115h-115v115h115zM870 370v-115h-115v115h115zM745 370v-115h-115v115h115zM620 370v-115h-115v115h115zM495 370v-115h-115v115h115zM370 370
v-115h-115v115h115zM245 370v-115h-115v115h115zM870 245v-115h-115v115h115zM745 245v-115h-115v115h115zM245 245v-115h-115v115h115zM620 245v-115h-115v115h115zM120 245v-115h-115v115h115zM370 245v-115h-115v115h115zM870 120v-115h-115v115h115zM745 120v-115h-115
v115h115zM620 120v-115h-115v115h115zM495 120v-115h-115v115h115zM370 120v-115h-115v115h115zM245 120v-115h-115v115h115z" />
    <glyph glyph-name="aacute" unicode="&#xe1;" 
d="M745 1120v-115h-115v115h115zM620 1120v-115h-115v115h115zM620 995v-115h-115v115h115zM745 995v-115h-115v115h115zM620 870v-115h-115v115h115zM495 870v-115h-115v115h115zM745 620v-115h-115v115h115zM620 620v-115h-115v115h115zM495 620v-115h-115v115h115z
M370 620v-115h-115v115h115zM245 620v-115h-115v115h115zM870 495v-115h-115v115h115zM745 495v-115h-115v115h115zM620 495v-115h-115v115h115zM870 370v-115h-115v115h115zM745 370v-115h-115v115h115zM620 370v-115h-115v115h115zM495 370v-115h-115v115h115zM370 370
v-115h-115v115h115zM245 370v-115h-115v115h115zM870 245v-115h-115v115h115zM745 245v-115h-115v115h115zM245 245v-115h-115v115h115zM620 245v-115h-115v115h115zM120 245v-115h-115v115h115zM370 245v-115h-115v115h115zM870 120v-115h-115v115h115zM745 120v-115h-115
v115h115zM620 120v-115h-115v115h115zM495 120v-115h-115v115h115zM370 120v-115h-115v115h115zM245 120v-115h-115v115h115z" />
    <glyph glyph-name="acircumflex" unicode="&#xe2;" 
d="M495 1120v-115h-115v115h115zM620 995v-115h-115v115h115zM370 995v-115h-115v115h115zM495 995v-115h-115v115h115zM620 870v-115h-115v115h115zM495 870v-115h-115v115h115zM245 870v-115h-115v115h115zM745 870v-115h-115v115h115zM745 620v-115h-115v115h115z
M620 620v-115h-115v115h115zM495 620v-115h-115v115h115zM370 620v-115h-115v115h115zM245 620v-115h-115v115h115zM870 495v-115h-115v115h115zM745 495v-115h-115v115h115zM620 495v-115h-115v115h115zM870 370v-115h-115v115h115zM745 370v-115h-115v115h115zM620 370
v-115h-115v115h115zM495 370v-115h-115v115h115zM370 370v-115h-115v115h115zM245 370v-115h-115v115h115zM870 245v-115h-115v115h115zM745 245v-115h-115v115h115zM245 245v-115h-115v115h115zM620 245v-115h-115v115h115zM120 245v-115h-115v115h115zM370 245v-115h-115
v115h115zM870 120v-115h-115v115h115zM745 120v-115h-115v115h115zM620 120v-115h-115v115h115zM495 120v-115h-115v115h115zM370 120v-115h-115v115h115zM245 120v-115h-115v115h115z" />
    <glyph glyph-name="atilde" unicode="&#xe3;" 
d="M620 995v-115h-115v115h115zM495 995v-115h-115v115h115zM370 995v-115h-115v115h115zM870 995v-115h-115v115h115zM745 870v-115h-115v115h115zM620 870v-115h-115v115h115zM495 870v-115h-115v115h115zM245 870v-115h-115v115h115zM745 620v-115h-115v115h115zM620 620
v-115h-115v115h115zM495 620v-115h-115v115h115zM370 620v-115h-115v115h115zM245 620v-115h-115v115h115zM870 495v-115h-115v115h115zM745 495v-115h-115v115h115zM620 495v-115h-115v115h115zM870 370v-115h-115v115h115zM745 370v-115h-115v115h115zM620 370v-115h-115
v115h115zM495 370v-115h-115v115h115zM370 370v-115h-115v115h115zM245 370v-115h-115v115h115zM870 245v-115h-115v115h115zM745 245v-115h-115v115h115zM245 245v-115h-115v115h115zM620 245v-115h-115v115h115zM120 245v-115h-115v115h115zM370 245v-115h-115v115h115z
M870 120v-115h-115v115h115zM745 120v-115h-115v115h115zM620 120v-115h-115v115h115zM495 120v-115h-115v115h115zM370 120v-115h-115v115h115zM245 120v-115h-115v115h115z" />
    <glyph glyph-name="adieresis" unicode="&#xe4;" 
d="M620 995v-115h-115v115h115zM370 995v-115h-115v115h115zM245 995v-115h-115v115h115zM745 995v-115h-115v115h115zM370 870v-115h-115v115h115zM245 870v-115h-115v115h115zM620 870v-115h-115v115h115zM745 870v-115h-115v115h115zM745 620v-115h-115v115h115zM620 620
v-115h-115v115h115zM495 620v-115h-115v115h115zM370 620v-115h-115v115h115zM245 620v-115h-115v115h115zM870 495v-115h-115v115h115zM745 495v-115h-115v115h115zM620 495v-115h-115v115h115zM870 370v-115h-115v115h115zM745 370v-115h-115v115h115zM620 370v-115h-115
v115h115zM495 370v-115h-115v115h115zM370 370v-115h-115v115h115zM245 370v-115h-115v115h115zM870 245v-115h-115v115h115zM745 245v-115h-115v115h115zM245 245v-115h-115v115h115zM620 245v-115h-115v115h115zM120 245v-115h-115v115h115zM370 245v-115h-115v115h115z
M870 120v-115h-115v115h115zM745 120v-115h-115v115h115zM620 120v-115h-115v115h115zM495 120v-115h-115v115h115zM370 120v-115h-115v115h115zM245 120v-115h-115v115h115z" />
    <glyph glyph-name="aring" unicode="&#xe5;" 
d="M495 1120v-115h-115v115h115zM620 1120v-115h-115v115h115zM745 995v-115h-115v115h115zM620 995v-115h-115v115h115zM370 995v-115h-115v115h115zM620 870v-115h-115v115h115zM495 870v-115h-115v115h115zM745 620v-115h-115v115h115zM620 620v-115h-115v115h115z
M495 620v-115h-115v115h115zM370 620v-115h-115v115h115zM245 620v-115h-115v115h115zM870 495v-115h-115v115h115zM745 495v-115h-115v115h115zM620 495v-115h-115v115h115zM870 370v-115h-115v115h115zM745 370v-115h-115v115h115zM620 370v-115h-115v115h115zM495 370
v-115h-115v115h115zM370 370v-115h-115v115h115zM245 370v-115h-115v115h115zM870 245v-115h-115v115h115zM745 245v-115h-115v115h115zM245 245v-115h-115v115h115zM620 245v-115h-115v115h115zM120 245v-115h-115v115h115zM370 245v-115h-115v115h115zM870 120v-115h-115
v115h115zM745 120v-115h-115v115h115zM620 120v-115h-115v115h115zM495 120v-115h-115v115h115zM370 120v-115h-115v115h115zM245 120v-115h-115v115h115z" />
    <glyph glyph-name="ae" unicode="&#xe6;" horiz-adv-x="1500" 
d="M870 620v-115h-115v115h115zM620 620v-115h-115v115h115zM495 620v-115h-115v115h115zM370 620v-115h-115v115h115zM245 620v-115h-115v115h115zM1245 620v-115h-115v115h115zM995 620v-115h-115v115h115zM1120 620v-115h-115v115h115zM745 495v-115h-115v115h115z
M620 495v-115h-115v115h115zM1370 495v-115h-115v115h115zM1245 495v-115h-115v115h115zM1120 495v-115h-115v115h115zM870 495v-115h-115v115h115zM870 370v-115h-115v115h115zM745 370v-115h-115v115h115zM620 370v-115h-115v115h115zM495 370v-115h-115v115h115zM370 370
v-115h-115v115h115zM245 370v-115h-115v115h115zM1370 370v-115h-115v115h115zM1245 370v-115h-115v115h115zM995 370v-115h-115v115h115zM1120 370v-115h-115v115h115zM870 245v-115h-115v115h115zM745 245v-115h-115v115h115zM245 245v-115h-115v115h115zM620 245v-115
h-115v115h115zM120 245v-115h-115v115h115zM370 245v-115h-115v115h115zM870 120v-115h-115v115h115zM745 120v-115h-115v115h115zM620 120v-115h-115v115h115zM495 120v-115h-115v115h115zM370 120v-115h-115v115h115zM245 120v-115h-115v115h115zM1370 120v-115h-115v115
h115zM1245 120v-115h-115v115h115zM995 120v-115h-115v115h115zM1120 120v-115h-115v115h115z" />
    <glyph glyph-name="ccedilla" unicode="&#xe7;" horiz-adv-x="875" 
d="M620 620v-115h-115v115h115zM495 620v-115h-115v115h115zM370 620v-115h-115v115h115zM245 620v-115h-115v115h115zM745 620v-115h-115v115h115zM245 495v-115h-115v115h115zM120 495v-115h-115v115h115zM370 495v-115h-115v115h115zM245 370v-115h-115v115h115zM120 370
v-115h-115v115h115zM370 370v-115h-115v115h115zM245 245v-115h-115v115h115zM120 245v-115h-115v115h115zM370 245v-115h-115v115h115zM620 120v-115h-115v115h115zM495 120v-115h-115v115h115zM370 120v-115h-115v115h115zM245 120v-115h-115v115h115zM745 120v-115h-115
v115h115zM620 -5v-115h-115v115h115zM745 -5v-115h-115v115h115zM620 -130v-115h-115v115h115zM495 -130v-115h-115v115h115zM370 -130v-115h-115v115h115z" />
    <glyph glyph-name="egrave" unicode="&#xe8;" 
d="M495 1120v-115h-115v115h115zM370 1120v-115h-115v115h115zM370 995v-115h-115v115h115zM495 995v-115h-115v115h115zM620 870v-115h-115v115h115zM495 870v-115h-115v115h115zM745 620v-115h-115v115h115zM495 620v-115h-115v115h115zM370 620v-115h-115v115h115z
M245 620v-115h-115v115h115zM620 620v-115h-115v115h115zM870 495v-115h-115v115h115zM745 495v-115h-115v115h115zM245 495v-115h-115v115h115zM120 495v-115h-115v115h115zM370 495v-115h-115v115h115zM620 495v-115h-115v115h115zM870 370v-115h-115v115h115zM745 370
v-115h-115v115h115zM495 370v-115h-115v115h115zM370 370v-115h-115v115h115zM245 370v-115h-115v115h115zM120 370v-115h-115v115h115zM620 370v-115h-115v115h115zM245 245v-115h-115v115h115zM120 245v-115h-115v115h115zM370 245v-115h-115v115h115zM870 120v-115h-115
v115h115zM745 120v-115h-115v115h115zM495 120v-115h-115v115h115zM370 120v-115h-115v115h115zM245 120v-115h-115v115h115zM620 120v-115h-115v115h115z" />
    <glyph glyph-name="eacute" unicode="&#xe9;" 
d="M620 1120v-115h-115v115h115zM745 1120v-115h-115v115h115zM745 995v-115h-115v115h115zM620 995v-115h-115v115h115zM620 870v-115h-115v115h115zM495 870v-115h-115v115h115zM745 620v-115h-115v115h115zM495 620v-115h-115v115h115zM370 620v-115h-115v115h115z
M245 620v-115h-115v115h115zM620 620v-115h-115v115h115zM870 495v-115h-115v115h115zM745 495v-115h-115v115h115zM245 495v-115h-115v115h115zM120 495v-115h-115v115h115zM370 495v-115h-115v115h115zM620 495v-115h-115v115h115zM870 370v-115h-115v115h115zM745 370
v-115h-115v115h115zM495 370v-115h-115v115h115zM370 370v-115h-115v115h115zM245 370v-115h-115v115h115zM120 370v-115h-115v115h115zM620 370v-115h-115v115h115zM245 245v-115h-115v115h115zM120 245v-115h-115v115h115zM370 245v-115h-115v115h115zM870 120v-115h-115
v115h115zM745 120v-115h-115v115h115zM495 120v-115h-115v115h115zM370 120v-115h-115v115h115zM245 120v-115h-115v115h115zM620 120v-115h-115v115h115z" />
    <glyph glyph-name="ecircumflex" unicode="&#xea;" 
d="M370 995v-115h-115v115h115zM620 995v-115h-115v115h115zM495 995v-115h-115v115h115zM620 870v-115h-115v115h115zM495 870v-115h-115v115h115zM245 870v-115h-115v115h115zM745 870v-115h-115v115h115zM745 620v-115h-115v115h115zM495 620v-115h-115v115h115zM370 620
v-115h-115v115h115zM245 620v-115h-115v115h115zM620 620v-115h-115v115h115zM870 495v-115h-115v115h115zM745 495v-115h-115v115h115zM245 495v-115h-115v115h115zM120 495v-115h-115v115h115zM370 495v-115h-115v115h115zM620 495v-115h-115v115h115zM870 370v-115h-115
v115h115zM745 370v-115h-115v115h115zM495 370v-115h-115v115h115zM370 370v-115h-115v115h115zM245 370v-115h-115v115h115zM120 370v-115h-115v115h115zM620 370v-115h-115v115h115zM245 245v-115h-115v115h115zM120 245v-115h-115v115h115zM370 245v-115h-115v115h115z
M870 120v-115h-115v115h115zM745 120v-115h-115v115h115zM495 120v-115h-115v115h115zM370 120v-115h-115v115h115zM245 120v-115h-115v115h115zM620 120v-115h-115v115h115z" />
    <glyph glyph-name="edieresis" unicode="&#xeb;" 
d="M620 995v-115h-115v115h115zM370 995v-115h-115v115h115zM245 995v-115h-115v115h115zM745 995v-115h-115v115h115zM370 870v-115h-115v115h115zM245 870v-115h-115v115h115zM620 870v-115h-115v115h115zM745 870v-115h-115v115h115zM745 620v-115h-115v115h115zM495 620
v-115h-115v115h115zM370 620v-115h-115v115h115zM245 620v-115h-115v115h115zM620 620v-115h-115v115h115zM870 495v-115h-115v115h115zM745 495v-115h-115v115h115zM245 495v-115h-115v115h115zM120 495v-115h-115v115h115zM370 495v-115h-115v115h115zM620 495v-115h-115
v115h115zM870 370v-115h-115v115h115zM745 370v-115h-115v115h115zM495 370v-115h-115v115h115zM370 370v-115h-115v115h115zM245 370v-115h-115v115h115zM120 370v-115h-115v115h115zM620 370v-115h-115v115h115zM245 245v-115h-115v115h115zM120 245v-115h-115v115h115z
M370 245v-115h-115v115h115zM870 120v-115h-115v115h115zM745 120v-115h-115v115h115zM495 120v-115h-115v115h115zM370 120v-115h-115v115h115zM245 120v-115h-115v115h115zM620 120v-115h-115v115h115z" />
    <glyph glyph-name="igrave" unicode="&#xec;" horiz-adv-x="500" 
d="M120 1120v-115h-115v115h115zM-5 1120v-115h-115v115h115zM-5 995v-115h-115v115h115zM120 995v-115h-115v115h115zM245 870v-115h-115v115h115zM120 870v-115h-115v115h115zM245 620v-115h-115v115h115zM120 620v-115h-115v115h115zM370 620v-115h-115v115h115zM245 495
v-115h-115v115h115zM120 495v-115h-115v115h115zM370 495v-115h-115v115h115zM245 370v-115h-115v115h115zM120 370v-115h-115v115h115zM370 370v-115h-115v115h115zM245 245v-115h-115v115h115zM120 245v-115h-115v115h115zM370 245v-115h-115v115h115zM245 120v-115h-115
v115h115zM120 120v-115h-115v115h115zM370 120v-115h-115v115h115z" />
    <glyph glyph-name="iacute" unicode="&#xed;" horiz-adv-x="500" 
d="M370 1120v-115h-115v115h115zM495 1120v-115h-115v115h115zM495 995v-115h-115v115h115zM370 995v-115h-115v115h115zM370 870v-115h-115v115h115zM245 870v-115h-115v115h115zM245 620v-115h-115v115h115zM120 620v-115h-115v115h115zM370 620v-115h-115v115h115z
M245 495v-115h-115v115h115zM120 495v-115h-115v115h115zM370 495v-115h-115v115h115zM245 370v-115h-115v115h115zM120 370v-115h-115v115h115zM370 370v-115h-115v115h115zM245 245v-115h-115v115h115zM120 245v-115h-115v115h115zM370 245v-115h-115v115h115zM245 120
v-115h-115v115h115zM120 120v-115h-115v115h115zM370 120v-115h-115v115h115z" />
    <glyph glyph-name="icircumflex" unicode="&#xee;" horiz-adv-x="500" 
d="M120 995v-115h-115v115h115zM370 995v-115h-115v115h115zM245 995v-115h-115v115h115zM370 870v-115h-115v115h115zM245 870v-115h-115v115h115zM-5 870v-115h-115v115h115zM495 870v-115h-115v115h115zM245 620v-115h-115v115h115zM120 620v-115h-115v115h115zM370 620
v-115h-115v115h115zM245 495v-115h-115v115h115zM120 495v-115h-115v115h115zM370 495v-115h-115v115h115zM245 370v-115h-115v115h115zM120 370v-115h-115v115h115zM370 370v-115h-115v115h115zM245 245v-115h-115v115h115zM120 245v-115h-115v115h115zM370 245v-115h-115
v115h115zM245 120v-115h-115v115h115zM120 120v-115h-115v115h115zM370 120v-115h-115v115h115z" />
    <glyph glyph-name="idieresis" unicode="&#xef;" horiz-adv-x="500" 
d="M370 995v-115h-115v115h115zM120 995v-115h-115v115h115zM-5 995v-115h-115v115h115zM495 995v-115h-115v115h115zM120 870v-115h-115v115h115zM-5 870v-115h-115v115h115zM370 870v-115h-115v115h115zM495 870v-115h-115v115h115zM245 620v-115h-115v115h115zM120 620
v-115h-115v115h115zM370 620v-115h-115v115h115zM245 495v-115h-115v115h115zM120 495v-115h-115v115h115zM370 495v-115h-115v115h115zM245 370v-115h-115v115h115zM120 370v-115h-115v115h115zM370 370v-115h-115v115h115zM245 245v-115h-115v115h115zM120 245v-115h-115
v115h115zM370 245v-115h-115v115h115zM245 120v-115h-115v115h115zM120 120v-115h-115v115h115zM370 120v-115h-115v115h115z" />
    <glyph glyph-name="eth" unicode="&#xf0;" 
d="M370 1120v-115h-115v115h115zM370 995v-115h-115v115h115zM245 995v-115h-115v115h115zM495 995v-115h-115v115h115zM870 995v-115h-115v115h115zM745 995v-115h-115v115h115zM495 870v-115h-115v115h115zM370 870v-115h-115v115h115zM620 870v-115h-115v115h115z
M620 745v-115h-115v115h115zM495 745v-115h-115v115h115zM245 745v-115h-115v115h115zM745 745v-115h-115v115h115zM120 745v-115h-115v115h115zM745 620v-115h-115v115h115zM620 620v-115h-115v115h115zM870 620v-115h-115v115h115zM745 495v-115h-115v115h115zM620 495
v-115h-115v115h115zM495 495v-115h-115v115h115zM370 495v-115h-115v115h115zM245 495v-115h-115v115h115zM870 495v-115h-115v115h115zM745 370v-115h-115v115h115zM620 370v-115h-115v115h115zM245 370v-115h-115v115h115zM120 370v-115h-115v115h115zM870 370v-115h-115
v115h115zM370 370v-115h-115v115h115zM745 245v-115h-115v115h115zM620 245v-115h-115v115h115zM245 245v-115h-115v115h115zM120 245v-115h-115v115h115zM870 245v-115h-115v115h115zM370 245v-115h-115v115h115zM620 120v-115h-115v115h115zM495 120v-115h-115v115h115z
M370 120v-115h-115v115h115zM245 120v-115h-115v115h115zM745 120v-115h-115v115h115z" />
    <glyph glyph-name="ntilde" unicode="&#xf1;" 
d="M620 995v-115h-115v115h115zM495 995v-115h-115v115h115zM370 995v-115h-115v115h115zM870 995v-115h-115v115h115zM745 870v-115h-115v115h115zM620 870v-115h-115v115h115zM495 870v-115h-115v115h115zM245 870v-115h-115v115h115zM620 620v-115h-115v115h115zM370 620
v-115h-115v115h115zM245 620v-115h-115v115h115zM120 620v-115h-115v115h115zM745 620v-115h-115v115h115zM495 620v-115h-115v115h115zM745 495v-115h-115v115h115zM620 495v-115h-115v115h115zM245 495v-115h-115v115h115zM120 495v-115h-115v115h115zM870 495v-115h-115
v115h115zM370 495v-115h-115v115h115zM745 370v-115h-115v115h115zM620 370v-115h-115v115h115zM245 370v-115h-115v115h115zM120 370v-115h-115v115h115zM870 370v-115h-115v115h115zM370 370v-115h-115v115h115zM745 245v-115h-115v115h115zM620 245v-115h-115v115h115z
M245 245v-115h-115v115h115zM120 245v-115h-115v115h115zM870 245v-115h-115v115h115zM370 245v-115h-115v115h115zM745 120v-115h-115v115h115zM620 120v-115h-115v115h115zM245 120v-115h-115v115h115zM120 120v-115h-115v115h115zM870 120v-115h-115v115h115zM370 120
v-115h-115v115h115z" />
    <glyph glyph-name="ograve" unicode="&#xf2;" 
d="M370 1120v-115h-115v115h115zM245 1120v-115h-115v115h115zM245 995v-115h-115v115h115zM370 995v-115h-115v115h115zM495 870v-115h-115v115h115zM370 870v-115h-115v115h115zM620 620v-115h-115v115h115zM370 620v-115h-115v115h115zM245 620v-115h-115v115h115z
M495 620v-115h-115v115h115zM745 620v-115h-115v115h115zM745 495v-115h-115v115h115zM620 495v-115h-115v115h115zM245 495v-115h-115v115h115zM120 495v-115h-115v115h115zM370 495v-115h-115v115h115zM870 495v-115h-115v115h115zM745 370v-115h-115v115h115zM620 370
v-115h-115v115h115zM245 370v-115h-115v115h115zM120 370v-115h-115v115h115zM370 370v-115h-115v115h115zM870 370v-115h-115v115h115zM745 245v-115h-115v115h115zM620 245v-115h-115v115h115zM245 245v-115h-115v115h115zM120 245v-115h-115v115h115zM370 245v-115h-115
v115h115zM870 245v-115h-115v115h115zM620 120v-115h-115v115h115zM370 120v-115h-115v115h115zM245 120v-115h-115v115h115zM495 120v-115h-115v115h115zM745 120v-115h-115v115h115z" />
    <glyph glyph-name="oacute" unicode="&#xf3;" horiz-adv-x="999" 
d="M495 1120v-115h-115v115h115zM620 1120v-115h-115v115h115zM620 995v-115h-115v115h115zM495 995v-115h-115v115h115zM495 870v-115h-115v115h115zM370 870v-115h-115v115h115zM620 620v-115h-115v115h115zM370 620v-115h-115v115h115zM245 620v-115h-115v115h115z
M495 620v-115h-115v115h115zM745 620v-115h-115v115h115zM745 495v-115h-115v115h115zM620 495v-115h-115v115h115zM245 495v-115h-115v115h115zM120 495v-115h-115v115h115zM370 495v-115h-115v115h115zM870 495v-115h-115v115h115zM745 370v-115h-115v115h115zM620 370
v-115h-115v115h115zM245 370v-115h-115v115h115zM120 370v-115h-115v115h115zM370 370v-115h-115v115h115zM870 370v-115h-115v115h115zM745 245v-115h-115v115h115zM620 245v-115h-115v115h115zM245 245v-115h-115v115h115zM120 245v-115h-115v115h115zM370 245v-115h-115
v115h115zM870 245v-115h-115v115h115zM620 120v-115h-115v115h115zM370 120v-115h-115v115h115zM245 120v-115h-115v115h115zM495 120v-115h-115v115h115zM745 120v-115h-115v115h115z" />
    <glyph glyph-name="ocircumflex" unicode="&#xf4;" 
d="M370 995v-115h-115v115h115zM620 995v-115h-115v115h115zM495 995v-115h-115v115h115zM620 870v-115h-115v115h115zM495 870v-115h-115v115h115zM245 870v-115h-115v115h115zM745 870v-115h-115v115h115zM620 620v-115h-115v115h115zM370 620v-115h-115v115h115zM245 620
v-115h-115v115h115zM495 620v-115h-115v115h115zM745 620v-115h-115v115h115zM745 495v-115h-115v115h115zM620 495v-115h-115v115h115zM245 495v-115h-115v115h115zM120 495v-115h-115v115h115zM370 495v-115h-115v115h115zM870 495v-115h-115v115h115zM745 370v-115h-115
v115h115zM620 370v-115h-115v115h115zM245 370v-115h-115v115h115zM120 370v-115h-115v115h115zM370 370v-115h-115v115h115zM870 370v-115h-115v115h115zM745 245v-115h-115v115h115zM620 245v-115h-115v115h115zM245 245v-115h-115v115h115zM120 245v-115h-115v115h115z
M370 245v-115h-115v115h115zM870 245v-115h-115v115h115zM620 120v-115h-115v115h115zM370 120v-115h-115v115h115zM245 120v-115h-115v115h115zM495 120v-115h-115v115h115zM745 120v-115h-115v115h115z" />
    <glyph glyph-name="otilde" unicode="&#xf5;" 
d="M495 995v-115h-115v115h115zM370 995v-115h-115v115h115zM745 995v-115h-115v115h115zM620 870v-115h-115v115h115zM495 870v-115h-115v115h115zM245 870v-115h-115v115h115zM620 620v-115h-115v115h115zM370 620v-115h-115v115h115zM245 620v-115h-115v115h115zM495 620
v-115h-115v115h115zM745 620v-115h-115v115h115zM745 495v-115h-115v115h115zM620 495v-115h-115v115h115zM245 495v-115h-115v115h115zM120 495v-115h-115v115h115zM370 495v-115h-115v115h115zM870 495v-115h-115v115h115zM745 370v-115h-115v115h115zM620 370v-115h-115
v115h115zM245 370v-115h-115v115h115zM120 370v-115h-115v115h115zM370 370v-115h-115v115h115zM870 370v-115h-115v115h115zM745 245v-115h-115v115h115zM620 245v-115h-115v115h115zM245 245v-115h-115v115h115zM120 245v-115h-115v115h115zM370 245v-115h-115v115h115z
M870 245v-115h-115v115h115zM620 120v-115h-115v115h115zM370 120v-115h-115v115h115zM245 120v-115h-115v115h115zM495 120v-115h-115v115h115zM745 120v-115h-115v115h115z" />
    <glyph glyph-name="odieresis" unicode="&#xf6;" 
d="M620 995v-115h-115v115h115zM245 995v-115h-115v115h115zM370 995v-115h-115v115h115zM745 995v-115h-115v115h115zM245 870v-115h-115v115h115zM370 870v-115h-115v115h115zM620 870v-115h-115v115h115zM745 870v-115h-115v115h115zM620 620v-115h-115v115h115zM370 620
v-115h-115v115h115zM245 620v-115h-115v115h115zM495 620v-115h-115v115h115zM745 620v-115h-115v115h115zM745 495v-115h-115v115h115zM620 495v-115h-115v115h115zM245 495v-115h-115v115h115zM120 495v-115h-115v115h115zM370 495v-115h-115v115h115zM870 495v-115h-115
v115h115zM745 370v-115h-115v115h115zM620 370v-115h-115v115h115zM245 370v-115h-115v115h115zM120 370v-115h-115v115h115zM370 370v-115h-115v115h115zM870 370v-115h-115v115h115zM745 245v-115h-115v115h115zM620 245v-115h-115v115h115zM245 245v-115h-115v115h115z
M120 245v-115h-115v115h115zM370 245v-115h-115v115h115zM870 245v-115h-115v115h115zM620 120v-115h-115v115h115zM370 120v-115h-115v115h115zM245 120v-115h-115v115h115zM495 120v-115h-115v115h115zM745 120v-115h-115v115h115z" />
    <glyph glyph-name="divide" unicode="&#xf7;" horiz-adv-x="875" 
d="M370 745v-115h-115v115h115zM495 745v-115h-115v115h115zM245 495v-115h-115v115h115zM370 495v-115h-115v115h115zM495 495v-115h-115v115h115zM620 495v-115h-115v115h115zM745 495v-115h-115v115h115zM120 495v-115h-115v115h115zM370 245v-115h-115v115h115zM495 245
v-115h-115v115h115z" />
    <glyph glyph-name="oslash" unicode="&#xf8;" 
d="M870 745v-115h-115v115h115zM745 745v-115h-115v115h115zM620 620v-115h-115v115h115zM495 620v-115h-115v115h115zM370 620v-115h-115v115h115zM245 620v-115h-115v115h115zM745 620v-115h-115v115h115zM870 495v-115h-115v115h115zM745 495v-115h-115v115h115zM620 495
v-115h-115v115h115zM370 495v-115h-115v115h115zM245 495v-115h-115v115h115zM120 495v-115h-115v115h115zM870 370v-115h-115v115h115zM745 370v-115h-115v115h115zM370 370v-115h-115v115h115zM245 370v-115h-115v115h115zM120 370v-115h-115v115h115zM620 370v-115h-115
v115h115zM870 245v-115h-115v115h115zM745 245v-115h-115v115h115zM370 245v-115h-115v115h115zM245 245v-115h-115v115h115zM120 245v-115h-115v115h115zM620 245v-115h-115v115h115zM745 120v-115h-115v115h115zM620 120v-115h-115v115h115zM495 120v-115h-115v115h115z
M370 120v-115h-115v115h115zM245 120v-115h-115v115h115zM120 -5v-115h-115v115h115zM245 -5v-115h-115v115h115z" />
    <glyph glyph-name="ugrave" unicode="&#xf9;" 
d="M495 1120v-115h-115v115h115zM370 1120v-115h-115v115h115zM370 995v-115h-115v115h115zM495 995v-115h-115v115h115zM620 870v-115h-115v115h115zM495 870v-115h-115v115h115zM745 620v-115h-115v115h115zM620 620v-115h-115v115h115zM245 620v-115h-115v115h115z
M120 620v-115h-115v115h115zM370 620v-115h-115v115h115zM870 620v-115h-115v115h115zM745 495v-115h-115v115h115zM620 495v-115h-115v115h115zM245 495v-115h-115v115h115zM120 495v-115h-115v115h115zM370 495v-115h-115v115h115zM870 495v-115h-115v115h115zM745 370
v-115h-115v115h115zM620 370v-115h-115v115h115zM245 370v-115h-115v115h115zM120 370v-115h-115v115h115zM370 370v-115h-115v115h115zM870 370v-115h-115v115h115zM745 245v-115h-115v115h115zM620 245v-115h-115v115h115zM245 245v-115h-115v115h115zM120 245v-115h-115
v115h115zM370 245v-115h-115v115h115zM870 245v-115h-115v115h115zM745 120v-115h-115v115h115zM495 120v-115h-115v115h115zM370 120v-115h-115v115h115zM245 120v-115h-115v115h115zM870 120v-115h-115v115h115zM620 120v-115h-115v115h115z" />
    <glyph glyph-name="uacute" unicode="&#xfa;" 
d="M620 1120v-115h-115v115h115zM745 1120v-115h-115v115h115zM745 995v-115h-115v115h115zM620 995v-115h-115v115h115zM620 870v-115h-115v115h115zM495 870v-115h-115v115h115zM745 620v-115h-115v115h115zM620 620v-115h-115v115h115zM245 620v-115h-115v115h115z
M120 620v-115h-115v115h115zM370 620v-115h-115v115h115zM870 620v-115h-115v115h115zM745 495v-115h-115v115h115zM620 495v-115h-115v115h115zM245 495v-115h-115v115h115zM120 495v-115h-115v115h115zM370 495v-115h-115v115h115zM870 495v-115h-115v115h115zM745 370
v-115h-115v115h115zM620 370v-115h-115v115h115zM245 370v-115h-115v115h115zM120 370v-115h-115v115h115zM370 370v-115h-115v115h115zM870 370v-115h-115v115h115zM745 245v-115h-115v115h115zM620 245v-115h-115v115h115zM245 245v-115h-115v115h115zM120 245v-115h-115
v115h115zM370 245v-115h-115v115h115zM870 245v-115h-115v115h115zM745 120v-115h-115v115h115zM495 120v-115h-115v115h115zM370 120v-115h-115v115h115zM245 120v-115h-115v115h115zM870 120v-115h-115v115h115zM620 120v-115h-115v115h115z" />
    <glyph glyph-name="ucircumflex" unicode="&#xfb;" 
d="M370 995v-115h-115v115h115zM620 995v-115h-115v115h115zM495 995v-115h-115v115h115zM620 870v-115h-115v115h115zM495 870v-115h-115v115h115zM245 870v-115h-115v115h115zM745 870v-115h-115v115h115zM745 620v-115h-115v115h115zM620 620v-115h-115v115h115zM245 620
v-115h-115v115h115zM120 620v-115h-115v115h115zM370 620v-115h-115v115h115zM870 620v-115h-115v115h115zM745 495v-115h-115v115h115zM620 495v-115h-115v115h115zM245 495v-115h-115v115h115zM120 495v-115h-115v115h115zM370 495v-115h-115v115h115zM870 495v-115h-115
v115h115zM745 370v-115h-115v115h115zM620 370v-115h-115v115h115zM245 370v-115h-115v115h115zM120 370v-115h-115v115h115zM370 370v-115h-115v115h115zM870 370v-115h-115v115h115zM745 245v-115h-115v115h115zM620 245v-115h-115v115h115zM245 245v-115h-115v115h115z
M120 245v-115h-115v115h115zM370 245v-115h-115v115h115zM870 245v-115h-115v115h115zM745 120v-115h-115v115h115zM495 120v-115h-115v115h115zM370 120v-115h-115v115h115zM245 120v-115h-115v115h115zM870 120v-115h-115v115h115zM620 120v-115h-115v115h115z" />
    <glyph glyph-name="udieresis" unicode="&#xfc;" 
d="M620 995v-115h-115v115h115zM370 995v-115h-115v115h115zM245 995v-115h-115v115h115zM745 995v-115h-115v115h115zM370 870v-115h-115v115h115zM245 870v-115h-115v115h115zM620 870v-115h-115v115h115zM745 870v-115h-115v115h115zM745 620v-115h-115v115h115zM620 620
v-115h-115v115h115zM245 620v-115h-115v115h115zM120 620v-115h-115v115h115zM370 620v-115h-115v115h115zM870 620v-115h-115v115h115zM745 495v-115h-115v115h115zM620 495v-115h-115v115h115zM245 495v-115h-115v115h115zM120 495v-115h-115v115h115zM370 495v-115h-115
v115h115zM870 495v-115h-115v115h115zM745 370v-115h-115v115h115zM620 370v-115h-115v115h115zM245 370v-115h-115v115h115zM120 370v-115h-115v115h115zM370 370v-115h-115v115h115zM870 370v-115h-115v115h115zM745 245v-115h-115v115h115zM620 245v-115h-115v115h115z
M245 245v-115h-115v115h115zM120 245v-115h-115v115h115zM370 245v-115h-115v115h115zM870 245v-115h-115v115h115zM745 120v-115h-115v115h115zM495 120v-115h-115v115h115zM370 120v-115h-115v115h115zM245 120v-115h-115v115h115zM870 120v-115h-115v115h115zM620 120
v-115h-115v115h115z" />
    <glyph glyph-name="yacute" unicode="&#xfd;" horiz-adv-x="875" 
d="M495 1120v-115h-115v115h115zM620 1120v-115h-115v115h115zM620 995v-115h-115v115h115zM495 995v-115h-115v115h115zM495 870v-115h-115v115h115zM370 870v-115h-115v115h115zM245 620v-115h-115v115h115zM120 620v-115h-115v115h115zM370 620v-115h-115v115h115z
M620 620v-115h-115v115h115zM745 620v-115h-115v115h115zM745 495v-115h-115v115h115zM245 495v-115h-115v115h115zM120 495v-115h-115v115h115zM370 495v-115h-115v115h115zM620 495v-115h-115v115h115zM745 370v-115h-115v115h115zM245 370v-115h-115v115h115zM120 370
v-115h-115v115h115zM370 370v-115h-115v115h115zM620 370v-115h-115v115h115zM370 245v-115h-115v115h115zM245 245v-115h-115v115h115zM745 245v-115h-115v115h115zM620 245v-115h-115v115h115zM495 245v-115h-115v115h115zM495 120v-115h-115v115h115zM620 120v-115h-115
v115h115zM370 -5v-115h-115v115h115zM120 -5v-115h-115v115h115zM245 -5v-115h-115v115h115zM495 -5v-115h-115v115h115zM245 -130v-115h-115v115h115zM120 -130v-115h-115v115h115zM370 -130v-115h-115v115h115z" />
    <glyph glyph-name="thorn" unicode="&#xfe;" 
d="M245 870v-115h-115v115h115zM120 870v-115h-115v115h115zM370 870v-115h-115v115h115zM370 745v-115h-115v115h115zM245 745v-115h-115v115h115zM120 745v-115h-115v115h115zM745 620v-115h-115v115h115zM495 620v-115h-115v115h115zM370 620v-115h-115v115h115zM245 620
v-115h-115v115h115zM120 620v-115h-115v115h115zM620 620v-115h-115v115h115zM870 495v-115h-115v115h115zM745 495v-115h-115v115h115zM245 495v-115h-115v115h115zM120 495v-115h-115v115h115zM370 495v-115h-115v115h115zM620 495v-115h-115v115h115zM870 370v-115h-115
v115h115zM745 370v-115h-115v115h115zM245 370v-115h-115v115h115zM120 370v-115h-115v115h115zM370 370v-115h-115v115h115zM620 370v-115h-115v115h115zM870 245v-115h-115v115h115zM745 245v-115h-115v115h115zM245 245v-115h-115v115h115zM120 245v-115h-115v115h115z
M370 245v-115h-115v115h115zM620 245v-115h-115v115h115zM745 120v-115h-115v115h115zM495 120v-115h-115v115h115zM370 120v-115h-115v115h115zM245 120v-115h-115v115h115zM120 120v-115h-115v115h115zM620 120v-115h-115v115h115zM245 -5v-115h-115v115h115zM120 -5v-115
h-115v115h115zM370 -5v-115h-115v115h115zM245 -130v-115h-115v115h115zM120 -130v-115h-115v115h115zM370 -130v-115h-115v115h115z" />
    <glyph glyph-name="ydieresis" unicode="&#xff;" horiz-adv-x="875" 
d="M255 880v115h115v-115h-115zM505 880v115h115v-115h-115zM130 880v115h115v-115h-115zM630 880v115h115v-115h-115zM255 755v115h115v-115h-115zM130 755v115h115v-115h-115zM505 755v115h115v-115h-115zM630 755v115h115v-115h-115zM745 620v-115h-115v115h115zM245 620
v-115h-115v115h115zM120 620v-115h-115v115h115zM370 620v-115h-115v115h115zM620 620v-115h-115v115h115zM745 495v-115h-115v115h115zM245 495v-115h-115v115h115zM120 495v-115h-115v115h115zM370 495v-115h-115v115h115zM620 495v-115h-115v115h115zM745 370v-115h-115
v115h115zM245 370v-115h-115v115h115zM120 370v-115h-115v115h115zM370 370v-115h-115v115h115zM620 370v-115h-115v115h115zM370 245v-115h-115v115h115zM245 245v-115h-115v115h115zM745 245v-115h-115v115h115zM620 245v-115h-115v115h115zM495 245v-115h-115v115h115z
M495 120v-115h-115v115h115zM620 120v-115h-115v115h115zM370 -5v-115h-115v115h115zM120 -5v-115h-115v115h115zM245 -5v-115h-115v115h115zM495 -5v-115h-115v115h115zM245 -130v-115h-115v115h115zM120 -130v-115h-115v115h115zM370 -130v-115h-115v115h115z" />
    <glyph glyph-name="Amacron" unicode="&#x100;" 
d="M495 1120v-115h-115v115h115zM370 1120v-115h-115v115h115zM245 1120v-115h-115v115h115zM620 1120v-115h-115v115h115zM745 1120v-115h-115v115h115zM745 870v-115h-115v115h115zM620 870v-115h-115v115h115zM370 870v-115h-115v115h115zM245 870v-115h-115v115h115z
M495 870v-115h-115v115h115zM745 745v-115h-115v115h115zM245 745v-115h-115v115h115zM620 745v-115h-115v115h115zM120 745v-115h-115v115h115zM870 745v-115h-115v115h115zM870 620v-115h-115v115h115zM745 620v-115h-115v115h115zM245 620v-115h-115v115h115zM120 620
v-115h-115v115h115zM620 620v-115h-115v115h115zM870 495v-115h-115v115h115zM745 495v-115h-115v115h115zM245 495v-115h-115v115h115zM120 495v-115h-115v115h115zM620 495v-115h-115v115h115zM870 370v-115h-115v115h115zM745 370v-115h-115v115h115zM620 370v-115h-115
v115h115zM370 370v-115h-115v115h115zM245 370v-115h-115v115h115zM120 370v-115h-115v115h115zM495 370v-115h-115v115h115zM870 245v-115h-115v115h115zM745 245v-115h-115v115h115zM245 245v-115h-115v115h115zM120 245v-115h-115v115h115zM620 245v-115h-115v115h115z
M870 120v-115h-115v115h115zM745 120v-115h-115v115h115zM245 120v-115h-115v115h115zM120 120v-115h-115v115h115zM620 120v-115h-115v115h115z" />
    <glyph glyph-name="amacron" unicode="&#x101;" 
d="M620 870v-115h-115v115h115zM495 870v-115h-115v115h115zM370 870v-115h-115v115h115zM745 870v-115h-115v115h115zM745 620v-115h-115v115h115zM620 620v-115h-115v115h115zM495 620v-115h-115v115h115zM370 620v-115h-115v115h115zM245 620v-115h-115v115h115zM745 495
v-115h-115v115h115zM620 495v-115h-115v115h115zM870 495v-115h-115v115h115zM870 370v-115h-115v115h115zM745 370v-115h-115v115h115zM620 370v-115h-115v115h115zM495 370v-115h-115v115h115zM370 370v-115h-115v115h115zM245 370v-115h-115v115h115zM870 245v-115h-115
v115h115zM745 245v-115h-115v115h115zM245 245v-115h-115v115h115zM620 245v-115h-115v115h115zM120 245v-115h-115v115h115zM370 245v-115h-115v115h115zM870 120v-115h-115v115h115zM745 120v-115h-115v115h115zM620 120v-115h-115v115h115zM495 120v-115h-115v115h115z
M370 120v-115h-115v115h115zM245 120v-115h-115v115h115z" />
    <glyph glyph-name="Abreve" unicode="&#x102;" 
d="M620 1245v-115h-115v115h115zM245 1245v-115h-115v115h115zM120 1245v-115h-115v115h115zM495 1245v-115h-115v115h115zM745 1245v-115h-115v115h115zM620 1120v-115h-115v115h115zM495 1120v-115h-115v115h115zM370 1120v-115h-115v115h115zM245 1120v-115h-115v115h115
zM745 870v-115h-115v115h115zM620 870v-115h-115v115h115zM370 870v-115h-115v115h115zM245 870v-115h-115v115h115zM495 870v-115h-115v115h115zM745 745v-115h-115v115h115zM245 745v-115h-115v115h115zM620 745v-115h-115v115h115zM120 745v-115h-115v115h115zM870 745
v-115h-115v115h115zM870 620v-115h-115v115h115zM745 620v-115h-115v115h115zM245 620v-115h-115v115h115zM120 620v-115h-115v115h115zM620 620v-115h-115v115h115zM870 495v-115h-115v115h115zM745 495v-115h-115v115h115zM245 495v-115h-115v115h115zM120 495v-115h-115
v115h115zM620 495v-115h-115v115h115zM870 370v-115h-115v115h115zM745 370v-115h-115v115h115zM620 370v-115h-115v115h115zM370 370v-115h-115v115h115zM245 370v-115h-115v115h115zM120 370v-115h-115v115h115zM495 370v-115h-115v115h115zM870 245v-115h-115v115h115z
M745 245v-115h-115v115h115zM245 245v-115h-115v115h115zM120 245v-115h-115v115h115zM620 245v-115h-115v115h115zM870 120v-115h-115v115h115zM745 120v-115h-115v115h115zM245 120v-115h-115v115h115zM120 120v-115h-115v115h115zM620 120v-115h-115v115h115z" />
    <glyph glyph-name="abreve" unicode="&#x103;" 
d="M620 995v-115h-115v115h115zM245 995v-115h-115v115h115zM120 995v-115h-115v115h115zM495 995v-115h-115v115h115zM745 995v-115h-115v115h115zM620 870v-115h-115v115h115zM495 870v-115h-115v115h115zM370 870v-115h-115v115h115zM245 870v-115h-115v115h115zM745 620
v-115h-115v115h115zM620 620v-115h-115v115h115zM495 620v-115h-115v115h115zM370 620v-115h-115v115h115zM245 620v-115h-115v115h115zM745 495v-115h-115v115h115zM620 495v-115h-115v115h115zM870 495v-115h-115v115h115zM870 370v-115h-115v115h115zM745 370v-115h-115
v115h115zM620 370v-115h-115v115h115zM495 370v-115h-115v115h115zM370 370v-115h-115v115h115zM245 370v-115h-115v115h115zM870 245v-115h-115v115h115zM745 245v-115h-115v115h115zM245 245v-115h-115v115h115zM620 245v-115h-115v115h115zM120 245v-115h-115v115h115z
M370 245v-115h-115v115h115zM870 120v-115h-115v115h115zM745 120v-115h-115v115h115zM620 120v-115h-115v115h115zM495 120v-115h-115v115h115zM370 120v-115h-115v115h115zM245 120v-115h-115v115h115z" />
    <glyph glyph-name="Aogonek" unicode="&#x104;" 
d="M745 870v-115h-115v115h115zM620 870v-115h-115v115h115zM370 870v-115h-115v115h115zM245 870v-115h-115v115h115zM495 870v-115h-115v115h115zM745 745v-115h-115v115h115zM245 745v-115h-115v115h115zM620 745v-115h-115v115h115zM120 745v-115h-115v115h115zM870 745
v-115h-115v115h115zM870 620v-115h-115v115h115zM745 620v-115h-115v115h115zM245 620v-115h-115v115h115zM120 620v-115h-115v115h115zM620 620v-115h-115v115h115zM870 495v-115h-115v115h115zM745 495v-115h-115v115h115zM245 495v-115h-115v115h115zM120 495v-115h-115
v115h115zM620 495v-115h-115v115h115zM870 370v-115h-115v115h115zM745 370v-115h-115v115h115zM620 370v-115h-115v115h115zM370 370v-115h-115v115h115zM245 370v-115h-115v115h115zM120 370v-115h-115v115h115zM495 370v-115h-115v115h115zM870 245v-115h-115v115h115z
M745 245v-115h-115v115h115zM245 245v-115h-115v115h115zM120 245v-115h-115v115h115zM620 245v-115h-115v115h115zM870 120v-115h-115v115h115zM745 120v-115h-115v115h115zM245 120v-115h-115v115h115zM120 120v-115h-115v115h115zM620 120v-115h-115v115h115zM745 -5
v-115h-115v115h115zM620 -5v-115h-115v115h115zM870 -130v-115h-115v115h115zM745 -130v-115h-115v115h115zM995 -130v-115h-115v115h115z" />
    <glyph glyph-name="aogonek" unicode="&#x105;" 
d="M745 620v-115h-115v115h115zM620 620v-115h-115v115h115zM495 620v-115h-115v115h115zM370 620v-115h-115v115h115zM245 620v-115h-115v115h115zM745 495v-115h-115v115h115zM620 495v-115h-115v115h115zM870 495v-115h-115v115h115zM870 370v-115h-115v115h115zM745 370
v-115h-115v115h115zM620 370v-115h-115v115h115zM495 370v-115h-115v115h115zM370 370v-115h-115v115h115zM245 370v-115h-115v115h115zM870 245v-115h-115v115h115zM745 245v-115h-115v115h115zM245 245v-115h-115v115h115zM620 245v-115h-115v115h115zM120 245v-115h-115
v115h115zM370 245v-115h-115v115h115zM870 120v-115h-115v115h115zM745 120v-115h-115v115h115zM620 120v-115h-115v115h115zM495 120v-115h-115v115h115zM370 120v-115h-115v115h115zM245 120v-115h-115v115h115zM620 -5v-115h-115v115h115zM495 -5v-115h-115v115h115z
M745 -130v-115h-115v115h115zM620 -130v-115h-115v115h115zM870 -130v-115h-115v115h115z" />
    <glyph glyph-name="Cacute" unicode="&#x106;" 
d="M630 1130v115h115v-115h-115zM505 1130v115h115v-115h-115zM380 1005v115h115v-115h-115zM505 1005v115h115v-115h-115zM495 870v-115h-115v115h115zM370 870v-115h-115v115h115zM245 870v-115h-115v115h115zM870 870v-115h-115v115h115zM620 870v-115h-115v115h115z
M745 870v-115h-115v115h115zM245 745v-115h-115v115h115zM120 745v-115h-115v115h115zM370 745v-115h-115v115h115zM870 745v-115h-115v115h115zM745 745v-115h-115v115h115zM245 620v-115h-115v115h115zM120 620v-115h-115v115h115zM370 620v-115h-115v115h115zM245 495
v-115h-115v115h115zM120 495v-115h-115v115h115zM370 495v-115h-115v115h115zM245 370v-115h-115v115h115zM120 370v-115h-115v115h115zM370 370v-115h-115v115h115zM245 245v-115h-115v115h115zM120 245v-115h-115v115h115zM370 245v-115h-115v115h115zM870 245v-115h-115
v115h115zM620 120v-115h-115v115h115zM495 120v-115h-115v115h115zM370 120v-115h-115v115h115zM245 120v-115h-115v115h115zM745 120v-115h-115v115h115z" />
    <glyph glyph-name="cacute" unicode="&#x107;" horiz-adv-x="875" 
d="M495 1120v-115h-115v115h115zM620 1120v-115h-115v115h115zM620 995v-115h-115v115h115zM495 995v-115h-115v115h115zM495 870v-115h-115v115h115zM370 870v-115h-115v115h115zM495 620v-115h-115v115h115zM370 620v-115h-115v115h115zM245 620v-115h-115v115h115z
M745 620v-115h-115v115h115zM620 620v-115h-115v115h115zM245 495v-115h-115v115h115zM120 495v-115h-115v115h115zM370 495v-115h-115v115h115zM245 370v-115h-115v115h115zM120 370v-115h-115v115h115zM370 370v-115h-115v115h115zM245 245v-115h-115v115h115zM120 245
v-115h-115v115h115zM370 245v-115h-115v115h115zM620 120v-115h-115v115h115zM495 120v-115h-115v115h115zM370 120v-115h-115v115h115zM245 120v-115h-115v115h115zM745 120v-115h-115v115h115z" />
    <glyph glyph-name="Ccircumflex" unicode="&#x108;" 
d="M370 1245v-115h-115v115h115zM620 1245v-115h-115v115h115zM495 1245v-115h-115v115h115zM620 1120v-115h-115v115h115zM495 1120v-115h-115v115h115zM245 1120v-115h-115v115h115zM745 1120v-115h-115v115h115zM495 870v-115h-115v115h115zM370 870v-115h-115v115h115z
M245 870v-115h-115v115h115zM870 870v-115h-115v115h115zM620 870v-115h-115v115h115zM745 870v-115h-115v115h115zM245 745v-115h-115v115h115zM120 745v-115h-115v115h115zM370 745v-115h-115v115h115zM870 745v-115h-115v115h115zM745 745v-115h-115v115h115zM245 620
v-115h-115v115h115zM120 620v-115h-115v115h115zM370 620v-115h-115v115h115zM245 495v-115h-115v115h115zM120 495v-115h-115v115h115zM370 495v-115h-115v115h115zM245 370v-115h-115v115h115zM120 370v-115h-115v115h115zM370 370v-115h-115v115h115zM245 245v-115h-115
v115h115zM120 245v-115h-115v115h115zM370 245v-115h-115v115h115zM870 245v-115h-115v115h115zM620 120v-115h-115v115h115zM495 120v-115h-115v115h115zM370 120v-115h-115v115h115zM245 120v-115h-115v115h115zM745 120v-115h-115v115h115z" />
    <glyph glyph-name="ccircumflex" unicode="&#x109;" horiz-adv-x="875" 
d="M370 995v-115h-115v115h115zM620 995v-115h-115v115h115zM495 995v-115h-115v115h115zM620 870v-115h-115v115h115zM495 870v-115h-115v115h115zM245 870v-115h-115v115h115zM745 870v-115h-115v115h115zM495 620v-115h-115v115h115zM370 620v-115h-115v115h115zM245 620
v-115h-115v115h115zM745 620v-115h-115v115h115zM620 620v-115h-115v115h115zM245 495v-115h-115v115h115zM120 495v-115h-115v115h115zM370 495v-115h-115v115h115zM245 370v-115h-115v115h115zM120 370v-115h-115v115h115zM370 370v-115h-115v115h115zM245 245v-115h-115
v115h115zM120 245v-115h-115v115h115zM370 245v-115h-115v115h115zM620 120v-115h-115v115h115zM495 120v-115h-115v115h115zM370 120v-115h-115v115h115zM245 120v-115h-115v115h115zM745 120v-115h-115v115h115z" />
    <glyph glyph-name="Cdotaccent" unicode="&#x10a;" 
d="M495 1245v-115h-115v115h115zM370 1245v-115h-115v115h115zM620 1245v-115h-115v115h115zM620 1120v-115h-115v115h115zM495 1120v-115h-115v115h115zM370 1120v-115h-115v115h115zM495 870v-115h-115v115h115zM370 870v-115h-115v115h115zM245 870v-115h-115v115h115z
M870 870v-115h-115v115h115zM620 870v-115h-115v115h115zM745 870v-115h-115v115h115zM245 745v-115h-115v115h115zM120 745v-115h-115v115h115zM370 745v-115h-115v115h115zM870 745v-115h-115v115h115zM745 745v-115h-115v115h115zM245 620v-115h-115v115h115zM120 620
v-115h-115v115h115zM370 620v-115h-115v115h115zM245 495v-115h-115v115h115zM120 495v-115h-115v115h115zM370 495v-115h-115v115h115zM245 370v-115h-115v115h115zM120 370v-115h-115v115h115zM370 370v-115h-115v115h115zM245 245v-115h-115v115h115zM120 245v-115h-115
v115h115zM370 245v-115h-115v115h115zM870 245v-115h-115v115h115zM620 120v-115h-115v115h115zM495 120v-115h-115v115h115zM370 120v-115h-115v115h115zM245 120v-115h-115v115h115zM745 120v-115h-115v115h115z" />
    <glyph glyph-name="cdotaccent" unicode="&#x10b;" horiz-adv-x="875" 
d="M495 995v-115h-115v115h115zM370 995v-115h-115v115h115zM620 995v-115h-115v115h115zM620 870v-115h-115v115h115zM495 870v-115h-115v115h115zM370 870v-115h-115v115h115zM495 620v-115h-115v115h115zM370 620v-115h-115v115h115zM245 620v-115h-115v115h115zM745 620
v-115h-115v115h115zM620 620v-115h-115v115h115zM245 495v-115h-115v115h115zM120 495v-115h-115v115h115zM370 495v-115h-115v115h115zM245 370v-115h-115v115h115zM120 370v-115h-115v115h115zM370 370v-115h-115v115h115zM245 245v-115h-115v115h115zM120 245v-115h-115
v115h115zM370 245v-115h-115v115h115zM620 120v-115h-115v115h115zM495 120v-115h-115v115h115zM370 120v-115h-115v115h115zM245 120v-115h-115v115h115zM745 120v-115h-115v115h115z" />
    <glyph glyph-name="Ccaron" unicode="&#x10c;" 
d="M495 1245v-115h-115v115h115zM370 1245v-115h-115v115h115zM245 1245v-115h-115v115h115zM745 1245v-115h-115v115h115zM620 1120v-115h-115v115h115zM495 1120v-115h-115v115h115zM370 1120v-115h-115v115h115zM495 870v-115h-115v115h115zM370 870v-115h-115v115h115z
M245 870v-115h-115v115h115zM870 870v-115h-115v115h115zM620 870v-115h-115v115h115zM745 870v-115h-115v115h115zM245 745v-115h-115v115h115zM120 745v-115h-115v115h115zM370 745v-115h-115v115h115zM870 745v-115h-115v115h115zM745 745v-115h-115v115h115zM245 620
v-115h-115v115h115zM120 620v-115h-115v115h115zM370 620v-115h-115v115h115zM245 495v-115h-115v115h115zM120 495v-115h-115v115h115zM370 495v-115h-115v115h115zM245 370v-115h-115v115h115zM120 370v-115h-115v115h115zM370 370v-115h-115v115h115zM245 245v-115h-115
v115h115zM120 245v-115h-115v115h115zM370 245v-115h-115v115h115zM870 245v-115h-115v115h115zM620 120v-115h-115v115h115zM495 120v-115h-115v115h115zM370 120v-115h-115v115h115zM245 120v-115h-115v115h115zM745 120v-115h-115v115h115z" />
    <glyph glyph-name="ccaron" unicode="&#x10d;" horiz-adv-x="875" 
d="M495 995v-115h-115v115h115zM370 995v-115h-115v115h115zM245 995v-115h-115v115h115zM745 995v-115h-115v115h115zM620 870v-115h-115v115h115zM495 870v-115h-115v115h115zM370 870v-115h-115v115h115zM495 620v-115h-115v115h115zM370 620v-115h-115v115h115zM245 620
v-115h-115v115h115zM745 620v-115h-115v115h115zM620 620v-115h-115v115h115zM245 495v-115h-115v115h115zM120 495v-115h-115v115h115zM370 495v-115h-115v115h115zM245 370v-115h-115v115h115zM120 370v-115h-115v115h115zM370 370v-115h-115v115h115zM245 245v-115h-115
v115h115zM120 245v-115h-115v115h115zM370 245v-115h-115v115h115zM620 120v-115h-115v115h115zM495 120v-115h-115v115h115zM370 120v-115h-115v115h115zM245 120v-115h-115v115h115zM745 120v-115h-115v115h115z" />
    <glyph glyph-name="Dcaron" unicode="&#x10e;" horiz-adv-x="1125" 
d="M370 1245v-115h-115v115h115zM245 1245v-115h-115v115h115zM120 1245v-115h-115v115h115zM620 1245v-115h-115v115h115zM495 1120v-115h-115v115h115zM370 1120v-115h-115v115h115zM245 1120v-115h-115v115h115zM370 870v-115h-115v115h115zM245 870v-115h-115v115h115z
M120 870v-115h-115v115h115zM620 870v-115h-115v115h115zM495 870v-115h-115v115h115zM745 870v-115h-115v115h115zM870 745v-115h-115v115h115zM745 745v-115h-115v115h115zM245 745v-115h-115v115h115zM120 745v-115h-115v115h115zM370 745v-115h-115v115h115zM620 745
v-115h-115v115h115zM995 620v-115h-115v115h115zM870 620v-115h-115v115h115zM245 620v-115h-115v115h115zM120 620v-115h-115v115h115zM370 620v-115h-115v115h115zM745 620v-115h-115v115h115zM995 495v-115h-115v115h115zM870 495v-115h-115v115h115zM245 495v-115h-115
v115h115zM120 495v-115h-115v115h115zM370 495v-115h-115v115h115zM745 495v-115h-115v115h115zM995 370v-115h-115v115h115zM870 370v-115h-115v115h115zM245 370v-115h-115v115h115zM120 370v-115h-115v115h115zM370 370v-115h-115v115h115zM745 370v-115h-115v115h115z
M870 245v-115h-115v115h115zM745 245v-115h-115v115h115zM245 245v-115h-115v115h115zM120 245v-115h-115v115h115zM370 245v-115h-115v115h115zM620 245v-115h-115v115h115zM745 120v-115h-115v115h115zM370 120v-115h-115v115h115zM245 120v-115h-115v115h115zM120 120
v-115h-115v115h115zM620 120v-115h-115v115h115zM495 120v-115h-115v115h115z" />
    <glyph glyph-name="dcaron" unicode="&#x10f;" horiz-adv-x="1250" 
d="M1120 995v-115h-115v115h115zM620 995v-115h-115v115h115zM870 995v-115h-115v115h115zM745 995v-115h-115v115h115zM1120 870v-115h-115v115h115zM745 870v-115h-115v115h115zM620 870v-115h-115v115h115zM870 870v-115h-115v115h115zM1120 745v-115h-115v115h115z
M745 745v-115h-115v115h115zM620 745v-115h-115v115h115zM870 745v-115h-115v115h115zM745 620v-115h-115v115h115zM620 620v-115h-115v115h115zM370 620v-115h-115v115h115zM245 620v-115h-115v115h115zM870 620v-115h-115v115h115zM495 620v-115h-115v115h115zM745 495
v-115h-115v115h115zM620 495v-115h-115v115h115zM120 495v-115h-115v115h115zM245 495v-115h-115v115h115zM870 495v-115h-115v115h115zM370 495v-115h-115v115h115zM745 370v-115h-115v115h115zM620 370v-115h-115v115h115zM120 370v-115h-115v115h115zM245 370v-115h-115
v115h115zM870 370v-115h-115v115h115zM370 370v-115h-115v115h115zM745 245v-115h-115v115h115zM620 245v-115h-115v115h115zM120 245v-115h-115v115h115zM245 245v-115h-115v115h115zM870 245v-115h-115v115h115zM370 245v-115h-115v115h115zM745 120v-115h-115v115h115z
M620 120v-115h-115v115h115zM370 120v-115h-115v115h115zM245 120v-115h-115v115h115zM870 120v-115h-115v115h115zM495 120v-115h-115v115h115z" />
    <glyph glyph-name="Dcroat" unicode="&#x110;" horiz-adv-x="1250" 
d="M495 870v-115h-115v115h115zM370 870v-115h-115v115h115zM245 870v-115h-115v115h115zM745 870v-115h-115v115h115zM620 870v-115h-115v115h115zM870 870v-115h-115v115h115zM995 745v-115h-115v115h115zM870 745v-115h-115v115h115zM370 745v-115h-115v115h115zM245 745
v-115h-115v115h115zM495 745v-115h-115v115h115zM745 745v-115h-115v115h115zM1120 620v-115h-115v115h115zM995 620v-115h-115v115h115zM370 620v-115h-115v115h115zM245 620v-115h-115v115h115zM495 620v-115h-115v115h115zM870 620v-115h-115v115h115zM1120 495v-115
h-115v115h115zM995 495v-115h-115v115h115zM370 495v-115h-115v115h115zM245 495v-115h-115v115h115zM495 495v-115h-115v115h115zM870 495v-115h-115v115h115zM620 495v-115h-115v115h115zM120 495v-115h-115v115h115zM1120 370v-115h-115v115h115zM995 370v-115h-115v115
h115zM370 370v-115h-115v115h115zM245 370v-115h-115v115h115zM495 370v-115h-115v115h115zM870 370v-115h-115v115h115zM995 245v-115h-115v115h115zM870 245v-115h-115v115h115zM370 245v-115h-115v115h115zM245 245v-115h-115v115h115zM495 245v-115h-115v115h115z
M745 245v-115h-115v115h115zM870 120v-115h-115v115h115zM495 120v-115h-115v115h115zM370 120v-115h-115v115h115zM245 120v-115h-115v115h115zM745 120v-115h-115v115h115zM620 120v-115h-115v115h115z" />
    <glyph glyph-name="dcroat" unicode="&#x111;" 
d="M620 995v-115h-115v115h115zM870 995v-115h-115v115h115zM745 995v-115h-115v115h115zM745 870v-115h-115v115h115zM620 870v-115h-115v115h115zM870 870v-115h-115v115h115zM495 870v-115h-115v115h115zM995 870v-115h-115v115h115zM745 745v-115h-115v115h115zM620 745
v-115h-115v115h115zM870 745v-115h-115v115h115zM745 620v-115h-115v115h115zM620 620v-115h-115v115h115zM370 620v-115h-115v115h115zM245 620v-115h-115v115h115zM870 620v-115h-115v115h115zM495 620v-115h-115v115h115zM745 495v-115h-115v115h115zM620 495v-115h-115
v115h115zM120 495v-115h-115v115h115zM245 495v-115h-115v115h115zM870 495v-115h-115v115h115zM370 495v-115h-115v115h115zM745 370v-115h-115v115h115zM620 370v-115h-115v115h115zM120 370v-115h-115v115h115zM245 370v-115h-115v115h115zM870 370v-115h-115v115h115z
M370 370v-115h-115v115h115zM745 245v-115h-115v115h115zM620 245v-115h-115v115h115zM120 245v-115h-115v115h115zM245 245v-115h-115v115h115zM870 245v-115h-115v115h115zM370 245v-115h-115v115h115zM745 120v-115h-115v115h115zM620 120v-115h-115v115h115zM370 120
v-115h-115v115h115zM245 120v-115h-115v115h115zM870 120v-115h-115v115h115zM495 120v-115h-115v115h115z" />
    <glyph glyph-name="Emacron" unicode="&#x112;" 
d="M495 1120v-115h-115v115h115zM370 1120v-115h-115v115h115zM245 1120v-115h-115v115h115zM620 1120v-115h-115v115h115zM745 1120v-115h-115v115h115zM620 870v-115h-115v115h115zM495 870v-115h-115v115h115zM370 870v-115h-115v115h115zM245 870v-115h-115v115h115z
M120 870v-115h-115v115h115zM870 870v-115h-115v115h115zM745 870v-115h-115v115h115zM245 745v-115h-115v115h115zM120 745v-115h-115v115h115zM370 745v-115h-115v115h115zM870 745v-115h-115v115h115zM745 745v-115h-115v115h115zM245 620v-115h-115v115h115zM120 620
v-115h-115v115h115zM370 620v-115h-115v115h115zM620 495v-115h-115v115h115zM495 495v-115h-115v115h115zM370 495v-115h-115v115h115zM245 495v-115h-115v115h115zM120 495v-115h-115v115h115zM745 495v-115h-115v115h115zM245 370v-115h-115v115h115zM120 370v-115h-115
v115h115zM370 370v-115h-115v115h115zM245 245v-115h-115v115h115zM120 245v-115h-115v115h115zM370 245v-115h-115v115h115zM870 245v-115h-115v115h115zM745 245v-115h-115v115h115zM745 120v-115h-115v115h115zM620 120v-115h-115v115h115zM495 120v-115h-115v115h115z
M370 120v-115h-115v115h115zM245 120v-115h-115v115h115zM120 120v-115h-115v115h115zM870 120v-115h-115v115h115z" />
    <glyph glyph-name="emacron" unicode="&#x113;" 
d="M370 870v-115h-115v115h115zM245 870v-115h-115v115h115zM120 870v-115h-115v115h115zM495 870v-115h-115v115h115zM495 620v-115h-115v115h115zM370 620v-115h-115v115h115zM245 620v-115h-115v115h115zM620 620v-115h-115v115h115zM745 620v-115h-115v115h115zM870 495
v-115h-115v115h115zM745 495v-115h-115v115h115zM245 495v-115h-115v115h115zM120 495v-115h-115v115h115zM370 495v-115h-115v115h115zM620 495v-115h-115v115h115zM870 370v-115h-115v115h115zM745 370v-115h-115v115h115zM495 370v-115h-115v115h115zM370 370v-115h-115
v115h115zM245 370v-115h-115v115h115zM120 370v-115h-115v115h115zM620 370v-115h-115v115h115zM245 245v-115h-115v115h115zM120 245v-115h-115v115h115zM370 245v-115h-115v115h115zM870 120v-115h-115v115h115zM745 120v-115h-115v115h115zM495 120v-115h-115v115h115z
M370 120v-115h-115v115h115zM245 120v-115h-115v115h115zM620 120v-115h-115v115h115z" />
    <glyph glyph-name="Ebreve" unicode="&#x114;" 
d="M620 1245v-115h-115v115h115zM245 1245v-115h-115v115h115zM120 1245v-115h-115v115h115zM495 1245v-115h-115v115h115zM745 1245v-115h-115v115h115zM620 1120v-115h-115v115h115zM495 1120v-115h-115v115h115zM370 1120v-115h-115v115h115zM245 1120v-115h-115v115h115
zM620 870v-115h-115v115h115zM495 870v-115h-115v115h115zM370 870v-115h-115v115h115zM245 870v-115h-115v115h115zM120 870v-115h-115v115h115zM870 870v-115h-115v115h115zM745 870v-115h-115v115h115zM245 745v-115h-115v115h115zM120 745v-115h-115v115h115zM370 745
v-115h-115v115h115zM870 745v-115h-115v115h115zM745 745v-115h-115v115h115zM245 620v-115h-115v115h115zM120 620v-115h-115v115h115zM370 620v-115h-115v115h115zM620 495v-115h-115v115h115zM495 495v-115h-115v115h115zM370 495v-115h-115v115h115zM245 495v-115h-115
v115h115zM120 495v-115h-115v115h115zM745 495v-115h-115v115h115zM245 370v-115h-115v115h115zM120 370v-115h-115v115h115zM370 370v-115h-115v115h115zM245 245v-115h-115v115h115zM120 245v-115h-115v115h115zM370 245v-115h-115v115h115zM870 245v-115h-115v115h115z
M745 245v-115h-115v115h115zM745 120v-115h-115v115h115zM620 120v-115h-115v115h115zM495 120v-115h-115v115h115zM370 120v-115h-115v115h115zM245 120v-115h-115v115h115zM120 120v-115h-115v115h115zM870 120v-115h-115v115h115z" />
    <glyph glyph-name="ebreve" unicode="&#x115;" 
d="M620 995v-115h-115v115h115zM245 995v-115h-115v115h115zM120 995v-115h-115v115h115zM495 995v-115h-115v115h115zM745 995v-115h-115v115h115zM620 870v-115h-115v115h115zM495 870v-115h-115v115h115zM370 870v-115h-115v115h115zM245 870v-115h-115v115h115zM495 620
v-115h-115v115h115zM370 620v-115h-115v115h115zM245 620v-115h-115v115h115zM620 620v-115h-115v115h115zM745 620v-115h-115v115h115zM870 495v-115h-115v115h115zM745 495v-115h-115v115h115zM245 495v-115h-115v115h115zM120 495v-115h-115v115h115zM370 495v-115h-115
v115h115zM620 495v-115h-115v115h115zM870 370v-115h-115v115h115zM745 370v-115h-115v115h115zM495 370v-115h-115v115h115zM370 370v-115h-115v115h115zM245 370v-115h-115v115h115zM120 370v-115h-115v115h115zM620 370v-115h-115v115h115zM245 245v-115h-115v115h115z
M120 245v-115h-115v115h115zM370 245v-115h-115v115h115zM870 120v-115h-115v115h115zM745 120v-115h-115v115h115zM495 120v-115h-115v115h115zM370 120v-115h-115v115h115zM245 120v-115h-115v115h115zM620 120v-115h-115v115h115z" />
    <glyph glyph-name="Edotaccent" unicode="&#x116;" 
d="M495 1245v-115h-115v115h115zM370 1245v-115h-115v115h115zM620 1245v-115h-115v115h115zM620 1120v-115h-115v115h115zM495 1120v-115h-115v115h115zM370 1120v-115h-115v115h115zM620 870v-115h-115v115h115zM495 870v-115h-115v115h115zM370 870v-115h-115v115h115z
M245 870v-115h-115v115h115zM120 870v-115h-115v115h115zM870 870v-115h-115v115h115zM745 870v-115h-115v115h115zM245 745v-115h-115v115h115zM120 745v-115h-115v115h115zM370 745v-115h-115v115h115zM870 745v-115h-115v115h115zM745 745v-115h-115v115h115zM245 620
v-115h-115v115h115zM120 620v-115h-115v115h115zM370 620v-115h-115v115h115zM620 495v-115h-115v115h115zM495 495v-115h-115v115h115zM370 495v-115h-115v115h115zM245 495v-115h-115v115h115zM120 495v-115h-115v115h115zM745 495v-115h-115v115h115zM245 370v-115h-115
v115h115zM120 370v-115h-115v115h115zM370 370v-115h-115v115h115zM245 245v-115h-115v115h115zM120 245v-115h-115v115h115zM370 245v-115h-115v115h115zM870 245v-115h-115v115h115zM745 245v-115h-115v115h115zM745 120v-115h-115v115h115zM620 120v-115h-115v115h115z
M495 120v-115h-115v115h115zM370 120v-115h-115v115h115zM245 120v-115h-115v115h115zM120 120v-115h-115v115h115zM870 120v-115h-115v115h115z" />
    <glyph glyph-name="edotaccent" unicode="&#x117;" 
d="M495 995v-115h-115v115h115zM370 995v-115h-115v115h115zM620 995v-115h-115v115h115zM620 870v-115h-115v115h115zM495 870v-115h-115v115h115zM370 870v-115h-115v115h115zM495 620v-115h-115v115h115zM370 620v-115h-115v115h115zM245 620v-115h-115v115h115zM620 620
v-115h-115v115h115zM745 620v-115h-115v115h115zM870 495v-115h-115v115h115zM745 495v-115h-115v115h115zM245 495v-115h-115v115h115zM120 495v-115h-115v115h115zM370 495v-115h-115v115h115zM620 495v-115h-115v115h115zM870 370v-115h-115v115h115zM745 370v-115h-115
v115h115zM495 370v-115h-115v115h115zM370 370v-115h-115v115h115zM245 370v-115h-115v115h115zM120 370v-115h-115v115h115zM620 370v-115h-115v115h115zM245 245v-115h-115v115h115zM120 245v-115h-115v115h115zM370 245v-115h-115v115h115zM870 120v-115h-115v115h115z
M745 120v-115h-115v115h115zM495 120v-115h-115v115h115zM370 120v-115h-115v115h115zM245 120v-115h-115v115h115zM620 120v-115h-115v115h115z" />
    <glyph glyph-name="Eogonek" unicode="&#x118;" 
d="M620 870v-115h-115v115h115zM495 870v-115h-115v115h115zM370 870v-115h-115v115h115zM245 870v-115h-115v115h115zM120 870v-115h-115v115h115zM870 870v-115h-115v115h115zM745 870v-115h-115v115h115zM245 745v-115h-115v115h115zM120 745v-115h-115v115h115zM370 745
v-115h-115v115h115zM870 745v-115h-115v115h115zM745 745v-115h-115v115h115zM245 620v-115h-115v115h115zM120 620v-115h-115v115h115zM370 620v-115h-115v115h115zM620 495v-115h-115v115h115zM495 495v-115h-115v115h115zM370 495v-115h-115v115h115zM245 495v-115h-115
v115h115zM120 495v-115h-115v115h115zM745 495v-115h-115v115h115zM245 370v-115h-115v115h115zM120 370v-115h-115v115h115zM370 370v-115h-115v115h115zM245 245v-115h-115v115h115zM120 245v-115h-115v115h115zM370 245v-115h-115v115h115zM870 245v-115h-115v115h115z
M745 245v-115h-115v115h115zM745 120v-115h-115v115h115zM620 120v-115h-115v115h115zM495 120v-115h-115v115h115zM370 120v-115h-115v115h115zM245 120v-115h-115v115h115zM120 120v-115h-115v115h115zM870 120v-115h-115v115h115zM745 -5v-115h-115v115h115zM620 -5v-115
h-115v115h115zM870 -130v-115h-115v115h115zM745 -130v-115h-115v115h115zM995 -130v-115h-115v115h115z" />
    <glyph glyph-name="eogonek" unicode="&#x119;" 
d="M495 620v-115h-115v115h115zM370 620v-115h-115v115h115zM245 620v-115h-115v115h115zM620 620v-115h-115v115h115zM745 620v-115h-115v115h115zM870 495v-115h-115v115h115zM745 495v-115h-115v115h115zM245 495v-115h-115v115h115zM120 495v-115h-115v115h115zM370 495
v-115h-115v115h115zM620 495v-115h-115v115h115zM870 370v-115h-115v115h115zM745 370v-115h-115v115h115zM495 370v-115h-115v115h115zM370 370v-115h-115v115h115zM245 370v-115h-115v115h115zM120 370v-115h-115v115h115zM620 370v-115h-115v115h115zM245 245v-115h-115
v115h115zM120 245v-115h-115v115h115zM370 245v-115h-115v115h115zM870 120v-115h-115v115h115zM745 120v-115h-115v115h115zM495 120v-115h-115v115h115zM370 120v-115h-115v115h115zM245 120v-115h-115v115h115zM620 120v-115h-115v115h115zM620 -5v-115h-115v115h115z
M495 -5v-115h-115v115h115zM745 -130v-115h-115v115h115zM620 -130v-115h-115v115h115zM870 -130v-115h-115v115h115z" />
    <glyph glyph-name="Ecaron" unicode="&#x11a;" 
d="M495 1245v-115h-115v115h115zM370 1245v-115h-115v115h115zM245 1245v-115h-115v115h115zM745 1245v-115h-115v115h115zM620 1120v-115h-115v115h115zM495 1120v-115h-115v115h115zM370 1120v-115h-115v115h115zM620 870v-115h-115v115h115zM495 870v-115h-115v115h115z
M370 870v-115h-115v115h115zM245 870v-115h-115v115h115zM120 870v-115h-115v115h115zM870 870v-115h-115v115h115zM745 870v-115h-115v115h115zM245 745v-115h-115v115h115zM120 745v-115h-115v115h115zM370 745v-115h-115v115h115zM870 745v-115h-115v115h115zM745 745
v-115h-115v115h115zM245 620v-115h-115v115h115zM120 620v-115h-115v115h115zM370 620v-115h-115v115h115zM620 495v-115h-115v115h115zM495 495v-115h-115v115h115zM370 495v-115h-115v115h115zM245 495v-115h-115v115h115zM120 495v-115h-115v115h115zM745 495v-115h-115
v115h115zM245 370v-115h-115v115h115zM120 370v-115h-115v115h115zM370 370v-115h-115v115h115zM245 245v-115h-115v115h115zM120 245v-115h-115v115h115zM370 245v-115h-115v115h115zM870 245v-115h-115v115h115zM745 245v-115h-115v115h115zM745 120v-115h-115v115h115z
M620 120v-115h-115v115h115zM495 120v-115h-115v115h115zM370 120v-115h-115v115h115zM245 120v-115h-115v115h115zM120 120v-115h-115v115h115zM870 120v-115h-115v115h115z" />
    <glyph glyph-name="ecaron" unicode="&#x11b;" 
d="M495 995v-115h-115v115h115zM370 995v-115h-115v115h115zM245 995v-115h-115v115h115zM745 995v-115h-115v115h115zM620 870v-115h-115v115h115zM495 870v-115h-115v115h115zM370 870v-115h-115v115h115zM495 620v-115h-115v115h115zM370 620v-115h-115v115h115zM245 620
v-115h-115v115h115zM620 620v-115h-115v115h115zM745 620v-115h-115v115h115zM870 495v-115h-115v115h115zM745 495v-115h-115v115h115zM245 495v-115h-115v115h115zM120 495v-115h-115v115h115zM370 495v-115h-115v115h115zM620 495v-115h-115v115h115zM870 370v-115h-115
v115h115zM745 370v-115h-115v115h115zM495 370v-115h-115v115h115zM370 370v-115h-115v115h115zM245 370v-115h-115v115h115zM120 370v-115h-115v115h115zM620 370v-115h-115v115h115zM245 245v-115h-115v115h115zM120 245v-115h-115v115h115zM370 245v-115h-115v115h115z
M870 120v-115h-115v115h115zM745 120v-115h-115v115h115zM495 120v-115h-115v115h115zM370 120v-115h-115v115h115zM245 120v-115h-115v115h115zM620 120v-115h-115v115h115z" />
    <glyph glyph-name="Gcircumflex" unicode="&#x11c;" 
d="M370 1245v-115h-115v115h115zM620 1245v-115h-115v115h115zM495 1245v-115h-115v115h115zM620 1120v-115h-115v115h115zM495 1120v-115h-115v115h115zM245 1120v-115h-115v115h115zM745 1120v-115h-115v115h115zM495 870v-115h-115v115h115zM370 870v-115h-115v115h115z
M245 870v-115h-115v115h115zM745 870v-115h-115v115h115zM870 870v-115h-115v115h115zM620 870v-115h-115v115h115zM370 745v-115h-115v115h115zM245 745v-115h-115v115h115zM120 745v-115h-115v115h115zM745 745v-115h-115v115h115zM870 745v-115h-115v115h115zM370 620
v-115h-115v115h115zM245 620v-115h-115v115h115zM120 620v-115h-115v115h115zM370 495v-115h-115v115h115zM245 495v-115h-115v115h115zM120 495v-115h-115v115h115zM870 370v-115h-115v115h115zM745 370v-115h-115v115h115zM620 370v-115h-115v115h115zM370 370v-115h-115
v115h115zM245 370v-115h-115v115h115zM120 370v-115h-115v115h115zM870 245v-115h-115v115h115zM370 245v-115h-115v115h115zM245 245v-115h-115v115h115zM120 245v-115h-115v115h115zM745 245v-115h-115v115h115zM745 120v-115h-115v115h115zM495 120v-115h-115v115h115z
M370 120v-115h-115v115h115zM245 120v-115h-115v115h115zM620 120v-115h-115v115h115z" />
    <glyph glyph-name="gcircumflex" unicode="&#x11d;" 
d="M370 995v-115h-115v115h115zM620 995v-115h-115v115h115zM495 995v-115h-115v115h115zM620 870v-115h-115v115h115zM495 870v-115h-115v115h115zM245 870v-115h-115v115h115zM745 870v-115h-115v115h115zM620 620v-115h-115v115h115zM370 620v-115h-115v115h115zM245 620
v-115h-115v115h115zM870 620v-115h-115v115h115zM495 620v-115h-115v115h115zM745 620v-115h-115v115h115zM745 495v-115h-115v115h115zM620 495v-115h-115v115h115zM245 495v-115h-115v115h115zM120 495v-115h-115v115h115zM870 495v-115h-115v115h115zM370 495v-115h-115
v115h115zM745 370v-115h-115v115h115zM620 370v-115h-115v115h115zM245 370v-115h-115v115h115zM120 370v-115h-115v115h115zM870 370v-115h-115v115h115zM370 370v-115h-115v115h115zM745 245v-115h-115v115h115zM620 245v-115h-115v115h115zM245 245v-115h-115v115h115z
M120 245v-115h-115v115h115zM870 245v-115h-115v115h115zM370 245v-115h-115v115h115zM745 120v-115h-115v115h115zM620 120v-115h-115v115h115zM370 120v-115h-115v115h115zM245 120v-115h-115v115h115zM870 120v-115h-115v115h115zM495 120v-115h-115v115h115zM745 -5
v-115h-115v115h115zM620 -5v-115h-115v115h115zM870 -5v-115h-115v115h115zM620 -130v-115h-115v115h115zM370 -130v-115h-115v115h115zM245 -130v-115h-115v115h115zM745 -130v-115h-115v115h115zM495 -130v-115h-115v115h115z" />
    <glyph glyph-name="Gbreve" unicode="&#x11e;" 
d="M620 1245v-115h-115v115h115zM245 1245v-115h-115v115h115zM120 1245v-115h-115v115h115zM495 1245v-115h-115v115h115zM745 1245v-115h-115v115h115zM620 1120v-115h-115v115h115zM495 1120v-115h-115v115h115zM370 1120v-115h-115v115h115zM245 1120v-115h-115v115h115
zM495 870v-115h-115v115h115zM370 870v-115h-115v115h115zM245 870v-115h-115v115h115zM745 870v-115h-115v115h115zM870 870v-115h-115v115h115zM620 870v-115h-115v115h115zM370 745v-115h-115v115h115zM245 745v-115h-115v115h115zM120 745v-115h-115v115h115zM745 745
v-115h-115v115h115zM870 745v-115h-115v115h115zM370 620v-115h-115v115h115zM245 620v-115h-115v115h115zM120 620v-115h-115v115h115zM370 495v-115h-115v115h115zM245 495v-115h-115v115h115zM120 495v-115h-115v115h115zM870 370v-115h-115v115h115zM745 370v-115h-115
v115h115zM620 370v-115h-115v115h115zM370 370v-115h-115v115h115zM245 370v-115h-115v115h115zM120 370v-115h-115v115h115zM870 245v-115h-115v115h115zM370 245v-115h-115v115h115zM245 245v-115h-115v115h115zM120 245v-115h-115v115h115zM745 245v-115h-115v115h115z
M745 120v-115h-115v115h115zM495 120v-115h-115v115h115zM370 120v-115h-115v115h115zM245 120v-115h-115v115h115zM620 120v-115h-115v115h115z" />
    </font>
</defs>
</svg>
